<svg width="130" height="24" viewBox="0 0 130 24" fill="none" xmlns="http://www.w3.org/2000/svg">
<path d="M12.8237 15.8196L8.33359 18.5619L9.55428 13.4439L5.55915 10.0216L10.8033 9.6015L12.8237 4.74316L14.8442 9.6015L20.0891 10.0216L16.0932 13.4439L17.3139 18.5619L12.8237 15.8196Z" fill="#1C2436"/>
<path d="M38.8237 15.8196L34.3336 18.5619L35.5543 13.4439L31.5592 10.0216L36.8033 9.6015L38.8237 4.74316L40.8442 9.6015L46.0891 10.0216L42.0932 13.4439L43.3139 18.5619L38.8237 15.8196Z" fill="#1C2436"/>
<path d="M64.8237 15.8196L60.3336 18.5619L61.5543 13.4439L57.5592 10.0216L62.8033 9.6015L64.8237 4.74316L66.8442 9.6015L72.0891 10.0216L68.0932 13.4439L69.3139 18.5619L64.8237 15.8196Z" fill="#1C2436"/>
<path d="M90.8237 15.8196L86.3336 18.5619L87.5543 13.4439L83.5592 10.0216L88.8033 9.6015L90.8237 4.74316L92.8442 9.6015L98.0891 10.0216L94.0932 13.4439L95.3139 18.5619L90.8237 15.8196Z" fill="#1C2436"/>
<path d="M116.823 15.8196L112.333 18.5619L113.554 13.4439L109.559 10.0216L114.803 9.6015L116.823 4.74316L118.844 9.6015L124.089 10.0216L120.093 13.4439L121.314 18.5619L116.823 15.8196Z" fill="#1C2436"/>
</svg>
