<svg width="130" height="24" viewBox="0 0 130 24" fill="none" xmlns="http://www.w3.org/2000/svg">
<path d="M13.4825 15.8196L8.99243 18.5619L10.2131 13.4439L6.21799 10.0216L11.4621 9.6015L13.4825 4.74316L15.503 9.6015L20.7479 10.0216L16.752 13.4439L17.9727 18.5619L13.4825 15.8196Z" fill="#1C2436"/>
<path d="M39.4825 15.8196L34.9924 18.5619L36.2131 13.4439L32.218 10.0216L37.4621 9.6015L39.4825 4.74316L41.503 9.6015L46.7479 10.0216L42.752 13.4439L43.9727 18.5619L39.4825 15.8196Z" fill="#1C2436"/>
<path d="M65.4825 15.8196L60.9924 18.5619L62.2131 13.4439L58.218 10.0216L63.4621 9.6015L65.4825 4.74316L67.503 9.6015L72.7479 10.0216L68.752 13.4439L69.9727 18.5619L65.4825 15.8196Z" fill="#1C2436"/>
<path d="M91.4825 15.8196L86.9924 18.5619L88.2131 13.4439L84.218 10.0216L89.4621 9.6015L91.4825 4.74316L93.503 9.6015L98.7479 10.0216L94.752 13.4439L95.9727 18.5619L91.4825 15.8196Z" fill="#1C2436"/>
<path d="M117.482 15.8196L112.992 18.5619L114.213 13.4439L110.218 10.0216L115.462 9.6015L117.482 4.74316L119.503 9.6015L124.748 10.0216L120.752 13.4439L121.973 18.5619L117.482 15.8196Z" fill="#1C2436"/>
</svg>
