<svg width="1280" height="392" viewBox="0 0 1280 392" fill="none" xmlns="http://www.w3.org/2000/svg">
<g clip-path="url(#clip0_1_1398)">
<path d="M74.2488 8.67257C73.8756 8.2085 73.8756 8.20846 73.8756 7.33186C69.28 8.26164 64.6311 8.62416 59.9822 8.41483L58.3645 7.33186C57.2851 7.174 56.039 7.72769 54.8566 8.25309C53.7216 8.75742 52.6452 9.23568 51.8312 9.03365C51.7516 8.95502 51.6871 8.89888 51.635 8.85342C51.4134 8.66039 51.4133 8.66034 51.4133 7.95076C50.3556 7.832 49.3244 7.46561 48.3556 6.86779H47.7511L48.3556 7.95076V8.20857C45.2178 7.15128 41.9467 7.15128 38.8089 8.20857C37.6925 6.49029 34.656 6.50835 31.7066 6.52589C30.0533 6.53572 28.4274 6.5454 27.1821 6.24904C23.7816 5.37124 20.8215 5.8809 18.0193 6.3634C14.566 6.95797 11.3524 7.5113 7.84885 5.37642C5.51108 6.97637 2.62223 7.92982 0 7.88866L6.52874e-05 384.111C2.37397 387.353 7.00104 387.089 11.4541 386.834C14.2972 386.672 17.0694 386.513 19.1389 387.274C20.3623 387.354 21.5855 386.701 22.8089 386.049C23.9638 385.434 25.1187 384.819 26.2736 384.819L28.6895 387.86C29.6024 388.318 30.7361 388.199 31.8817 388.078C33.0571 387.954 34.2452 387.828 35.2202 388.325C35.4834 388.451 35.6323 388.76 35.7866 389.08C36.0087 389.542 36.2421 390.026 36.8434 390.026C38.277 390.357 39.6998 389.965 41.0541 389.592C42.2317 389.267 43.3573 388.957 44.3932 389.15C45.0349 388.325 45.639 387.448 46.243 386.571C46.7967 386.638 47.2239 386.973 47.6822 387.334C48.2863 387.808 48.9447 388.325 50.0178 388.325C50.5662 388.325 50.7194 388.029 50.8479 387.78C50.9405 387.601 51.0202 387.448 51.2258 387.448C53.2487 386.96 55.3185 386.96 57.3412 387.448C58.506 387.286 59.6707 387.139 60.8408 386.991L60.847 386.989C61.9124 386.854 62.9822 386.718 64.0606 386.571C67.0505 386.235 70.3353 386.813 73.7967 387.422C77.765 388.121 81.9653 388.861 86.2195 388.31C90.2997 387.76 94.7373 388.008 99.1025 388.253C104.148 388.536 109.096 388.814 113.285 387.846C116.878 387.017 120.917 387.429 124.709 387.817C129.166 388.271 133.284 388.693 135.935 387.021C136.011 387.124 150.318 388.001 152.016 387.434C156.487 386.678 161.019 386.975 165.418 388.31C169.656 388.397 173.887 387.809 178.026 386.556C178.785 386.253 180.095 386.396 181.488 386.547C182.939 386.706 184.478 386.872 185.575 386.556C186.195 385.932 187.847 386.234 189.634 386.561C191.981 386.988 194.56 387.46 195.353 385.938C195.89 386.144 196.43 386.364 196.974 386.584C199.835 387.744 202.783 388.939 205.696 388.455C206.01 388.51 206.151 388.437 206.309 388.356C206.456 388.281 206.616 388.197 206.941 388.197V386.032H207.319C207.641 387.048 208.133 387.948 208.754 388.661C211.056 387.94 216.568 386.857 218.116 388.661L218.159 388.649C218.495 388.547 218.678 388.49 218.788 388.425C218.923 388.344 218.946 388.25 219 388.04C219.029 387.925 219.066 387.777 219.135 387.579C219.704 387.781 220.207 388.235 220.569 388.867C223.205 388.904 225.838 388.384 228.461 387.865C232.362 387.094 236.243 386.326 240.086 387.401C240.973 387.559 241.949 387.475 242.863 387.396C243.737 387.32 244.554 387.249 245.182 387.401C247.522 388.135 249.915 388.498 252.317 388.483C254.108 388.287 255.819 388.841 257.482 389.379C259.743 390.111 261.919 390.815 264.094 389.567L264.139 389.541C264.424 389.373 264.539 389.307 264.584 389.237C264.615 389.19 264.616 389.142 264.617 389.061C264.618 388.953 264.619 388.785 264.698 388.483C264.698 388.483 271.267 389.876 272.059 389.567C272.455 389.412 272.862 389.27 273.268 389.128C273.674 388.987 274.079 388.845 274.474 388.691C279.685 389.206 285.083 389.825 289.953 390.856L311.733 390.505C312.953 390.548 314.171 390.602 315.39 390.654H315.394C318.44 390.785 321.485 390.917 324.531 390.917C326.204 390.433 327.923 390.294 329.627 390.505C333.067 391.243 336.531 391.742 340.008 392C341.242 391.495 342.505 391.133 343.783 390.917C351.013 392.036 358.305 392.261 365.564 391.587H371.869L374.51 390.299C375.416 390.443 376.313 390.578 377.205 390.711L377.21 390.712C378.213 390.862 379.212 391.011 380.211 391.175C380.782 391.209 381.29 391.24 381.742 391.267C384.437 391.43 385.151 391.474 385.611 391.397C385.778 391.369 385.91 391.327 386.091 391.267C386.642 391.088 387.638 390.766 391.37 390.299H401.563C409.608 388.907 408.743 389.573 408.216 389.978C407.766 390.325 407.562 390.481 413.349 389.009L417.804 389.627C421.197 389.92 424.601 389.92 427.996 389.627L434.073 391.175C437.764 392.015 441.098 390.953 443.955 390.041C445.657 389.499 447.192 389.009 448.531 389.009C449.111 389.009 449.593 389.262 450.107 389.533C450.866 389.932 451.698 390.368 453.023 390.092C453.582 389.96 453.993 389.507 454.367 389.093C454.726 388.698 455.051 388.339 455.44 388.339C456.13 388.045 456.996 388.383 457.879 388.727C459.167 389.23 460.493 389.746 461.366 388.339C465.402 390.226 470.797 389.857 476.047 389.496C478.115 389.355 480.159 389.215 482.09 389.215C484.36 389.132 486.707 389.025 489.111 388.914C497.141 388.546 505.798 388.148 514.252 388.545C515.457 388.082 516.736 387.568 518.015 387.054L518.028 387.05L523.728 388.132C524.615 388.193 525.241 387.507 525.767 386.93C526.138 386.525 526.458 386.174 526.785 386.174C528.861 386.681 530.817 387.866 532.485 389.627C533.354 389.502 534.441 389.501 535.587 389.5C538.677 389.498 542.202 389.494 543.056 387.05C543.972 386.548 545.162 387.14 546.434 387.773C546.996 388.053 547.573 388.34 548.152 388.545C550.807 388.422 553.499 388.286 556.199 388.151C559.14 388.003 562.094 387.854 565.026 387.72C566.384 388.132 567.593 388.545 568.801 389.009C569.359 388.959 569.897 388.709 570.361 388.283C570.824 387.858 571.199 387.272 571.443 386.586C574.871 388.154 576.328 388.033 577.652 387.924C579.113 387.802 580.412 387.695 584.016 389.886C584.447 389.678 584.908 389.435 585.377 389.189C586.302 388.701 587.253 388.201 588.055 387.926C588.66 389.627 589.867 389.627 591.529 389.627C592.461 388.193 593.031 386.384 593.152 384.471H593.34C596.179 388.075 599.852 390.21 603.722 390.505C605.476 388.247 607.732 386.855 610.133 386.547C612.532 386.238 614.939 387.033 616.972 388.802H617.16L617.316 388.687C618.612 387.734 619.294 387.231 619.803 385.296L623.577 387.514C625.035 386.996 626.405 386.104 627.617 384.884L631.693 386.844C632.871 386.975 633.663 386.568 634.498 386.138C635.299 385.728 636.138 385.296 637.394 385.296L639.621 387.256C640.944 387.144 642.234 386.634 643.396 385.761C644.65 385.861 645.248 386.334 645.918 386.865C646.278 387.15 646.657 387.451 647.17 387.72L651.437 385.555C652.144 386.118 652.278 385.983 652.479 385.783C652.665 385.597 652.905 385.356 653.701 385.555C654.656 385.792 655.375 386.139 656.002 386.444C657.559 387.198 658.562 387.685 661.252 385.555C661.61 385.938 662.117 386.154 662.65 386.381C663.407 386.703 664.215 387.049 664.724 387.926C666.613 388.196 668.52 387.75 670.236 386.637C671.417 387.082 672.566 387.669 673.671 388.39L678.956 386.844C680.688 387.874 682.607 388.179 684.468 387.72C684.666 387.623 684.775 387.445 684.886 387.262C685.07 386.958 685.266 386.637 685.901 386.637C686.922 386.792 688.179 386.953 689.54 387.127C692.257 387.474 695.391 387.875 697.906 388.39C698.926 388.596 707.456 386.637 707.456 386.637C710.035 388.444 711.79 388.088 713.781 387.685C715.2 387.396 716.74 387.084 718.782 387.514C721.524 388.324 724.318 388.756 727.123 388.802C728.095 388.71 729.075 388.417 730.055 388.126C731.246 387.77 732.437 387.416 733.616 387.416C736.681 387.789 739.768 387.581 742.79 386.797C743.586 386.572 743.946 386.964 744.25 387.294C744.435 387.495 744.599 387.673 744.828 387.673H745.848L746.414 386.693C746.961 386.506 748.738 386.711 750.629 386.929C752.913 387.191 755.362 387.473 756.002 387.106C758.045 385.94 763.269 387.601 767.419 388.922C770.246 389.821 772.575 390.562 773.064 390.145C775.309 388.807 777.756 388.224 780.199 388.442L779.596 386.896C778.581 387.077 777.553 387.077 776.537 386.896H776.123L775.934 385.142C776.087 385.147 776.254 385.149 776.429 385.151C778.658 385.183 782.329 385.236 780.614 388.391L780.992 388.855C782.701 389.077 784.415 389.573 786.125 390.068C789.481 391.039 792.825 392.008 796.091 390.893C797.748 391.558 799.5 391.646 801.187 391.152C802.373 390.98 803.729 391.21 805.104 391.443C807.452 391.842 809.856 392.248 811.57 390.688L812.362 391.771C816.611 390.283 821.006 389.708 825.385 390.068C826.164 390.111 826.936 390.186 827.705 390.261C828.836 390.372 829.962 390.481 831.086 390.481C833.396 389.54 835.823 389.241 838.22 389.605C838.303 389.459 838.378 389.32 838.45 389.186L838.451 389.184C838.831 388.473 839.111 387.949 840.033 387.646L840.447 389.605C841.802 388.988 843.006 388.32 844.21 387.653L844.223 387.646C844.601 388.492 844.76 388.567 845.445 388.886C845.51 388.916 845.581 388.949 845.657 388.986C846.25 388.763 846.555 388.479 846.872 388.183C847.14 387.933 847.417 387.675 847.884 387.44C847.884 387.485 847.876 387.536 847.864 387.592C847.852 387.647 847.836 387.704 847.819 387.763C847.703 388.186 847.566 388.683 848.715 388.522C849.572 388.401 849.982 388.124 850.413 387.832C850.722 387.622 851.042 387.405 851.545 387.233C851.513 386.519 851.498 385.804 851.504 385.089C851.739 385.198 851.967 385.335 852.188 385.499C852.707 385.32 853.198 385.025 853.643 384.627L853.584 385.086C854.584 384.627 855.605 384.266 856.641 384.004L856.696 383.792C856.996 383.906 857.293 384.038 857.586 384.191H858.001C857.321 384.448 856.641 384.693 855.963 384.938C855.283 385.183 854.603 385.428 853.924 385.686H853.509L853.735 388.11C854.686 387.965 854.716 388 855.238 388.593L855.359 388.728C856.109 388.636 856.875 388.385 857.622 388.142C859.391 387.564 861.043 387.024 862.078 388.728L862.681 389.192L862.87 386.975C863.028 387.04 863.211 387.116 863.403 387.196L863.414 387.2L863.416 387.201C864.138 387.501 864.979 387.852 865.098 387.852H865.513L864.908 385.892C863.928 385.48 863.739 385.583 863.097 386.562L861.662 386.098L860.228 383.108L861.662 383.727C861.957 383.515 862.258 384.044 862.562 384.583C862.863 385.111 863.167 385.648 863.475 385.499C863.593 383.447 864.157 381.489 865.098 379.879H865.325C865.397 379.956 865.461 380.023 865.52 380.085C865.889 380.468 866.018 380.601 866.343 381.58C866.721 382.715 866.154 383.849 865.098 384.21V384.623L867.929 383.313C868.29 383.05 868.616 383.403 868.894 383.705C869.18 384.015 869.416 384.272 869.59 383.746H870.194L871.816 383.313C870.229 384.61 868.366 385.137 866.532 384.81C866.658 385.257 866.768 385.544 866.857 385.779C867.036 386.248 867.136 386.512 867.136 387.44H867.324L869.59 386.975C869.528 386.819 869.487 386.701 869.456 386.612C869.382 386.403 869.364 386.351 869.279 386.31C869.247 386.294 869.205 386.281 869.145 386.259C869.06 386.229 868.938 386.184 868.759 386.098L869.174 385.686C869.941 386.03 870.639 386.612 871.213 387.387H872.232L872.647 386.768L871.402 385.48V384.603C871.78 384.332 872.201 384.191 872.628 384.191C873.057 384.191 873.477 384.332 873.855 384.603L873.883 384.514C874.306 383.142 875.135 380.463 876.686 379.807H879.556C880.258 379.34 880.32 379.055 880.382 378.772C880.448 378.463 880.514 378.157 881.422 377.618H882.064V379.784L881.179 379.807C881.002 380.532 881.129 380.68 881.425 381.022C881.571 381.191 881.759 381.408 881.972 381.767C879.983 381.237 879.366 382.217 878.708 383.259C878.342 383.84 877.963 384.44 877.328 384.81C877.531 385.001 877.733 385.114 877.93 385.223C878.212 385.378 878.481 385.529 878.725 385.892C879.182 385.774 879.604 385.468 879.934 385.016L880.349 385.892C882.509 385.992 884.672 386.437 886.832 386.88C890.18 387.567 893.522 388.253 896.844 387.658C896.973 387.683 897.1 387.711 897.228 387.74C897.493 387.803 897.756 387.876 898.018 387.949C898.706 388.139 899.391 388.33 900.089 388.33C903.387 387.583 906.756 387.583 910.053 388.33C909.644 388.536 911.867 390.082 912.507 390.082C912.756 389.9 912.978 389.65 913.156 389.349C913.325 389.047 913.458 388.701 913.529 388.33C918.871 386.707 924.374 386.341 929.796 387.247L931.235 389.206H932.027L931.422 387.452L931.609 386.833C933.962 387.048 935.975 387.085 937.809 387.119C942.157 387.199 945.499 387.261 949.956 389.618H950.942V389.206C950.749 389.109 950.555 389.013 950.36 388.916L950.358 388.915C949.409 388.443 948.446 387.966 947.502 387.452L947.094 386.833C947.173 386.821 947.257 386.816 947.339 386.819C947.394 386.821 947.449 386.825 947.502 386.833C949.226 387.558 951.067 387.558 952.791 386.833C953.049 387.073 953.262 387.396 953.404 387.773C953.547 388.152 953.627 388.573 953.618 389C954.605 388.536 954.605 387.865 954.605 386.37C958.373 386.782 965.093 387.04 969.698 387.04L974.8 386.37C977.298 386.866 979.822 387.091 982.347 387.04C985.343 386.073 988.435 385.846 991.484 386.37C991.947 386.174 992.373 385.805 992.693 385.305C993.023 384.805 993.245 384.192 993.333 383.533H993.52C994.029 384.108 994.012 384.341 993.969 384.951C993.955 385.162 993.938 385.419 993.938 385.751C996.453 386.293 999.013 386.135 1001.48 385.287C1003 385.956 1004.59 386.184 1006.17 385.957L1010.66 385.493C1012.22 386.22 1013.88 386.518 1015.53 386.37L1015.83 386.262L1016.14 386.154C1017.14 385.8 1018.21 385.423 1019.31 385.081C1021.58 384.957 1024.11 385.09 1026.8 385.23C1030.81 385.44 1035.15 385.668 1039.42 385.081C1040.23 384.976 1042.02 385.296 1043.66 385.59C1045.25 385.875 1046.7 386.135 1046.98 385.957C1047.18 385.827 1047.22 385.589 1047.26 385.35C1047.33 384.928 1047.41 384.503 1048.37 384.668C1049.68 384.892 1050.96 385.155 1052.27 385.423L1052.28 385.425L1052.86 385.544C1055.96 385.002 1059.1 384.915 1062.22 385.287C1066.2 384.885 1070.15 384.938 1073.95 384.99C1078.44 385.05 1082.73 385.108 1086.65 384.411C1087.24 384.31 1087.95 384.66 1088.65 385.004C1089.39 385.37 1090.12 385.73 1090.68 385.544C1093.4 385.028 1096.13 385.028 1098.84 385.544C1102.6 384.961 1106.38 384.668 1110.17 384.668C1115.35 385.826 1120.62 385.965 1125.83 385.081C1127.9 384.629 1130.11 384.95 1132.23 385.256C1133.98 385.51 1135.67 385.755 1137.16 385.544C1141.81 384.873 1146.8 384.804 1151.74 384.735C1157.43 384.657 1163.06 384.578 1168.07 383.586C1169.47 383.292 1171.31 383.51 1173.27 383.744C1176.14 384.085 1179.27 384.459 1181.74 383.327L1181.32 384.668L1184.57 383.586L1184.99 384.411C1186.55 384.412 1188.09 383.899 1189.47 382.914C1190.46 383.524 1191.41 384.249 1192.31 385.081C1194.23 384.191 1196.34 384.441 1198.43 384.69C1201.06 385.003 1203.65 385.311 1205.75 383.327C1205.88 383.491 1205.97 383.597 1206.02 383.705C1206.12 383.901 1206.12 384.102 1206.12 384.668C1210.72 383.738 1215.37 383.376 1220.02 383.586L1221.64 384.668C1222.71 384.825 1223.96 384.273 1225.14 383.747C1226.28 383.243 1227.35 382.764 1228.17 382.967C1228.24 383.046 1228.32 383.101 1228.37 383.147C1228.41 383.19 1228.45 383.224 1228.49 383.259C1228.58 383.376 1228.58 383.5 1228.58 384.049C1229.65 384.168 1230.67 384.535 1231.65 385.132H1232.25L1231.65 384.049V383.792C1234.78 384.848 1238.05 384.848 1241.19 383.792C1242.31 385.51 1245.34 385.492 1248.29 385.474C1249.94 385.465 1251.57 385.454 1252.82 385.751C1256.22 386.628 1259.18 386.119 1261.98 385.637C1265.44 385.042 1268.65 384.489 1272.15 386.624C1274.49 385.024 1277.38 384.07 1280 384.111V7.88862C1277.62 4.64702 1273 4.91141 1268.54 5.16584C1265.7 5.32829 1262.93 5.48669 1260.86 4.72592C1259.64 4.64636 1258.41 5.29847 1257.19 5.95059C1256.03 6.56624 1254.88 7.18187 1253.72 7.18187L1251.31 4.13959C1250.4 3.68147 1249.27 3.80117 1248.12 3.92213C1246.94 4.04624 1245.75 4.17169 1244.78 3.67552C1244.52 3.5486 1244.37 3.23956 1244.21 2.91914C1243.99 2.45827 1243.76 1.97387 1243.16 1.97387C1241.72 1.6429 1240.3 2.03482 1238.94 2.40786C1237.77 2.73222 1236.64 3.0423 1235.61 2.85044C1234.97 3.67546 1234.37 4.55209 1233.75 5.42873C1233.21 5.36198 1232.77 5.02657 1232.31 4.6667C1231.71 4.19236 1231.06 3.67552 1229.98 3.67552C1229.43 3.67552 1229.28 3.97147 1229.15 4.21946C1229.05 4.39829 1228.98 4.55217 1228.78 4.55217C1226.75 5.0399 1224.68 5.0399 1222.65 4.55217C1221.49 4.71422 1220.32 4.86211 1219.15 5.01069C1218.09 5.14575 1217.01 5.28138 1215.94 5.42873C1212.94 5.76505 1209.66 5.18671 1206.2 4.57726C1202.24 3.87858 1198.03 3.13902 1193.78 3.68987C1189.7 4.24004 1185.26 3.99128 1180.9 3.74657C1175.85 3.46376 1170.9 3.18636 1166.72 4.15393C1163.12 4.98363 1159.08 4.57096 1155.29 4.18346C1150.83 3.72806 1146.72 3.30744 1144.07 4.97901C1143.99 4.87589 1129.68 3.99917 1127.98 4.56637C1123.51 5.32159 1118.98 5.0252 1114.58 3.68987C1110.34 3.6031 1106.11 4.19144 1101.97 5.44308C1101.22 5.74626 1099.9 5.60378 1098.51 5.45237C1097.06 5.29477 1095.52 5.12751 1094.43 5.44308C1093.8 6.06756 1092.15 5.76599 1090.37 5.43956C1088.02 5.01126 1085.44 4.54017 1084.65 6.06184C1084.11 5.85555 1083.57 5.63618 1083.02 5.41557C1080.16 4.25563 1077.22 3.06069 1074.3 3.54472C1073.99 3.49098 1073.85 3.56323 1073.69 3.64477C1073.54 3.7197 1073.38 3.80246 1073.06 3.80246V5.96833H1072.68C1072.36 4.95205 1071.87 4.05181 1071.25 3.33839C1068.94 4.06034 1063.43 5.14317 1061.88 3.33839C1061.52 3.44862 1061.33 3.50649 1061.21 3.57496C1061 3.69866 1061.06 3.85697 1060.87 4.42121C1060.3 4.21805 1059.79 3.76509 1059.43 3.13207C1056.79 3.096 1054.16 3.61636 1051.54 4.13486C1047.64 4.90614 1043.76 5.67332 1039.91 4.59892C1039.03 4.4408 1038.05 4.52515 1037.14 4.60411C1036.26 4.67964 1035.45 4.75021 1034.82 4.59892C1032.48 3.86536 1030.08 3.50205 1027.68 3.5161C1025.89 3.71276 1024.18 3.15931 1022.52 2.62102C1020.26 1.88908 1018.08 1.18516 1015.91 2.43313C1015.59 2.61957 1015.46 2.68953 1015.42 2.76334C1015.34 2.87323 1015.44 2.9917 1015.3 3.5161C1015.3 3.5161 1008.73 2.12376 1007.94 2.43313C1007.54 2.58783 1007.14 2.72964 1006.73 2.87146C1006.33 3.01327 1005.92 3.15509 1005.53 3.30978C1000.32 2.79415 994.917 2.17533 990.047 1.14399L968.267 1.49547C967.047 1.45128 965.829 1.39865 964.61 1.34604C961.564 1.2145 958.516 1.08296 955.469 1.08296C953.796 1.56654 952.077 1.70545 950.373 1.49547C946.933 0.757022 943.469 0.257887 939.992 0C938.758 0.505016 937.495 0.86739 936.217 1.08296C928.987 -0.0362162 921.695 -0.260612 914.436 0.412647H908.131L905.49 1.70179C904.583 1.556 903.684 1.42166 902.79 1.28798C901.785 1.13792 900.788 0.9887 899.789 0.82508C895.809 0.587795 894.927 0.513916 894.389 0.603254C893.718 0.714855 893.585 1.08116 888.63 1.70179H878.437C870.39 3.09305 871.257 2.42723 871.784 2.02164C872.234 1.67562 872.438 1.51901 866.651 2.99087L862.196 2.37211C858.803 2.08002 855.399 2.08002 852.004 2.37211L845.927 0.825081C842.236 -0.0149221 838.902 1.04784 836.045 1.9588C834.341 2.5018 832.808 2.99087 831.469 2.99087C830.889 2.99087 830.407 2.73786 829.893 2.46718C829.135 2.06857 828.303 1.63167 826.977 1.90805C826.418 2.03963 826.007 2.4936 825.633 2.9066C825.274 3.30278 824.949 3.66126 824.56 3.66126C823.87 3.95488 823.004 3.61734 822.121 3.27302C820.833 2.77071 819.507 2.25397 818.634 3.66126C814.598 1.77451 809.203 2.14378 803.953 2.50311C801.885 2.64463 799.839 2.78462 797.91 2.78462C795.64 2.86775 793.292 2.97551 790.889 3.08584C782.858 3.4545 774.202 3.85186 765.748 3.45493C764.543 3.91757 763.264 4.43141 761.985 4.94539L761.972 4.95041L756.272 3.86744C755.385 3.80689 754.759 4.49308 754.233 5.06994C753.862 5.47548 753.542 5.82698 753.214 5.82698C751.139 5.31895 749.183 4.13379 747.514 2.37211C746.646 2.49772 745.559 2.4987 744.413 2.49974C741.323 2.50252 737.798 2.50571 736.944 4.95041C736.028 5.45141 734.838 4.85974 733.566 4.22661C733.004 3.94739 732.427 3.66011 731.848 3.45494C729.192 3.57844 726.499 3.71376 723.797 3.84955C720.857 3.99732 717.905 4.14567 714.974 4.28001C713.616 3.86751 712.407 3.45501 711.199 2.99087C710.641 3.04093 710.103 3.29136 709.639 3.71698C709.176 4.14261 708.801 4.72824 708.557 5.41448C705.129 3.84554 703.672 3.96649 702.348 4.07637C700.887 4.1976 699.588 4.30536 695.984 2.11424C695.553 2.32213 695.092 2.56497 694.623 2.81145C693.698 3.29853 692.747 3.79981 691.945 4.07377C691.34 2.37204 690.133 2.37211 688.471 2.37211C687.539 3.80763 686.969 5.61607 686.848 7.5287H686.66C683.821 3.92482 680.149 1.79051 676.278 1.49548C674.524 3.75212 672.268 5.14483 669.867 5.45306C667.468 5.76121 665.061 4.9674 663.028 3.19719H662.84L662.684 3.31266C661.388 4.26611 660.706 4.76911 660.197 6.70362L656.423 4.48635C654.965 5.00355 653.595 5.89604 652.383 7.11605L648.307 5.15659C647.129 5.02482 646.337 5.43183 645.502 5.86131C644.701 6.27218 643.862 6.70362 642.606 6.70362L640.379 4.74409C639.055 4.85589 637.766 5.36664 636.604 6.23956C635.35 6.13877 634.752 5.66582 634.081 5.13452C633.722 4.85037 633.342 4.54955 632.83 4.28002L628.563 6.44573C627.856 5.88213 627.722 6.01694 627.521 6.21767C627.335 6.40262 627.095 6.64354 626.299 6.44573C625.343 6.20848 624.625 5.86035 623.998 5.55586C622.441 4.80148 621.438 4.31493 618.748 6.44573C618.39 6.06221 617.883 5.84597 617.35 5.61876C616.593 5.29608 615.785 4.95128 615.275 4.07377C613.387 3.80412 611.48 4.25011 609.764 5.36284C608.583 4.91849 607.434 4.3318 606.329 3.60964L601.045 5.15659C599.31 4.12577 597.393 3.82076 595.532 4.28002C595.334 4.37707 595.225 4.55447 595.114 4.73799C594.93 5.04203 594.734 5.36284 594.099 5.36284C593.077 5.20791 591.821 5.04723 590.46 4.87312C587.743 4.52573 584.609 4.1249 582.094 3.60964C581.074 3.40338 572.544 5.36284 572.544 5.36284C569.965 3.55636 568.21 3.91221 566.219 4.31586C564.8 4.60354 563.26 4.9155 561.218 4.48635C558.476 3.67582 555.682 3.24396 552.877 3.1972C551.905 3.29036 550.925 3.5824 549.945 3.87466C548.754 4.22946 547.563 4.5846 546.383 4.5846C543.319 4.21032 540.232 4.41872 537.21 5.20349C536.414 5.42743 536.053 5.03604 535.75 4.70664C535.565 4.50511 535.401 4.32678 535.172 4.32678H534.152L533.586 5.30655C533.039 5.49339 531.262 5.28889 529.371 5.07145C527.086 4.80876 524.638 4.52719 523.998 4.89397C521.954 6.05962 516.731 4.39822 512.581 3.07788C509.754 2.17875 507.425 1.43779 506.936 1.85556C504.691 3.19326 502.244 3.77687 499.801 3.55735L500.404 5.10424C501.419 4.92273 502.447 4.92273 503.463 5.10424H503.877L504.066 6.85746C503.913 6.8537 503.746 6.85131 503.571 6.84879C501.341 6.81678 497.671 6.76407 499.386 3.60877L499.008 3.14471C497.299 2.92282 495.585 2.42672 493.875 1.93158C490.519 0.960237 487.175 -0.00740685 483.909 1.10607C482.251 0.442635 480.5 0.353924 478.813 0.848111C477.627 1.01956 476.271 0.789814 474.896 0.556737C472.548 0.158954 470.144 -0.248517 468.431 1.31217L467.638 0.229355C463.389 1.71701 458.993 2.29123 454.615 1.93108C453.836 1.88938 453.064 1.81396 452.295 1.7389C451.164 1.6283 450.038 1.5185 448.914 1.5185C446.604 2.46047 444.177 2.75867 441.78 2.39521C441.697 2.54187 441.621 2.68209 441.549 2.81567C441.169 3.52748 440.889 4.05077 439.967 4.35468L439.553 2.39521C438.198 3.01155 436.994 3.67956 435.79 4.34727L435.777 4.35468C435.399 3.5079 435.24 3.43361 434.555 3.11384C434.49 3.08311 434.419 3.05012 434.343 3.01397C433.75 3.23756 433.445 3.52172 433.128 3.81722C432.86 4.06691 432.583 4.32468 432.116 4.56086C432.116 4.46987 432.147 4.35632 432.18 4.23678C432.297 3.81435 432.434 3.31728 431.285 3.47804C430.428 3.59818 430.018 3.87581 429.587 4.16824C429.278 4.37779 428.958 4.59495 428.455 4.76719C428.487 5.48096 428.502 6.19596 428.496 6.91081C428.261 6.80195 428.033 6.66505 427.812 6.5006C427.293 6.67946 426.802 6.975 426.357 7.37272L426.416 6.9131C425.416 7.37244 424.395 7.73424 423.358 7.99593L423.304 8.20756C423.004 8.09439 422.707 7.96165 422.415 7.80947H421.999C422.679 7.55165 423.359 7.30671 424.037 7.06178C424.717 6.81683 425.397 6.57189 426.077 6.31407H426.491L426.265 3.89047C425.314 4.03482 425.284 3.99957 424.762 3.40769C424.725 3.36527 424.685 3.31999 424.641 3.27172C423.891 3.36352 423.125 3.61427 422.378 3.8582C420.609 4.43629 418.957 4.97611 417.922 3.27172L417.319 2.80765L417.13 5.02493C416.968 4.95861 416.78 4.88043 416.583 4.79855C415.862 4.49844 415.021 4.14836 414.902 4.14836H414.487L415.092 6.1079C416.072 6.52046 416.261 6.41727 416.903 5.43751L418.338 5.90157L419.772 8.89236L418.338 8.2736C418.043 8.48557 417.743 7.95571 417.438 7.41728C417.138 6.88855 416.833 6.35155 416.525 6.5006C416.407 8.55351 415.843 10.5111 414.902 12.1212H414.675C414.603 12.0435 414.539 11.9764 414.48 11.9155C414.111 11.5327 413.982 11.3984 413.657 10.4195C413.279 9.28508 413.846 8.15069 414.902 7.78975V7.37718L412.071 8.68618C411.708 8.95036 411.384 8.59682 411.106 8.29489C410.82 7.98462 410.584 7.72884 410.41 8.25381H409.806L408.184 8.68618C409.771 7.39037 411.634 6.86349 413.468 7.19072C413.342 6.74273 413.232 6.45594 413.143 6.22072C412.964 5.75196 412.864 5.48792 412.864 4.56086H412.676L410.41 5.02493C410.614 5.55165 410.601 5.63157 410.721 5.68978C410.8 5.72844 410.939 5.75752 411.241 5.90157L410.826 6.31407C410.059 5.97021 409.361 5.38773 408.787 4.61249H407.768L407.353 5.23125L408.598 6.5204V7.39704C408.22 7.66806 407.8 7.80969 407.372 7.80969C406.943 7.80969 406.523 7.66806 406.145 7.39704L406.117 7.48619C405.694 8.85746 404.865 11.5368 403.314 12.1926H400.444C399.742 12.6601 399.68 12.9451 399.618 13.2275C399.552 13.5369 399.486 13.843 398.578 14.3822H397.936V12.2164L398.821 12.1926C398.998 11.4682 398.871 11.3207 398.575 10.9781C398.428 10.8087 398.241 10.5915 398.028 10.2331C400.017 10.7628 400.634 9.78318 401.292 8.74103C401.658 8.16014 402.037 7.55983 402.672 7.19072C402.469 6.99922 402.267 6.88676 402.07 6.77722C401.788 6.62132 401.518 6.47136 401.275 6.1079C400.816 6.22622 400.396 6.53187 400.066 6.98446L399.651 6.1079C397.491 6.00709 395.328 5.56324 393.168 5.11991C389.82 4.43278 386.478 3.74687 383.156 4.34113C382.761 4.26668 382.371 4.15863 381.982 4.05093C381.294 3.86028 380.609 3.67074 379.911 3.67074C376.613 4.41708 373.244 4.41708 369.947 3.67074C370.356 3.46448 368.133 1.91753 367.493 1.91753C367.244 2.10004 367.022 2.34961 366.844 2.65103C366.675 2.95244 366.543 3.29933 366.471 3.67074C361.129 5.29285 355.626 5.65896 350.204 4.75356L348.765 2.79424H347.973L348.578 4.54745L348.391 5.16621C346.038 4.95202 344.025 4.91485 342.191 4.88098C337.843 4.80069 334.501 4.73901 330.044 2.38159H329.058V2.79424C329.251 2.89058 329.445 2.98693 329.64 3.08351C330.59 3.5556 331.554 4.03374 332.498 4.54745L332.906 5.16621C332.773 5.1875 332.631 5.1875 332.498 5.16621C330.774 4.44246 328.933 4.44246 327.209 5.16621C326.951 4.92726 326.738 4.60426 326.596 4.22624C326.453 3.84823 326.373 3.42705 326.382 3.00035C325.395 3.46441 325.395 4.1351 325.395 5.63027C321.627 5.21777 314.907 4.95988 310.302 4.95988L305.2 5.63027C302.702 5.13336 300.178 4.90912 297.653 4.95988C294.657 5.92653 291.565 6.15358 288.516 5.63027C288.053 5.8267 287.627 6.19496 287.307 6.69503C286.977 7.19509 286.755 7.80768 286.667 8.46631H286.48C285.971 7.89203 285.988 7.65889 286.03 7.04935C286.045 6.83787 286.062 6.58109 286.062 6.24903C283.547 5.70687 280.987 5.86471 278.516 6.7131C277.004 6.04435 275.414 5.81595 273.831 6.04271L269.342 6.50699C267.777 5.78016 266.124 5.48226 264.471 5.63028C264.271 5.70092 264.066 5.77309 263.859 5.84625C262.858 6.20025 261.791 6.57757 260.694 6.91943C258.424 7.04345 255.886 6.91056 253.202 6.76995C249.189 6.55982 244.848 6.33245 240.577 6.91943C239.771 7.02409 237.983 6.7038 236.345 6.41008C234.753 6.12499 233.303 5.86494 233.023 6.04271C232.82 6.17312 232.779 6.41123 232.738 6.65004C232.665 7.07219 232.592 7.49652 231.627 7.33186C230.314 7.1072 229.028 6.84352 227.717 6.57471L227.653 6.56172L227.137 6.45535C224.035 6.99774 220.898 7.08408 217.778 6.7131C213.796 7.11499 209.855 7.06171 206.055 7.01035C201.565 6.94967 197.275 6.89168 193.351 7.58981C192.764 7.68997 192.053 7.34022 191.353 6.99524C190.61 6.62979 189.878 6.26969 189.316 6.45536C186.605 6.97121 183.867 6.97121 181.155 6.45536C177.396 7.03926 173.618 7.33179 169.831 7.33186C164.649 6.17381 159.378 6.03497 154.169 6.91943C152.101 7.37091 149.888 7.05027 147.769 6.74345C146.017 6.4896 144.33 6.24522 142.844 6.45536C138.189 7.12684 133.202 7.19606 128.257 7.26469C122.568 7.34364 116.936 7.42181 111.929 8.41483C110.529 8.70862 108.693 8.49002 106.728 8.256C103.864 7.91495 100.725 7.5411 98.2578 8.67264L98.6756 7.33186L95.4311 8.41483L95.0133 7.58981C93.4489 7.58846 91.9111 8.10143 90.5244 9.08522C89.5377 8.47571 88.5866 7.75104 87.6889 6.91943C85.7689 7.80954 83.6556 7.55811 81.5687 7.30981C78.9407 6.99714 76.3545 6.68937 74.2488 8.67257Z" fill="#294F4A"/>
</g>
<defs>
<clipPath id="clip0_1_1398">
<rect width="1280" height="392" fill="white"/>
</clipPath>
</defs>
</svg>
