<svg width="76" height="69" viewBox="0 0 76 69" fill="none" xmlns="http://www.w3.org/2000/svg">
<g clip-path="url(#clip0_1_307)">
<path d="M28.1248 32.8201L28.3023 32.8934C28.2283 32.8201 28.1692 32.8054 28.1248 32.8201Z" fill="#BFE03E"/>
<path d="M47.644 34.214C47.644 34.214 47.6588 34.2433 47.6736 34.258C47.7327 34.1406 47.8066 33.9645 47.9397 33.6858L47.6292 34.214H47.644Z" fill="#BFE03E"/>
<path d="M40.4722 10.6956L40.28 10.7396C40.3687 10.7396 40.4278 10.7396 40.4722 10.6956Z" fill="#BFE03E"/>
<path d="M27.0603 21.259C27.0011 21.1856 27.0011 21.0829 27.0011 20.9802C26.9568 21.0829 26.942 21.1856 27.0603 21.259Z" fill="#BFE03E"/>
<path d="M52.1392 28.7708C52.08 28.9468 52.0209 29.0935 51.9617 29.2402C52.08 29.1962 52.1687 29.0495 52.1392 28.7708Z" fill="#BFE03E"/>
<path d="M40.6345 23.6797C40.6345 23.6797 40.6636 23.709 40.6928 23.7237C40.6928 23.6944 40.6782 23.6797 40.6345 23.6797Z" fill="#BFE03E"/>
<path d="M45.2927 24.8242C45.3962 24.8242 45.4997 24.8242 45.6328 24.8242C45.4997 24.7801 45.3518 24.7215 45.2927 24.8242Z" fill="#BFE03E"/>
<path d="M45.7953 24.8096H45.6326C45.7213 24.8389 45.7805 24.8536 45.7953 24.8096Z" fill="#BFE03E"/>
<path d="M3.40108 42.5913C3.26799 42.3419 2.95747 42.2392 2.67651 42.1072L3.40108 42.5913Z" fill="#BFE03E"/>
<path d="M63.0372 23.1809H62.9041C62.9041 23.1809 63.0076 23.1956 63.0372 23.1809Z" fill="#BFE03E"/>
<path d="M1.12306 43.5449L1.0647 43.325C1.0647 43.413 1.09388 43.4862 1.12306 43.5449Z" fill="#BFE03E"/>
<path d="M52.0946 36.3413C52.1537 36.8255 51.4735 37.427 51.6953 37.5444C51.8728 37.1482 52.3459 36.6788 52.0946 36.3413Z" fill="#BFE03E"/>
<path d="M74.8372 27.8025L74.8664 28.0519C74.8664 27.9345 74.8518 27.8612 74.8372 27.8025Z" fill="#BFE03E"/>
<path d="M1.12378 43.5449L1.19772 43.7943C1.19772 43.7943 1.25686 43.7063 1.27165 43.6623C1.2125 43.6329 1.15335 43.6036 1.12378 43.5449Z" fill="#BFE03E"/>
<path d="M54.8005 51.2036L55.0075 50.9248C54.8448 51.0128 54.8153 51.1155 54.8005 51.2036Z" fill="#BFE03E"/>
<path d="M2.67614 42.1218L2.24731 41.843C2.36561 41.9751 2.51348 42.0484 2.67614 42.1218Z" fill="#BFE03E"/>
<path d="M38.8602 58.2606C38.8602 58.2606 38.9637 58.2312 39.0228 58.2019C38.9489 58.2019 38.9045 58.2312 38.8602 58.2606Z" fill="#BFE03E"/>
<path d="M26.587 22.3301C26.587 22.3301 26.5278 22.4034 26.4982 22.4475C26.5574 22.4768 26.6017 22.4768 26.587 22.3301Z" fill="#BFE03E"/>
<path d="M27.9476 7.80522C28.1989 7.68785 28.3912 7.29172 28.4355 6.99829C28.2137 7.17435 28.0363 7.37975 27.9476 7.80522Z" fill="#BFE03E"/>
<path d="M30.0915 6.01538L29.988 6.04472C29.988 6.04472 30.0619 6.04472 30.0915 6.01538Z" fill="#BFE03E"/>
<path d="M20.3914 16.4468C20.4653 16.4175 20.5393 16.3441 20.6132 16.2708C20.5393 16.3001 20.4653 16.3588 20.3914 16.4468Z" fill="#BFE03E"/>
<path d="M38.032 1.98071V1.99538H38.0466L38.032 1.98071Z" fill="#BFE03E"/>
<path d="M69.4253 11.7666C68.2423 10.3582 66.7192 8.93505 65.0926 7.70264C63.4661 6.47024 61.7803 5.38455 60.3164 4.44557C59.3701 4.56294 58.4533 4.0201 57.4034 3.69733L57.6252 2.97842L56.6936 2.81704C56.4422 2.45025 57.3885 2.97842 56.9006 2.45025L56.3979 2.72901C56.457 2.42091 54.2537 1.73135 55.9099 1.76069C54.7861 1.33522 53.6475 0.909744 52.4793 0.616314C51.7104 0.381571 51.873 1.10047 51.0745 0.689672C50.9562 0.425585 51.4146 0.630986 51.4146 0.352228C48.886 -0.748134 48.1615 1.17383 45.8399 0.630986L46.0469 0.542957C45.6329 0.689672 44.8492 0.660329 44.8344 0.763029C45.1152 1.52595 45.2928 0.337556 45.9878 0.851058C45.8842 1.46726 45.0709 1.12982 45.0857 1.62865C44.5386 1.3939 44.2133 1.74602 43.7401 1.79003C42.9268 1.34989 41.7587 1.76069 41.0932 1.30587C40.7088 1.54062 40.3391 2.17149 39.4962 2.36222C38.8012 1.98076 39.5702 1.86339 38.6977 1.83405L38.6386 2.21551C37.9436 2.28886 38.0323 2.15682 38.0175 1.99543C37.2782 2.11281 37.5296 2.62631 36.5684 2.64098L36.9824 2.15682C36.3466 2.47959 36.0508 2.49426 35.1045 2.74368C35.0601 2.53828 35.4446 2.43558 35.7403 2.42091C35.0601 2.03945 34.9417 2.89039 34.6609 2.94908C34.7938 3.05178 35.4445 2.91974 35.2523 3.35988C34.7792 3.46258 34.4982 4.19616 34.025 3.90273L34.3799 3.37455C33.5518 4.00543 34.0546 3.99076 32.9604 4.28419C33.0047 4.24017 32.9456 4.16681 32.9308 4.07879C32.4724 4.79769 31.4816 4.87105 30.5057 5.34053L30.6388 5.16448C30.3135 5.47258 30.2987 5.89805 30.0917 6.00075C30.7127 5.85404 30.624 6.03009 30.8606 6.30885C29.8846 6.25017 30.2395 7.51191 29.0566 7.9814C28.9383 7.80534 29.027 7.40921 29.441 7.37987C29.441 6.63162 29.1749 6.16214 29.6924 5.47258C29.3375 5.86871 28.9087 6.27951 28.8495 5.98608L29.0566 6.5436C28.8052 6.71965 28.613 6.8517 28.4355 6.98374C28.5686 7.35053 29.2636 7.10111 28.8791 7.70264C28.4059 8.31885 28.1841 7.48257 28.2581 7.76133C27.5779 8.5976 28.3172 8.4949 27.4448 9.02308C27.4891 8.92038 27.5631 8.71498 27.6666 8.7003C26.9716 9.0084 26.454 9.96205 25.8182 9.63928C25.7738 9.44855 25.6408 9.28716 25.8773 9.12578L25.9513 9.21381C26.1583 8.27483 25.5816 9.80067 25.3006 9.18446C25.6112 9.40454 24.8275 10.0941 24.4726 10.4169L24.9014 10.5783C24.931 12.5882 24.2951 9.96205 23.4523 11.2825C23.0678 12.2361 23.7776 11.0624 23.6445 11.7226C23.1861 12.2068 22.7425 12.2068 22.3432 13.1164C22.0327 13.2485 21.5743 13.6153 21.1307 13.4099C20.9828 14.0261 20.0217 14.9357 20.3026 15.4639C21.1159 14.7156 20.3174 14.2901 21.4708 13.5419L21.7074 14.0701C21.249 14.7596 21.0124 15.816 20.6131 16.2561C20.7462 16.1828 20.8793 16.1974 20.9385 16.3001C20.6132 17.4298 20.9533 17.8993 20.4505 18.897C19.9921 18.897 20.2583 18.2955 20.4209 17.8406C19.8294 18.3982 20.1252 18.5449 19.652 19.5865C19.2675 19.5425 19.9034 18.853 19.5781 18.6182L19.3267 19.88C19.3267 19.88 19.2823 19.88 19.2527 19.8653C19.7999 20.1881 18.9718 20.7896 18.9866 21.6112C18.676 23.4451 19.4893 23.8266 19.9625 24.8243C19.7851 25.0737 19.6224 25.1617 19.4598 25.0297C19.7555 24.6042 19.5337 24.6776 19.371 24.5015C19.4154 25.103 18.7056 25.8366 18.4542 25.4845C18.6169 26.4968 18.7943 25.1324 18.9718 25.7339C18.9718 26.1887 18.9718 26.6435 18.9866 27.0983C19.2971 26.9076 19.3415 26.4528 19.6224 27.113C19.7259 27.6852 19.7259 27.964 19.8146 28.7122C19.6372 28.6242 19.371 29.035 19.2971 28.4481C19.238 28.8296 19.2971 29.4311 19.652 29.5778C19.7555 28.7122 20.2435 30.8542 20.5836 30.1353L20.4949 31.001C20.4505 30.8249 20.2435 30.8542 20.2287 30.5608C19.8146 30.9129 20.5096 31.1917 20.6723 31.4411C20.6723 31.7492 20.9089 32.4828 20.761 32.6148C20.968 32.8202 21.1455 33.4511 20.9828 33.6712C21.249 33.9939 21.2934 33.5685 21.4856 33.5978C21.6778 33.9939 21.8553 34.4194 22.0623 34.8009C21.87 34.9916 21.2786 35.4758 21.0715 35.3437C21.5743 35.6665 21.8553 35.0943 22.2545 35.7692C21.5595 35.6665 22.4911 36.8696 21.6039 36.6642C21.5152 37.295 22.4024 38.3367 22.9791 38.8062C23.5853 38.8796 22.639 38.0433 23.0087 37.8085C23.6889 38.5568 24.3543 38.6595 24.8423 38.7915C25.345 38.9236 25.7886 38.9823 26.247 39.5104L26.0548 39.1877C26.8681 39.5544 26.7498 39.5398 27.3561 39.5691C26.8385 39.8185 27.2673 41.3003 28.5982 41.9752C28.8348 41.8138 28.1693 41.139 28.5982 40.9042L29.441 41.3003C29.441 41.3003 29.3523 41.403 29.2044 41.3884C30.0029 41.6525 30.2691 42.7382 30.7719 42.2833L31.2598 43.3544L31.0676 42.9142C31.2746 42.7528 32.1914 43.0169 32.4132 42.9729C33.4188 43.0316 33.6701 43.325 34.1285 43.7652C34.0102 43.5157 33.7441 42.9436 34.4834 43.0316C34.3799 43.4424 34.7496 43.6184 35.1341 43.7358C35.5333 43.8238 35.9326 43.8532 35.8882 44.0733C36.1987 44.1026 36.7458 44.44 36.805 44.0879L36.7015 44.6161C36.8345 43.9265 37.9879 43.9559 38.8456 43.8385C38.6977 44.8655 39.792 43.6771 40.2947 44.5427C40.3834 43.8972 41.8474 43.9852 41.877 43.3837C42.5276 43.2076 42.6459 43.8238 42.8825 43.9706L43.1191 43.6184C43.5627 43.8092 44.8492 43.413 45.7068 43.1783C45.8399 42.8702 45.9582 42.5768 46.0617 42.2687L46.4462 42.3567C46.4757 42.166 46.9193 41.7405 46.4905 41.7698L46.8306 41.5791C46.4757 41.0216 47.1855 41.1243 47.5848 40.4054C47.7918 40.376 47.8657 40.5228 47.7918 40.6988C48.0875 40.4494 48.191 40.8162 48.5016 40.8309C48.2058 40.8749 48.679 39.0116 47.7326 39.5104C47.496 39.349 47.777 38.8502 48.0875 38.6595L48.679 38.8942L48.4868 38.1606C48.7529 37.6912 49.1966 37.7205 49.5219 37.3831C49.2853 37.7645 49.8176 38.9382 50.557 37.8672C50.2464 38.4834 50.276 38.9382 50.1577 39.3197C50.3499 39.1143 50.483 39.0263 50.4091 39.5398C50.9118 38.5568 50.3499 39.0409 50.8971 38.146C51.2963 38.4834 51.6364 38.3514 52.2723 37.5885C52.0504 37.7498 51.799 37.8819 51.5625 38.0139C51.5181 37.9552 51.5033 37.8819 51.5181 37.8232C51.3259 38.0139 51.2076 38.0433 51.0154 37.9699C51.1483 37.7939 51.0745 36.6201 51.4146 36.6055C50.8083 36.8696 50.8823 36.4001 50.9858 35.9306C51.0745 35.4318 51.1928 34.9329 50.8379 35.1383C50.7492 34.9916 50.9266 34.3607 51.2076 34.3607C51.3406 35.285 51.9765 33.9353 52.3018 34.1553C52.2426 33.8179 51.7251 34.6982 51.6512 34.2287C51.7695 33.7445 52.1392 33.4364 52.3758 33.187L52.4349 33.4218C52.568 33.1723 52.701 32.9083 52.8046 32.6295C52.5532 32.4681 52.2723 33.3631 52.2131 32.6002C52.3461 32.4094 52.287 31.6612 52.4793 31.6905C52.8342 32.072 53.3369 31.8226 53.3665 32.5268C53.4552 31.9399 53.2926 30.062 52.8194 30.8542C52.8194 30.6342 52.8046 30.3994 52.775 30.1794C52.6272 30.6488 52.2279 31.7492 52.1096 30.5021H52.2131L51.6956 29.6952C51.7695 29.5485 51.8286 29.4164 51.8878 29.2697C51.7547 29.2991 51.6068 29.211 51.5329 28.8883C51.666 28.7562 51.6364 28.4188 51.8434 28.3748C51.4442 27.4358 51.2224 27.6412 51.0301 27.5972C50.764 27.1424 50.7196 26.9223 51.1337 26.981C50.8231 26.2621 49.9211 25.2644 49.6697 24.7216C48.7381 24.2227 49.7437 24.9416 49.0635 24.8243C49.0487 24.1934 48.398 23.5772 47.5404 23.2104C46.6975 22.7996 45.6623 22.6676 44.8787 22.5502C45.1301 23.4305 44.4202 22.5502 44.0359 23.2544C44.4351 23.0343 42.6162 22.4622 44.0359 22.3888C43.7549 22.3741 43.4592 22.3888 43.1634 22.4035C42.8677 22.1687 43.2374 22.0954 43.5775 22.0073C43.9176 21.934 44.2281 21.8606 43.7845 21.4938C42.6754 21.4645 42.0692 22.3301 40.8123 22.3154C41.0932 21.6552 39.9103 22.7409 40.0286 22.066C40.2356 21.7873 40.6201 21.7579 40.9897 21.6259L40.7236 21.5672C39.4519 21.7726 39.3188 22.1247 39.3927 22.3301C39.4667 22.5649 39.6737 22.7996 39.1857 23.2251C37.9732 24.0173 37.9436 23.4745 37.6922 23.2984C37.4113 23.3424 36.8493 24.0027 36.6719 24.3988C36.8937 23.9293 37.3077 23.6652 37.6183 23.6359C37.9436 23.5919 38.1802 23.7826 38.121 24.032C37.6774 23.988 37.219 24.3695 36.9529 24.8243C36.7163 25.3084 36.6275 25.8219 36.6275 26.0273C37.4852 25.3965 37.6774 25.1911 37.9288 24.9857C38.1654 24.7949 38.402 24.5308 39.3188 24.4135C39.3927 24.12 39.0822 23.5772 40.1764 23.4011C39.6737 23.9293 40.3391 23.6799 40.5313 23.7239C40.2356 23.4451 41.1524 23.4158 41.4333 23.2104C41.729 23.4451 41.0489 24.0467 41.9509 24.076L42.0396 23.2691C42.424 23.3571 41.9361 23.8413 42.705 23.6212C42.3206 24.032 42.8232 24.2374 41.8917 24.4575C43.0303 24.9857 43.5774 24.0467 44.6273 23.9293C44.5238 23.9586 44.4943 24.0467 44.3908 24.0907C44.6273 23.9146 44.9822 24.032 45.2632 24.0613C45.7955 24.3841 44.6865 24.2814 44.8048 24.5308C45.1153 24.6042 45.4258 24.6776 45.7068 24.7949C45.7068 24.8243 45.7068 24.8389 45.7068 24.8536C45.973 24.8536 46.2391 24.8536 46.2244 25.0884C45.8695 25.2057 45.6623 25.4258 45.4258 25.5578C45.7807 25.4845 46.1356 25.4405 46.5053 25.4405C46.2983 25.6312 46.9489 26.1887 46.2983 26.0567C46.7123 26.2181 47.082 26.4528 47.4517 26.6875L47.1855 27.1717C47.4664 27.2891 47.5551 27.2304 47.3186 26.937C47.4369 27.1277 47.9544 27.2597 48.3093 27.5238C48.6938 27.7586 48.8269 28.0667 48.3241 28.2427C49.2261 28.8589 49.1964 29.2991 49.6697 30.4728C49.0487 29.6218 49.1818 31.5878 48.8269 30.6488C48.6642 31.1917 49.2113 31.2797 49.3001 31.7492C49.0191 32.16 48.5459 31.8959 48.3537 31.5145C48.4424 31.6759 48.5016 31.8372 48.5607 32.0133H48.4572C48.5459 32.1453 48.6346 32.2921 48.7086 32.4534C48.3241 32.8642 48.1615 32.4534 47.9988 32.8936L48.4424 33.099L48.0727 33.3337C48.3092 33.275 48.3389 33.5831 48.2502 33.9206L48.1467 33.8766L48.0579 34.302C47.9544 33.8032 47.8066 34.6248 47.5848 34.302C47.4072 34.6101 47.4221 34.6248 47.1707 35.2264L47.5108 35.2997C47.2742 36.1947 47.082 35.0796 46.6827 35.6372L47.0229 35.8132C45.9434 36.2387 46.18 37.3831 45.3223 37.6325C45.5885 37.2804 45.204 37.0309 45.2632 37.119C44.8935 37.6471 44.0359 38.2047 43.6662 38.8942C43.193 38.5568 43.0599 38.4247 42.3945 38.4834C41.9657 38.6741 41.9213 38.7328 41.877 39.085C41.389 39.085 40.6053 39.5544 40.487 39.173C40.4426 39.4958 40.0729 39.217 39.8659 39.5104L39.792 39.349L39.8807 39.7158C39.3927 39.3344 39.0822 39.4958 38.7273 39.6571C38.3872 39.8039 38.0027 39.9212 37.5887 39.5544L37.7366 39.4517L37.3669 39.5985C37.3225 39.4371 37.4704 39.3344 37.5 39.129C36.9676 39.0556 36.4352 38.9676 35.903 38.8502C35.9916 38.9676 36.0804 39.085 36.1691 39.1877C35.829 39.1877 35.5185 39.4517 35.1636 39.1436C35.9473 38.7475 34.6165 39.0116 34.6461 38.5421C34.7644 38.5421 34.8974 38.5128 35.0158 38.4981C34.5425 38.4247 34.5574 38.3807 34.4834 38.7622C33.8328 38.6742 34.306 37.9552 33.6258 38.146L34.0102 38.2927C34.0546 38.5421 33.6701 38.7328 33.3892 38.6301C33.3448 38.5568 33.2265 38.3074 33.4483 38.366C32.9308 38.278 32.3245 37.8085 32.0583 37.8379C31.8809 37.6031 32.0879 37.4124 32.2506 37.3977C31.1859 37.1483 31.8661 37.1336 30.8014 36.8255L30.9345 36.6642H30.4909L30.3283 36.0039V36.3267C30.0029 36.1653 29.7516 36.1213 29.515 35.7692L29.8403 35.6372C28.9678 35.153 29.3819 34.5221 28.4355 34.1847C28.4355 34.0966 28.613 34.1407 28.7017 34.1553C27.7553 33.8619 28.746 33.3337 27.7405 33.0696C27.8588 33.0403 27.9032 32.8936 28.0067 32.8642C27.8736 32.8202 27.7553 32.7469 27.637 32.6882L28.0067 32.4681L27.3265 32.5708L27.5779 32.1453H27.3265C27.7997 31.4118 27.0603 31.221 27.3856 30.5168L26.9272 30.8102C26.1583 30.4434 26.0104 29.6512 26.0696 28.8002C26.0696 28.3894 26.1435 27.9493 26.1583 27.5532C26.1583 27.1424 26.1583 26.7462 26.0104 26.3354H26.4393C26.2618 26.13 26.0548 25.9246 25.9217 25.6899C26.2766 25.3378 26.2766 25.91 26.4984 25.7926C26.2914 25.0884 25.8773 25.4992 25.7886 24.6335C26.1139 24.2227 26.0844 24.8096 26.247 25.015C26.0548 24.2374 26.04 23.005 26.4097 22.4915C26.3505 22.4622 26.2914 22.4181 26.2618 22.4328C26.1731 21.846 26.6019 21.2151 26.7646 20.6282C26.942 20.7163 26.9124 20.8483 26.9124 21.0097C27.0012 20.819 27.2525 20.5989 27.1195 20.3495L27.3856 20.6869C27.6074 20.2908 27.637 19.3518 28.0954 19.4545C27.918 19.4398 27.637 19.2784 27.8292 18.9263C28.4799 19.0144 28.1102 17.8406 28.7313 17.4592C28.82 17.6059 28.6277 18.0314 28.7017 17.914C28.9974 17.7233 28.8939 17.3271 28.8939 16.9897L29.0714 17.2098C29.2488 16.7403 29.4262 16.2414 29.6628 15.7866C29.9882 15.904 30.1804 15.6106 30.343 15.3465C30.5205 15.0971 30.6536 14.8477 30.8014 15.0384C31.1859 14.6716 30.2839 15.1704 30.6831 14.6276C31.0085 14.6863 31.0085 14.0847 31.2894 14.4075V14.4955L31.5999 14.1581L31.6739 14.6569C31.8957 14.3342 31.8365 13.8353 31.6295 13.5712C32.0583 13.4685 32.3689 12.999 32.7533 13.1898L32.709 13.3512C33.0639 12.955 33.5962 12.9257 34.0398 12.8963C34.4834 12.8523 34.8531 12.7936 35.0453 12.3095C35.134 12.3388 35.1784 12.4269 35.0453 12.4855L35.6072 12.2215V12.5736C35.8586 12.2801 36.0656 11.9427 36.3318 11.6786L36.4057 11.8693C37.0858 11.6933 38.0322 11.1798 38.9048 10.9157L38.8012 11.0477C39.6589 10.4462 39.7624 11.0184 40.4278 10.6516C40.413 10.7103 40.3982 10.7396 40.3687 10.7543L41.0045 10.6223L40.901 10.857C41.315 10.2848 42.3354 11.3265 41.9952 10.945C42.2466 10.725 42.705 10.4315 42.7642 10.1675C43.4887 10.0941 42.9564 10.4315 43.4 10.6076C43.9176 10.6369 44.021 10.2702 44.7309 10.4609L44.7013 10.6663C45.0266 10.6369 45.2484 10.5196 45.7216 10.5342L45.5737 10.6223C46.387 10.2702 46.4314 11.2972 47.1559 10.5049C47.4517 10.7396 48.0727 10.7103 47.9544 11.1211C48.9452 11.0331 49.6992 11.1211 50.6753 11.2531C50.5865 11.972 50.8823 11.2825 51.2963 11.8547L51.385 11.4879C52.7307 11.8987 53.677 13.4392 54.9783 14.0261L54.8156 14.3635C54.9783 14.2901 55.1262 14.2315 55.274 14.1728C56.4866 15.1704 57.8913 16.5349 58.6603 17.4152C59.1039 17.5325 59.7989 17.7233 60.0946 18.2955H60.0059C60.4495 18.6182 60.8488 19.0437 61.2036 19.5279C61.5881 19.9827 61.8691 20.5255 62.0465 21.1271C61.8691 21.1271 61.8246 21.2884 61.6768 21.2151C62.1796 21.2738 62.0465 21.8313 62.1352 22.066C62.1796 21.934 62.224 21.8019 62.2535 21.6699C62.7415 21.8166 62.6083 22.4475 62.431 22.7116L63.0225 23.0637C63.0225 23.0637 62.9781 23.1811 62.9189 23.2104H63.1408L62.7859 23.6799C62.9188 23.7679 63.2738 24.4281 63.8062 24.5015C63.6731 24.6042 63.7174 25.1324 63.4956 24.7803C63.6879 25.4258 63.747 26.13 63.8801 26.8049L63.9688 26.4528C64.3237 26.3354 64.7378 26.8929 64.5899 27.2597C64.2201 26.8929 64.0575 27.3331 63.821 27.5532C64.0575 27.7879 64.1166 27.2597 64.3385 27.3624C64.6341 27.6705 64.9004 28.4188 64.7524 28.6242L64.5602 28.4335C64.7969 28.9029 64.1315 29.1964 64.2054 29.6659C64.5455 30.062 64.2941 30.3994 64.93 30.2674C65.1222 30.8836 64.516 30.5315 64.4715 30.7369C64.7821 31.0156 64.5899 31.8959 64.2646 32.0133C65.2553 32.3801 63.8504 33.6565 64.6489 33.8326L64.1758 34.302C64.3829 34.3314 64.8708 34.4781 64.8856 34.9182C64.6047 35.285 64.2498 35.1383 64.0132 35.2264L64.7673 35.5931C63.6287 37.7058 63.3478 40.7428 61.6325 42.6648C61.4994 43.193 61.3219 43.7945 61.1001 44.3814C60.8931 44.9976 60.5826 45.5697 60.1833 46.0686V45.8925C59.8727 46.2006 59.6214 46.5087 59.2813 46.7875C59.5771 46.6261 59.8432 46.45 60.1094 46.2593C60.0355 46.5381 60.0503 46.8168 59.858 47.0222C58.7194 47.9612 57.2555 49.0909 56.2204 50.5287C55.9986 51.9812 55.1262 50.4113 54.7269 51.6144C54.7417 51.497 54.6825 51.365 54.6973 51.2476C54.0023 52.2306 53.5587 52.6854 52.8785 53.8151C52.4941 52.9935 52.2279 54.2406 52.0652 53.7858L52.1835 54.1526C51.8434 54.1086 51.2667 54.3726 51.2076 54.0939L50.971 54.7394L50.7492 54.4313C50.4387 54.578 49.995 54.9008 49.5367 55.1356C49.0634 55.3263 48.5903 55.429 48.265 55.1502C46.9489 56.3973 44.2725 57.1749 42.1135 57.5123C41.877 57.8645 41.2559 58.0258 40.7679 58.1432L40.1617 57.8058C39.6884 58.0112 39.2301 58.642 38.7273 58.422C38.7273 58.3633 38.7273 58.3339 38.7717 58.3046C38.2689 58.4807 37.7661 58.2606 37.3077 58.7154C36.7311 58.7301 36.1839 58.5393 36.3318 58.1139C36.317 58.8621 35.1488 58.0258 35.1488 58.0258C35.1488 58.0258 34.7052 58.0258 33.9215 57.9525C33.537 57.9231 33.0491 57.8791 32.502 57.8204C31.9548 57.7471 31.3338 57.6444 30.6388 57.5564C27.9032 57.1309 24.2508 56.1039 20.5984 54.446C16.946 52.7881 13.3379 50.4847 10.4248 48.1813C7.4674 45.9072 5.14583 43.6771 3.29745 42.6355C2.85383 42.6208 2.29193 42.1366 2.05533 42.5768C1.65608 42.1806 2.08491 41.6378 1.71523 41.7405C1.89267 42.5034 0.754072 42.0046 0.739285 42.8555L0.41397 42.4887C0.133016 42.5327 1.02024 42.9142 0.532266 43.0463L1.19768 42.8262C1.30119 43.2076 1.28641 43.4717 1.16811 43.7065C1.59693 43.8825 2.46937 43.6038 2.63203 44.5281L2.45458 44.352C2.88341 44.9095 2.33629 44.9535 2.3215 45.1296L2.23278 44.9976L2.29193 45.6871C2.21799 45.1883 1.31598 44.8655 1.58215 45.1736C1.92225 45.9952 1.58215 44.8949 2.02576 45.379C2.27714 45.6871 1.92225 45.8045 1.73002 45.9072L2.17363 46.4941C1.89267 46.6554 1.90746 46.0832 1.80395 46.5234C2.07012 46.7141 2.33629 46.9049 2.61724 47.0809C2.08491 47.6971 3.54883 47.6238 3.20872 48.4307C2.64681 48.0199 3.03128 48.6508 2.76511 48.7241C3.12 49.1496 3.47489 49.5751 3.85935 49.9565C3.87414 50.1473 3.37138 49.7951 3.5784 49.9565C3.62276 50.338 4.06637 50.2059 4.18467 50.338C4.11073 50.5874 5.01275 51.2476 4.59871 51.5851C5.14583 52.6414 5.42678 51.453 5.95912 52.4067C5.82603 52.7294 5.30849 51.8785 5.39721 52.436L6.26965 53.1256C6.0922 53.1696 5.7521 53.3603 5.50072 53.0082C7.33431 55.3556 7.60048 57.7764 10.2178 59.0528C10.3361 59.5957 9.83333 59.0969 9.44886 59.1555C11.4452 59.9185 11.4452 61.4736 13.0422 62.3686L13.2196 62.1045C14.9645 64.1879 18.0254 64.9508 20.5984 66.2565L20.347 65.9338C20.8202 65.7871 21.4412 65.9338 21.9292 65.9338C21.944 66.1098 21.3969 66.4766 22.2397 66.594C22.1066 66.4326 21.8109 66.2125 21.9588 66.0952C23.0087 66.8727 24.8423 67.5183 26.942 68.0024C27.9919 68.2519 29.1009 68.4719 30.21 68.604C31.319 68.7947 32.428 68.9121 33.4631 69.0441C36.2873 69.0001 39.2153 68.8974 42.1135 68.5013C45.0118 68.1052 47.8657 67.4009 50.4387 66.3299C49.6549 66.6673 49.7141 65.8017 50.3647 65.7284C52.5089 66.3446 53.0412 64.3786 55.0227 64.3786C57.6548 62.53 60.8044 61.7964 62.4753 58.9942L62.7711 59.2436C63.2443 59.0822 63.1554 58.8034 63.4809 58.4366L63.54 58.5247C64.4715 57.8498 65.1962 56.6174 65.7433 56.2359L65.4622 55.9131C65.8911 55.3996 65.9503 55.8691 66.2312 55.2089L66.3791 55.3556C66.453 55.0622 66.5418 54.7834 66.6009 54.49C67.1333 55.0182 67.8283 53.0375 68.4197 52.8028C68.8042 51.9812 69.5139 50.4554 70.2533 49.3403C70.7264 49.311 71.5102 47.8732 72.1017 46.9782C72.9002 45.0856 73.7431 42.3127 74.4085 39.8185L73.9204 39.7598L74.0239 39.0996C74.1274 39.129 74.2014 39.0556 74.231 39.1583C74.8964 38.7622 74.3789 37.6178 74.7634 37.1336C74.2754 37.3977 74.6302 37.5885 74.5712 37.9699C74.2606 38.4687 73.891 37.8819 74.2163 37.1923L74.3198 37.2217L74.1423 36.6935C74.5267 36.6935 74.7634 36.2534 75.1478 36.2387C75.3252 34.0086 74.7041 32.4975 74.8372 30.238C75.2809 30.4581 74.6007 28.6095 75.3697 29.0203C74.9704 27.6705 74.7929 29.2991 74.231 28.7122C74.2162 28.3308 73.9796 27.964 74.231 27.8613C74.4232 28.0227 74.6451 27.5092 74.7337 27.8026C74.7041 27.4945 74.6154 27.201 74.5564 26.9076C74.6006 26.8196 74.7338 26.9956 74.793 27.0983C74.1128 25.3231 74.6599 23.7092 73.8022 22.1541C73.5213 22.11 73.9056 22.8289 73.6247 22.7703C72.6339 21.3031 73.6247 21.1857 72.7671 19.7919L73.2254 19.9827C72.8262 19.5719 72.4121 19.4985 72.3679 18.6036C72.708 18.2955 72.9888 19.1317 73.3289 19.4545C73.1071 18.897 72.4121 17.5619 72.2347 18.1341C71.8207 17.5472 72.0721 17.1511 71.9982 16.7549C71.8947 16.799 72.0574 17.4739 71.6729 17.1804C71.4214 16.2268 70.7709 14.877 70.1055 13.894C70.1942 13.85 70.2977 13.6886 70.3864 13.7473C69.3661 13.2631 70.2829 12.7936 69.3512 11.7666H69.4253Z" fill="#BFE03E"/>
<path d="M19.031 20.3054C19.0753 20.1587 19.1493 20.0119 19.2232 19.8652C19.1345 19.8359 19.031 19.7919 18.9866 19.5571C18.9866 19.8065 18.9866 20.056 19.031 20.3054Z" fill="#BFE03E"/>
<path d="M32.9308 4.09327C32.9308 4.09327 33.0048 3.99057 33.0343 3.93188C32.9308 3.99057 32.916 4.04926 32.9308 4.09327Z" fill="#BFE03E"/>
<path d="M37.8251 1.7019C37.4702 1.86329 37.8251 1.90731 38.0321 1.98066C38.0321 1.89263 37.9878 1.78993 37.8251 1.7019Z" fill="#BFE03E"/>
<path d="M20.8051 32.644C20.8051 32.644 20.672 32.556 20.5833 32.6C20.7016 32.6733 20.7607 32.6733 20.8051 32.644Z" fill="#BFE03E"/>
<path d="M49.7877 39.7744C49.7877 39.7744 49.699 39.8184 49.6398 39.8478C49.6842 39.8478 49.7286 39.8184 49.7877 39.7744Z" fill="#BFE03E"/>
<path d="M47.8954 40.6987C47.8214 40.7574 47.7327 40.8454 47.6292 41.0068C47.7771 40.9188 47.851 40.8014 47.8954 40.6987Z" fill="#BFE03E"/>
<path d="M19.3709 24.516C19.3709 24.3839 19.3414 24.2665 19.2526 24.1492C19.2526 24.3399 19.3118 24.4426 19.3709 24.516Z" fill="#BFE03E"/>
<path d="M47.3626 41.3296L46.9338 41.579L46.9781 41.6524L47.3774 41.3296H47.3626Z" fill="#BFE03E"/>
<path d="M50.261 39.3196C50.1131 39.4663 49.9357 39.6717 49.7878 39.7744C50.0392 39.657 50.187 39.5103 50.261 39.3196Z" fill="#BFE03E"/>
<path d="M29.2781 41.4175C29.2781 41.4175 29.2486 41.4175 29.2338 41.4029C28.8197 41.3735 29.0563 41.4322 29.2781 41.4175Z" fill="#BFE03E"/>
<path d="M45.884 43.1636L45.8101 43.1782L45.7214 43.3543L45.884 43.1636Z" fill="#BFE03E"/>
<path d="M51.6952 37.5591C51.6509 37.6471 51.6213 37.7351 51.6213 37.8232L51.8283 37.5884C51.8283 37.5884 51.7248 37.5738 51.6952 37.5591Z" fill="#BFE03E"/>
<path d="M35.7402 44.3959C35.9029 44.2638 35.962 44.1611 35.9768 44.0731C35.8141 44.0584 35.7106 44.1171 35.7402 44.3959Z" fill="#BFE03E"/>
</g>
<defs>
<clipPath id="clip0_1_307">
<rect width="75" height="69" fill="white" transform="translate(0.458252)"/>
</clipPath>
</defs>
</svg>
