<svg width="130" height="24" viewBox="0 0 130 24" fill="none" xmlns="http://www.w3.org/2000/svg">
<path d="M13.1414 15.8196L8.65127 18.5619L9.87196 13.4439L5.87683 10.0216L11.121 9.6015L13.1414 4.74316L15.1619 9.6015L20.4068 10.0216L16.4109 13.4439L17.6316 18.5619L13.1414 15.8196Z" fill="#1C2436"/>
<path d="M39.1414 15.8196L34.6513 18.5619L35.872 13.4439L31.8769 10.0216L37.121 9.6015L39.1414 4.74316L41.1619 9.6015L46.4068 10.0216L42.4109 13.4439L43.6316 18.5619L39.1414 15.8196Z" fill="#1C2436"/>
<path d="M65.1414 15.8196L60.6513 18.5619L61.872 13.4439L57.8769 10.0216L63.121 9.6015L65.1414 4.74316L67.1619 9.6015L72.4068 10.0216L68.4109 13.4439L69.6316 18.5619L65.1414 15.8196Z" fill="#1C2436"/>
<path d="M91.1414 15.8196L86.6513 18.5619L87.872 13.4439L83.8769 10.0216L89.121 9.6015L91.1414 4.74316L93.1619 9.6015L98.4068 10.0216L94.4109 13.4439L95.6316 18.5619L91.1414 15.8196Z" fill="#1C2436"/>
<path d="M117.141 15.8196L112.651 18.5619L113.872 13.4439L109.877 10.0216L115.121 9.6015L117.141 4.74316L119.162 9.6015L124.407 10.0216L120.411 13.4439L121.632 18.5619L117.141 15.8196Z" fill="#1C2436"/>
</svg>
