<svg width="44" height="44" viewBox="0 0 44 44" fill="none" xmlns="http://www.w3.org/2000/svg">
<rect x="0.5" y="0.5" width="43" height="43" fill="white"/>
<g clip-path="url(#clip0_1_1865)">
<path d="M31.9452 17.8801C31.8984 16.8174 31.7266 16.0868 31.4804 15.4537C31.2264 14.7818 30.8358 14.1801 30.3239 13.68C29.8238 13.1721 29.2181 12.7774 28.554 12.5274C27.9172 12.2813 27.1904 12.1094 26.1278 12.0626C25.0572 12.0118 24.7173 12 22.0019 12C19.2866 12 18.9467 12.0118 17.88 12.0586C16.8174 12.1055 16.0868 12.2775 15.4539 12.5235C14.7818 12.7774 14.1801 13.1681 13.68 13.68C13.1721 14.1801 12.7776 14.7857 12.5274 15.4499C12.2813 16.0868 12.1094 16.8134 12.0626 17.8761C12.0118 18.9467 12 19.2866 12 22.002C12 24.7173 12.0118 25.0572 12.0586 26.1239C12.1055 27.1866 12.2775 27.9171 12.5236 28.5502C12.7776 29.2221 13.1721 29.8238 13.68 30.3239C14.1801 30.8318 14.7857 31.2264 15.4499 31.4764C16.0868 31.7227 16.8134 31.8944 17.8762 31.9413C18.9427 31.9883 19.2828 31.9999 21.9981 31.9999C24.7134 31.9999 25.0533 31.9883 26.12 31.9413C27.1827 31.8944 27.9132 31.7227 28.5462 31.4764C29.8903 30.9568 30.953 29.8941 31.4727 28.5502C31.7187 27.9133 31.8907 27.1866 31.9374 26.1239C31.9843 25.0572 31.9961 24.7173 31.9961 22.002C31.9961 19.2866 31.9921 18.9467 31.9452 17.8801ZM30.1442 26.0457C30.1012 27.0224 29.9371 27.5499 29.8003 27.9016C29.4643 28.7729 28.7728 29.4643 27.9016 29.8004C27.5499 29.9371 27.0187 30.1012 26.0457 30.1441C24.9908 30.1911 24.6744 30.2027 22.0059 30.2027C19.3374 30.2027 19.017 30.1911 17.966 30.1441C16.9892 30.1012 16.4618 29.9371 16.1101 29.8004C15.6766 29.6401 15.2819 29.3862 14.9615 29.0541C14.6294 28.7298 14.3755 28.3391 14.2152 27.9056C14.0785 27.5539 13.9144 27.0224 13.8715 26.0497C13.8245 24.9948 13.8129 24.6782 13.8129 22.0097C13.8129 19.3412 13.8245 19.0209 13.8715 17.9699C13.9144 16.9932 14.0785 16.4657 14.2152 16.1141C14.3755 15.6804 14.6294 15.2859 14.9655 14.9654C15.2897 14.6333 15.6804 14.3793 16.1141 14.2192C16.4657 14.0825 16.9972 13.9184 17.9699 13.8754C19.0248 13.8285 19.3414 13.8168 22.0097 13.8168C24.6822 13.8168 24.9986 13.8285 26.0497 13.8754C27.0264 13.9184 27.5539 14.0825 27.9054 14.2192C28.3391 14.3793 28.7338 14.6333 29.0541 14.9654C29.3862 15.2897 29.6401 15.6804 29.8003 16.1141C29.9371 16.4657 30.1012 16.997 30.1442 17.9699C30.1911 19.0248 30.2029 19.3412 30.2029 22.0097C30.2029 24.6782 30.1911 24.9908 30.1442 26.0457Z" fill="#1C2436"/>
<path d="M22.0021 16.8644C19.1657 16.8644 16.8644 19.1655 16.8644 22.0021C16.8644 24.8387 19.1657 27.1398 22.0021 27.1398C24.8387 27.1398 27.1398 24.8387 27.1398 22.0021C27.1398 19.1655 24.8387 16.8644 22.0021 16.8644ZM22.0021 25.3348C20.162 25.3348 18.6694 23.8423 18.6694 22.0021C18.6694 20.1618 20.162 18.6694 22.0021 18.6694C23.8423 18.6694 25.3348 20.1618 25.3348 22.0021C25.3348 23.8423 23.8423 25.3348 22.0021 25.3348Z" fill="#1C2436"/>
</g>
<rect x="0.5" y="0.5" width="43" height="43" stroke="#1C2436"/>
<defs>
<clipPath id="clip0_1_1865">
<rect width="20" height="20" fill="white" transform="translate(12 12)"/>
</clipPath>
</defs>
</svg>
