<svg width="44" height="44" viewBox="0 0 44 44" fill="none" xmlns="http://www.w3.org/2000/svg">
<rect x="0.5" y="0.5" width="43" height="43" fill="white"/>
<g clip-path="url(#clip0_1_1870)">
<path d="M22 12.001C16.4859 12.001 12 16.4869 12 22.0009C12 27.5148 16.4859 32.0008 22 32.0008C27.5141 32.0008 32 27.5148 32 22.0009C32 16.4869 27.5141 12.001 22 12.001ZM28.5166 16.7172C29.6392 18.099 30.3304 19.8433 30.3879 21.7446C28.3083 21.3141 26.4252 21.3646 24.7629 21.6906C24.4619 20.9867 24.1503 20.3161 23.8359 19.6823C25.6462 18.9024 27.2222 17.9063 28.5166 16.7172ZM27.3901 15.5723C26.1053 16.745 24.6163 17.6133 23.0918 18.2544C21.9728 16.2081 20.9022 14.6671 20.25 13.7914C20.8147 13.6711 21.3999 13.6066 22 13.6066C24.0506 13.6066 25.9308 14.3466 27.3901 15.5723ZM18.6283 14.3158C19.1208 14.954 20.2939 16.5519 21.554 18.8253C18.3871 19.8571 15.3142 20.0309 13.8376 20.0471C14.453 17.476 16.2536 15.3618 18.6283 14.3158ZM13.6144 21.6567C13.6302 21.6567 13.6455 21.6568 13.6617 21.6568C14.682 21.6568 16.5513 21.5882 18.7521 21.1869C20.0077 20.958 21.1983 20.6498 22.3154 20.2679C22.6063 20.8475 22.8954 21.4589 23.1758 22.0998C21.6114 22.6034 20.2923 23.328 19.2474 24.0476C17.4951 25.2542 16.2676 26.593 15.5973 27.4208C14.3563 25.9572 13.6056 24.0656 13.6056 22.0009C13.6056 21.8855 13.6097 21.771 13.6144 21.6567ZM16.7543 28.5473C17.3313 27.8208 18.5059 26.4982 20.2049 25.3379C21.3596 24.5491 22.5541 23.9632 23.7839 23.5787C24.4974 25.4281 25.1067 27.4716 25.4698 29.6413C24.4114 30.1239 23.2372 30.3951 22 30.3951C20.0163 30.3951 18.1925 29.7021 16.7543 28.5473ZM26.947 28.7768C26.5727 26.784 26.0144 24.9103 25.3691 23.1979C26.9564 22.9301 28.5971 22.9853 30.2821 23.3638C29.9187 25.5784 28.6863 27.5034 26.947 28.7768Z" fill="#1C2436"/>
</g>
<rect x="0.5" y="0.5" width="43" height="43" stroke="#1C2436"/>
<defs>
<clipPath id="clip0_1_1870">
<rect width="20" height="20" fill="white" transform="translate(12 12)"/>
</clipPath>
</defs>
</svg>
