<svg width="80" height="80" viewBox="0 0 80 80" fill="none" xmlns="http://www.w3.org/2000/svg">
<rect width="80" height="80" fill="#EBFA9E"/>
<g clip-path="url(#clip0_1_361)">
<path d="M44.0742 41.0189L51.1672 45.1561L48.1391 46.0219L50.3035 49.771L48.5394 50.7895L46.375 47.0414L44.1109 49.2312L44.0742 41.0189ZM42.0372 33.8893H44.0742V35.9263H49.1668C49.4369 35.9263 49.696 36.0336 49.887 36.2246C50.078 36.4156 50.1853 36.6747 50.1853 36.9448V41.0189H48.1483V37.9633H37.9631V48.1485H42.0372V50.1856H36.9446C36.6744 50.1856 36.4154 50.0783 36.2244 49.8872C36.0334 49.6962 35.9261 49.4372 35.9261 49.167V44.0744H33.889V42.0374H35.9261V36.9448C35.9261 36.6747 36.0334 36.4156 36.2244 36.2246C36.4154 36.0336 36.6744 35.9263 36.9446 35.9263H42.0372V33.8893ZM31.852 42.0374V44.0744H29.8149V42.0374H31.852ZM31.852 37.9633V40.0004H29.8149V37.9633H31.852ZM31.852 33.8893V35.9263H29.8149V33.8893H31.852ZM31.852 29.8152V31.8522H29.8149V29.8152H31.852ZM35.9261 29.8152V31.8522H33.889V29.8152H35.9261ZM40.0001 29.8152V31.8522H37.9631V29.8152H40.0001ZM44.0742 29.8152V31.8522H42.0372V29.8152H44.0742Z" fill="#2A514C"/>
</g>
<defs>
<clipPath id="clip0_1_361">
<rect width="32" height="32" fill="white" transform="translate(24 24)"/>
</clipPath>
</defs>
</svg>
