<svg width="80" height="80" viewBox="0 0 80 80" fill="none" xmlns="http://www.w3.org/2000/svg">
<rect width="80" height="80" fill="#CFF2ED"/>
<g clip-path="url(#clip0_1_368)">
<path d="M40.4218 32.8703H49.1668C49.4369 32.8703 49.696 32.9776 49.887 33.1686C50.078 33.3596 50.1853 33.6187 50.1853 33.8888V48.1481C50.1853 48.4182 50.078 48.6773 49.887 48.8683C49.696 49.0593 49.4369 49.1666 49.1668 49.1666H30.8335C30.5633 49.1666 30.3043 49.0593 30.1133 48.8683C29.9223 48.6773 29.8149 48.4182 29.8149 48.1481V31.8518C29.8149 31.5816 29.9223 31.3226 30.1133 31.1316C30.3043 30.9406 30.5633 30.8333 30.8335 30.8333H38.3848L40.4218 32.8703ZM31.852 32.8703V47.1295H48.1483V34.9073H39.5785L37.5414 32.8703H31.852ZM40.0001 36.9444V41.0184H44.0742C44.0742 41.8242 43.8353 42.6119 43.3876 43.2819C42.9399 43.9518 42.3036 44.474 41.5592 44.7824C40.8148 45.0907 39.9956 45.1714 39.2053 45.0142C38.415 44.857 37.6891 44.469 37.1193 43.8992C36.5496 43.3295 36.1615 42.6035 36.0043 41.8132C35.8471 41.023 35.9278 40.2038 36.2362 39.4594C36.5445 38.7149 37.0667 38.0786 37.7367 37.631C38.4067 37.1833 39.1944 36.9444 40.0001 36.9444Z" fill="#2A514C"/>
</g>
<defs>
<clipPath id="clip0_1_368">
<rect width="32" height="32" fill="white" transform="translate(24 24)"/>
</clipPath>
</defs>
</svg>
