<svg width="80" height="80" viewBox="0 0 80 80" fill="none" xmlns="http://www.w3.org/2000/svg">
<rect width="80" height="80" fill="#E6CFF2"/>
<g clip-path="url(#clip0_1_375)">
<path d="M43.0552 32.4449V40.0002C43.0549 40.6488 42.8482 41.2804 42.465 41.8037C42.0819 42.327 41.5422 42.7148 40.924 42.911C40.3059 43.1072 39.6413 43.1016 39.0265 42.8951C38.4117 42.6885 37.8786 42.2917 37.5043 41.7621C37.13 41.2325 36.934 40.5975 36.9445 39.949C36.955 39.3005 37.1716 38.6722 37.5629 38.155C37.9542 37.6378 38.5 37.2585 39.1211 37.0721C39.7423 36.8856 40.4067 36.9016 41.0182 37.1178V29.866C46.1647 30.3762 50.1848 34.7192 50.1848 40.0002C50.1848 45.6255 45.6249 50.1854 39.9996 50.1854C34.3744 50.1854 29.8145 45.6255 29.8145 40.0002C29.8145 34.7192 33.8346 30.3762 38.9811 29.866V31.9152C36.9265 32.1767 35.0485 33.2106 33.7288 34.807C32.4092 36.4034 31.7469 38.4424 31.8766 40.5095C32.0063 42.5767 32.9182 44.5169 34.4271 45.9358C35.9359 47.3547 37.9284 48.1458 39.9996 48.1484C41.8914 48.1494 43.7245 47.4922 45.1847 46.2895C46.6448 45.0867 47.641 43.4134 48.0023 41.5565C48.3636 39.6996 48.0676 37.7748 47.1649 36.1123C46.2623 34.4498 44.8093 33.1532 43.0552 32.4449Z" fill="#432A51"/>
</g>
<defs>
<clipPath id="clip0_1_375">
<rect width="32" height="32" fill="white" transform="translate(24 24)"/>
</clipPath>
</defs>
</svg>
