<svg width="596" height="600" viewBox="0 0 596 600" fill="none" xmlns="http://www.w3.org/2000/svg">
<g clip-path="url(#clip0_1_27)">
<path d="M43.1037 238.556C43.1037 238.556 43.0324 238.537 42.9878 238.537C43.0324 238.556 43.077 238.565 43.1037 238.556Z" fill="#294F4A"/>
<path d="M42.872 250.371L42.8096 250.235C42.8185 250.322 42.8452 250.361 42.872 250.371Z" fill="#294F4A"/>
<path d="M42.8716 231.477C42.8716 231.477 42.8891 231.477 42.8978 231.487L42.8716 230.991V231.477Z" fill="#294F4A"/>
<path d="M41.2129 264.908H41.2391C41.2391 264.908 41.2216 264.889 41.2129 264.908Z" fill="#294F4A"/>
<path d="M42.7378 260.639C42.7824 260.688 42.8091 260.766 42.8181 260.844C42.8181 260.746 42.8181 260.669 42.7378 260.639Z" fill="#294F4A"/>
<path d="M44.9767 227.423L44.834 227.646C44.9053 227.637 44.9767 227.549 44.9767 227.423Z" fill="#294F4A"/>
<path d="M43.2366 220.334C43.2366 220.334 43.2191 220.343 43.2017 220.363C43.2191 220.363 43.2279 220.363 43.2366 220.334Z" fill="#294F4A"/>
<path d="M43.0322 223.261C43.059 223.319 43.0947 223.377 43.1392 223.445C43.1214 223.358 43.1036 223.251 43.0322 223.261Z" fill="#294F4A"/>
<path d="M43.2019 223.533L43.1484 223.445C43.1663 223.494 43.1752 223.543 43.2019 223.533Z" fill="#294F4A"/>
<path d="M42.6846 220.791C42.8362 220.664 42.8719 220.441 42.9254 220.227L42.6846 220.791Z" fill="#294F4A"/>
<path d="M22.0381 256.38L22.1005 256.322C22.0559 256.322 22.0381 256.351 22.0381 256.38Z" fill="#294F4A"/>
<path d="M41.8906 219.41L42.0155 219.342C41.962 219.352 41.9174 219.381 41.8906 219.41Z" fill="#294F4A"/>
<path d="M45.833 231.205C46.0203 231.4 45.8598 231.847 46.0203 231.827C45.9757 231.604 46.0649 231.283 45.833 231.205Z" fill="#294F4A"/>
<path d="M15.5628 260.921L15.438 260.882C15.4915 260.912 15.5272 260.921 15.5628 260.921Z" fill="#294F4A"/>
<path d="M41.8907 219.41L41.748 219.488C41.748 219.488 41.8105 219.507 41.8372 219.527C41.8462 219.478 41.864 219.439 41.8907 219.41Z" fill="#294F4A"/>
<path d="M12.4326 251.149L12.4501 251.178L12.4326 251.149Z" fill="#294F4A"/>
<path d="M13.2263 250.779L13.0747 251.003C13.1817 250.925 13.2174 250.847 13.2263 250.779Z" fill="#294F4A"/>
<path d="M42.9253 220.227L43.068 219.906C42.9966 220.003 42.961 220.11 42.9253 220.227Z" fill="#294F4A"/>
<path d="M22.4927 241.58C22.4927 241.58 22.4392 241.648 22.4214 241.678C22.4571 241.639 22.4838 241.61 22.4927 241.58Z" fill="#294F4A"/>
<path d="M42.8271 259.677C42.8271 259.677 42.8533 259.599 42.862 259.57C42.8271 259.56 42.8008 259.57 42.8271 259.677Z" fill="#294F4A"/>
<path d="M46.9923 270.879C46.9566 271.073 47.0637 271.559 47.1885 271.909C47.1885 271.666 47.1618 271.375 46.9923 270.879Z" fill="#294F4A"/>
<path d="M47.0103 273.329L47.1084 273.397C47.1084 273.397 47.037 273.349 47.0103 273.329Z" fill="#294F4A"/>
<path d="M47.5095 260.027H47.4917L47.5095 260.036V260.027Z" fill="#294F4A"/>
<path d="M47.5362 262.049C47.5362 262.049 47.4827 262.137 47.4648 262.186C47.5005 262.156 47.5273 262.108 47.5362 262.049Z" fill="#294F4A"/>
<path d="M23.3043 264.937C24.9542 265.55 27.175 266.124 28.7446 266.931C29.2173 266.736 29.7346 266.95 30.2697 267.096L30.1538 267.582L30.6354 267.621C30.7602 267.835 30.2786 267.563 30.5194 267.874L30.787 267.66C30.7602 267.835 31.8394 268.253 31.001 268.263L32.651 268.992C33.0077 269.167 33.0077 268.701 33.3734 268.992C33.4091 269.167 33.195 269.021 33.1683 269.196C34.2563 270.071 34.8985 268.924 35.9598 269.624L35.8439 269.644C36.0847 269.605 36.4414 269.78 36.4682 269.722C36.4949 269.196 36.1738 269.887 35.9241 269.459C36.1025 269.08 36.4325 269.439 36.5217 269.128C36.7357 269.381 36.9765 269.235 37.2084 269.313C37.5116 269.731 38.1449 269.809 38.3232 270.247C38.4392 270.227 38.5908 270.149 38.7602 270.091C38.8494 270.062 38.9386 270.042 39.0367 270.033C39.1437 270.033 39.2062 270.033 39.3935 270.11C39.768 270.636 39.1794 270.354 39.8126 270.772L39.9732 270.577C40.4994 270.85 40.4102 270.879 40.3745 270.995C40.9721 271.268 40.8918 270.859 41.6053 271.345L41.195 271.423C41.748 271.569 41.962 271.705 42.7379 272.065C42.7469 272.221 42.4347 272.065 42.1939 271.929C42.6755 272.532 42.8985 272.065 43.1125 272.211C43.0144 272.055 42.4971 271.773 42.7023 271.598C43.0858 271.812 43.3533 271.53 43.7012 271.987L43.389 272.104C44.0936 272.201 43.6744 271.9 44.5752 272.396C44.5395 272.396 44.593 272.483 44.593 272.541C44.9765 272.366 45.8149 273.047 46.6711 273.436L46.564 273.465C46.8316 273.494 46.8227 273.251 47.001 273.348C46.4303 272.95 46.5016 272.901 46.2608 272.541C46.4838 272.746 46.6265 272.833 46.7246 272.853C46.7602 272.872 46.7602 272.833 46.7424 272.775L46.7157 272.619L46.6354 272.269C46.5194 271.773 46.3767 271.248 46.4927 270.898C46.6175 271.073 46.7692 271.55 46.6354 271.647C46.8316 272.104 46.9832 272.473 47.1348 272.833C47.2062 273.018 47.2775 273.212 47.331 273.417L47.4113 273.737L47.447 273.912L47.4648 274C47.4648 274 47.4381 274 47.4291 274C47.4916 274.039 47.4648 273.942 47.4559 273.864L47.4291 273.65C47.4202 273.514 47.4113 273.397 47.4024 273.3C47.4024 273.115 47.4291 273.047 47.5094 273.222L47.1616 272.571C47.1616 272.298 47.1794 272.114 47.1794 271.919C46.9565 271.52 46.8138 271.929 46.68 271.17C46.573 270.402 47.0456 271.287 46.8851 270.986C46.7602 269.916 46.5194 270.188 46.6443 269.478C46.6711 269.585 46.7335 269.819 46.6978 269.858C46.8494 269.391 46.6532 268.341 47.0724 268.486C47.1616 268.652 47.2954 268.768 47.2508 268.992L47.1883 268.924C47.4827 269.906 47.1081 268.253 47.4916 268.778C47.2686 268.652 47.3221 267.767 47.3667 267.368H47.1081C46.3411 265.628 47.6164 267.709 47.5362 266.24C47.3667 265.287 47.4648 266.552 47.2864 265.949C47.34 265.385 47.5718 265.19 47.4648 264.296L47.554 264.082C47.5897 264.033 47.6253 263.975 47.661 263.926C47.7413 263.829 47.8572 263.741 47.9999 263.732C47.884 263.391 48.1337 262.711 47.8483 262.516C47.5986 263.09 48.1515 263.09 47.777 263.761L47.4916 263.576C47.5094 263.109 47.3667 262.516 47.4648 262.195C47.4113 262.263 47.34 262.292 47.2775 262.244C47.1705 261.583 46.8851 261.398 46.9743 260.756C47.2329 260.668 47.1883 261.048 47.2151 261.32C47.4202 260.902 47.2329 260.882 47.3132 260.241C47.5451 260.202 47.3043 260.678 47.5272 260.746L47.447 260.036C47.447 260.036 47.4737 260.036 47.4916 260.036C47.1081 259.939 47.5183 259.492 47.4024 259.054C47.4024 258.024 46.8851 257.868 46.573 257.304C46.6711 257.149 46.7692 257.1 46.8673 257.168C46.6978 257.421 46.8316 257.372 46.9386 257.46C46.894 257.11 47.3043 256.691 47.4559 256.886C47.34 256.332 47.2597 257.09 47.1348 256.75L47.1527 255.991C46.9565 256.089 46.9208 256.351 46.7692 255.962C46.7156 255.632 46.7513 255.476 46.7513 255.038C46.8494 255.097 47.0456 254.892 47.0367 255.223C47.1081 255.009 47.117 254.688 46.9208 254.562C46.7513 255.038 46.7424 253.794 46.4481 254.144L46.6175 253.667C46.6175 253.774 46.7424 253.784 46.7067 253.94C47.001 253.803 46.6175 253.551 46.5819 253.395C46.6354 253.23 46.6532 252.792 46.7692 252.753C46.68 252.607 46.7424 252.238 46.894 252.17C46.8316 251.946 46.6978 252.16 46.5997 252.092V251.334C46.7692 251.285 47.224 251.217 47.2864 251.334C47.1259 251.052 46.8048 251.246 46.8048 250.808C47.1259 251.052 47.0367 250.225 47.4202 250.575C47.6432 250.322 47.6164 249.612 47.5183 249.223C47.2597 248.99 47.3845 249.651 47.1259 249.632C47.001 248.543 46.2876 248.504 46.3857 247.697L46.3232 247.911C46.1627 247.415 46.1984 247.473 45.9665 247.191C46.2876 247.318 46.8048 246.588 46.7067 245.771C46.5462 245.713 46.4213 246.248 46.1627 246.122L46.0913 245.577C46.0913 245.577 46.1716 245.596 46.2162 245.664C46.0824 245.178 46.5997 244.731 46.2162 244.614L46.6621 244.089L46.4659 244.294C46.3054 244.235 46.234 243.691 46.1716 243.574C45.9665 243.02 46.0914 242.815 46.2876 242.494C46.1627 242.601 45.8773 242.854 45.806 242.427C46.3232 242.397 45.9487 241.493 46.2251 241.493C46.2073 241.318 46.3589 240.987 46.1359 240.978H46.457C46.0022 240.978 45.9932 240.326 45.8862 239.83C46.5016 239.898 45.806 239.286 46.35 239.033C45.9308 238.965 46.1359 238.158 45.7703 238.099C45.7257 237.72 46.1181 237.73 46.243 237.623L46.0735 237.458C46.2519 237.253 46.243 236.524 46.3411 236.087L45.9487 235.717L46.1003 235.552C46.0022 235.493 45.9219 235.172 45.806 235.386V235.172C45.4135 235.192 45.6811 234.881 45.476 234.463C45.5295 234.356 45.6276 234.375 45.69 234.463C45.6811 234.249 45.8862 234.317 46.0111 234.19C45.9219 234.356 45.2352 233.49 45.1014 234.083C44.9408 234.142 44.7981 233.811 44.8517 233.597L45.1995 233.432L44.7981 233.218C44.7179 232.897 44.9319 232.732 44.9498 232.46C44.9944 232.732 45.6989 232.994 45.6187 232.294C45.6989 232.664 45.913 232.819 46.0111 233.004C46.0111 232.858 46.0378 232.78 46.2162 232.994C46.0557 232.45 45.9754 232.829 45.8862 232.294C46.2073 232.294 46.2965 232.129 46.3678 231.633L46.1627 232.012C46.1627 232.012 46.0913 231.983 46.0735 231.954C46.0468 232.09 46.0022 232.139 45.8862 232.177C45.8862 232.07 45.4314 231.584 45.6187 231.477C45.1727 232.08 45.146 230.563 44.8784 230.952C44.7803 230.904 44.7268 230.524 44.8784 230.466C45.1638 230.894 45.2084 230.077 45.4403 230.126C45.3333 229.97 45.2352 230.515 45.0925 230.301C45.0479 230.029 45.2262 229.805 45.3065 229.649L45.3779 229.756L45.476 229.319C45.3065 229.27 45.253 229.756 45.1281 229.387C45.1816 229.28 45.0568 228.901 45.1906 228.891C45.4314 229.046 45.7078 228.871 45.797 229.202C45.7435 228.93 45.6097 228.064 45.3511 228.453L45.3243 228.123C45.2084 228.346 45.03 228.949 44.9141 228.307H44.9765L44.6822 227.879L44.8249 227.656C44.7446 227.675 44.6644 227.607 44.6465 227.442C44.7357 227.384 44.7536 227.218 44.8873 227.218C44.816 226.732 44.6554 226.79 44.5573 226.742C44.5038 226.47 44.5573 226.363 44.7536 226.46C44.7536 226.081 44.6198 225.429 44.7536 225.147C44.5395 224.671 44.7 225.264 44.4414 225.001C44.9408 224.476 44.4414 223.309 44.2274 222.502C43.7814 222.813 44.1382 222.288 43.6744 222.22C43.8528 222.366 43.9241 221.374 44.1738 222.065L44.049 221.637C44.263 221.287 44.3611 222.317 44.6554 221.792C44.5573 221.306 43.9866 221.092 44.0579 220.48C44.4414 220.596 43.8617 220.061 44.263 220.12C44.4057 220.217 44.4057 220.382 44.4592 220.538L44.5038 220.421C44.3968 219.322 44.0401 220.198 43.6922 219.682C43.5228 219.04 43.8617 219.109 44.0133 219.031C44.0579 218.914 43.942 218.593 43.8171 218.447C44.1025 218.797 43.7458 219.235 43.496 219.109C43.826 218.729 43.3355 218.136 43.1482 218C42.9163 219.031 43.2552 218.652 42.9787 219.624C43.1214 219.711 43.4693 219.624 43.4247 220.168C43.1839 219.877 43.2374 220.237 43.1928 220.334C43.3712 220.188 43.3444 220.674 43.4604 220.82C43.3177 220.995 42.9431 220.606 42.952 221.151H43.4425C43.4068 221.374 43.0769 221.131 43.2641 221.549C42.9787 221.364 42.8896 221.695 42.7201 221.121C42.4258 221.909 43.1125 222.162 43.3712 222.677C43.3355 222.629 43.2641 222.629 43.2285 222.58C43.3712 222.677 43.3979 222.891 43.4514 223.047C43.3979 223.426 43.1928 222.794 43.0769 222.92L43.1839 223.504C43.1839 223.504 43.166 223.523 43.1482 223.523C43.2374 223.669 43.3087 223.805 43.1928 223.883C43.0144 223.737 42.845 223.698 42.7023 223.601L43.1214 224.155C42.952 224.116 42.9163 224.709 42.7469 224.291L42.9342 225.196L42.622 225.322C42.7112 225.526 42.7736 225.526 42.7736 225.264C42.7379 225.585 43.5228 226.557 42.8628 226.489C43.2285 227.17 43.1393 227.442 43.3979 228.288C43.0233 227.656 43.1036 229.105 42.8896 228.414C42.7915 228.842 43.1571 228.891 43.2463 229.202C43.1393 229.523 42.8093 229.426 42.6577 229.114L42.845 229.484H42.7825L43.0055 229.795C42.8717 230.174 42.6934 229.912 42.6844 230.281L42.9787 230.33L42.8361 230.602C42.9609 230.495 43.0323 230.709 43.0858 230.972H43.0233L43.1036 231.293C42.8985 230.991 43.0679 231.594 42.8539 231.468C42.8628 231.75 42.8717 231.75 42.9698 232.255L43.1571 232.148C43.389 232.79 42.8717 232.207 42.8985 232.741L43.1214 232.683C42.8182 233.49 43.4425 233.967 43.2463 234.56C43.166 234.239 42.9163 234.346 42.9787 234.346C43.0947 234.832 43.0947 235.629 43.4068 236.116C43.0947 236.33 42.9966 236.378 42.8896 236.913C42.9342 237.292 42.9698 237.341 43.166 237.448C43.059 237.827 43.2909 238.498 43.059 238.537C43.2552 238.605 43.0412 238.868 43.2106 239.062L43.1125 239.111L43.3355 239.062C42.8717 239.743 43.6922 240.141 43.282 240.832L43.2196 240.725L43.3177 240.997C43.2196 241.046 43.1571 240.939 43.0233 240.939L43.0412 242.222L43.2017 241.96C43.2374 242.232 43.4693 242.397 43.3444 242.718C42.9787 242.222 43.3444 243.146 43.0947 243.243L42.9877 242.971C43.0115 243.224 43.1006 243.334 43.2552 243.302C43.3623 243.788 42.8361 243.661 43.1036 244.099V243.778C43.2285 243.681 43.4247 243.895 43.4247 244.109C43.389 244.157 43.2998 244.323 43.2641 244.157C43.3622 244.537 43.2641 245.12 43.3712 245.285C43.3087 245.499 43.1482 245.441 43.0769 245.324C43.3087 246.141 43.0501 245.694 43.2731 246.51H43.1482L43.3087 246.783L43.0501 247.201L43.2106 247.045C43.2463 247.318 43.3355 247.483 43.2731 247.804L43.0769 247.687C43.2017 248.446 42.7825 248.582 43.0769 249.301C43.0412 249.35 42.9787 249.243 42.952 249.185C43.2731 249.846 42.6309 249.7 43.0144 250.371C42.952 250.332 42.8717 250.41 42.8182 250.381L42.952 250.682L42.6934 250.663L43.0769 250.906L42.8182 251.1L42.9431 251.217C42.4526 251.557 42.8361 252.014 42.4793 252.471L42.8004 252.384C43.505 253.502 42.4704 254.99 42.8004 256.351L42.5417 256.332L42.8539 256.896C42.6577 257.197 42.6309 256.721 42.4971 256.808C42.6488 257.411 42.8806 257.051 42.9609 257.761C42.7915 258.121 42.7736 257.635 42.6755 257.469C42.8093 258.131 42.952 259.103 42.8093 259.57C42.845 259.579 42.8896 259.609 42.9074 259.579C43.0233 260.017 42.9074 260.601 42.9342 261.087C42.8182 261.077 42.8004 260.951 42.7736 260.834C42.7558 261.009 42.6755 261.242 42.8004 261.398L42.5774 261.213C42.5328 261.583 42.7379 262.302 42.4704 262.38C42.5685 262.331 42.7647 262.351 42.7469 262.672C42.3544 262.847 42.9074 263.556 42.7023 264.052C42.6131 264.004 42.5863 263.615 42.5863 263.722C42.5328 263.839 42.5507 264.004 42.6042 264.062L42.7915 264.198L42.6309 264.159C42.7023 264.305 42.7736 264.48 42.845 264.675C42.4526 264.558 42.8985 265.151 42.6131 264.947C42.5952 265.093 42.7915 264.928 42.8271 265.171C42.6666 265.103 42.9074 265.433 42.6488 265.21L42.622 265.161L42.6398 265.307L42.3901 265.005C42.4436 265.132 42.6934 265.472 42.8806 265.686C42.7379 265.657 42.8539 265.968 42.622 265.725L42.5596 265.608C42.6042 265.822 42.4347 265.706 42.3009 265.579C42.2474 265.54 42.1582 265.433 42.1136 265.394C42.0691 265.365 42.0691 265.394 42.1136 265.55C42.078 265.492 42.0245 265.394 42.0512 265.404L41.9353 265.336L41.8193 265.064C41.8461 265.19 41.855 265.307 41.8461 265.414L41.7837 265.239C41.6499 265.122 41.525 265.142 41.3734 265.122L41.3912 265.064C41.2218 265.219 41.2664 264.86 41.1326 264.966C41.1504 264.937 41.1504 264.918 41.1594 264.918L40.9899 264.85C41.0345 264.821 41.0969 264.801 41.1237 264.762C40.6956 264.898 40.2853 263.965 40.4102 264.296C40.1694 264.334 39.777 264.334 39.661 264.471C39.1527 264.266 39.5986 264.247 39.331 264.004C38.9743 263.829 38.8227 264.023 38.3678 263.693L38.4303 263.566C38.1895 263.488 38.0111 263.518 37.6811 263.391L37.797 263.372C37.1727 263.411 37.2798 262.701 36.6554 263.09C36.4771 262.886 36.0222 262.788 36.1382 262.535C35.4158 262.419 34.8806 262.273 34.185 262.088C34.2385 261.612 34.0334 262.049 33.7301 261.631L33.6766 261.874C32.7402 261.495 31.8929 260.464 30.8405 260.114L30.894 259.871L30.5997 260.036C29.5473 259.443 28.1649 258.734 27.2909 258.345C26.9609 258.345 26.4258 258.422 25.9977 258.14H26.0601C25.2218 257.917 24.3478 257.644 23.5362 257.129C23.6253 257.051 23.5629 256.954 23.6878 256.935C23.3935 257.1 23.1794 256.721 22.9921 256.633L23.1437 256.905C22.8138 257.012 22.5462 256.653 22.4838 256.429L22.0022 256.507C22.0022 256.507 21.9576 256.419 21.9665 256.38L21.8505 256.468L21.7524 256.079C21.6365 256.098 21.0925 255.952 20.8249 256.166C20.8249 256.05 20.4949 255.807 20.7892 255.875L19.4068 255.165L19.5852 255.369C19.5317 255.612 19.0501 255.573 18.8717 255.369C19.2285 255.311 19.0144 255.058 18.952 254.834C18.7112 254.873 19.0412 255.106 18.8985 255.194C18.5952 255.243 18.0601 255.097 17.9709 254.931L18.1493 254.902C17.7926 254.844 17.7837 254.377 17.4537 254.251C17.0969 254.309 16.9453 254.046 16.8561 254.465C16.4013 254.358 16.7937 254.124 16.6688 254.027C16.4013 254.124 15.8572 253.745 15.8572 253.512C15.4113 253.988 14.8048 252.802 14.5373 253.259L14.2965 252.831C14.234 252.958 14.0646 253.22 13.7614 253.152C13.5473 252.899 13.6989 252.695 13.6633 252.53L13.3065 252.938C13.1371 252.792 12.9587 252.656 12.7714 252.52L12.4949 252.335L12.4503 252.267C12.3879 252.189 12.3255 252.141 12.263 252.092C12.1471 252.004 11.9866 251.907 12.2274 251.761C12.1114 251.771 11.9063 251.791 11.719 251.781C11.6655 251.752 11.6833 251.693 11.7814 251.645H11.8706C11.9776 251.616 12.0757 251.586 12.1649 251.557C12.0401 251.567 11.9063 251.596 11.7547 251.625C11.6922 251.606 11.5763 251.577 11.6209 251.548C11.7903 251.499 11.9866 251.44 12.1917 251.382C12.3255 251.343 12.3611 251.304 12.3433 251.139C12.2719 251.003 12.2452 250.974 12.3076 250.935C12.3968 250.876 12.486 250.876 12.5841 250.886C12.7714 250.906 12.9765 250.945 13.1371 250.507C13.1192 250.595 13.1549 250.682 13.1371 250.77C13.6454 250.021 13.9308 249.612 14.35 248.737C14.6354 249.253 14.7513 248.339 14.8851 248.621L14.787 248.387C15.0189 248.368 15.3756 248.086 15.4381 248.261L15.5362 247.765L15.7145 247.93C16.098 247.59 16.7669 246.676 17.2664 246.87C17.9531 245.713 19.4693 244.42 20.6822 243.389C20.7179 243.078 21.0479 242.747 21.2976 242.485L21.7524 242.436C21.9665 242.115 22.02 241.561 22.3857 241.464C22.4035 241.493 22.4124 241.522 22.4035 241.551C22.6354 241.25 22.9921 241.124 23.0813 240.666C23.3845 240.394 23.768 240.239 23.8483 240.53C23.5808 240.132 24.5172 239.986 24.5172 239.986C24.5172 239.986 40.4905 226.324 42.5952 220.762C42.5774 220.46 42.8271 220.013 42.515 219.925C42.729 219.604 43.1125 219.809 43.0144 219.575C42.5507 219.799 42.7469 218.992 42.2118 219.109L42.408 218.846C42.3544 218.671 42.2207 219.293 42.0869 219.002L42.3009 219.4C42.078 219.527 41.9174 219.546 41.7569 219.497C41.6945 219.799 41.9531 220.363 41.3734 220.557L41.4715 220.431C41.1415 220.762 41.088 220.412 40.9721 220.421L41.0523 220.353L40.6332 220.45C40.9364 220.363 41.0702 219.741 40.9007 219.945C40.4191 220.237 41.0702 219.925 40.8026 220.256C40.6332 220.45 40.535 220.217 40.4548 220.11L40.1248 220.441C40.0089 220.275 40.3567 220.237 40.0891 220.207L39.8037 220.781C39.4024 220.45 39.5005 221.413 39.001 221.219C39.2329 220.83 38.8673 221.112 38.8138 220.937L38.0824 221.676C37.9665 221.685 38.1805 221.364 38.0824 221.491C37.8505 221.51 37.9308 221.812 37.8505 221.88C37.6989 221.831 37.2976 222.415 37.1014 222.133C36.4503 222.434 37.1638 222.677 36.5663 222.969C36.3701 222.862 36.9141 222.57 36.5663 222.609L36.1203 223.134C36.1025 223.018 36.0044 222.784 36.2184 222.638C34.7201 223.688 33.3288 223.523 32.2853 224.894C31.9643 224.865 32.3032 224.651 32.321 224.408C31.6521 225.497 30.7513 225.167 30.02 225.896L30.1359 226.071C28.7 226.576 27.6833 228.064 26.3455 228.978L26.5774 228.959C26.5417 229.27 26.292 229.533 26.1582 229.785C26.0601 229.737 26.0245 229.309 25.7391 229.708C25.855 229.698 26.0512 229.62 26.069 229.737C24.7313 230.291 22.68 232.43 20.8517 233.811C18.7023 236.077 16.0178 238.09 13.8951 240.297C14.2251 239.966 14.3946 240.491 14.0646 240.647C12.8427 240.647 12.9498 241.901 11.8795 242.125C10.7647 243.564 9.15935 244.089 8.37451 245.733L8.20506 245.567C8.14263 245.587 8.09803 245.616 8.07128 245.645C8.03561 245.674 7.97318 245.762 7.92858 245.82C7.8394 245.947 7.75913 246.092 7.58967 246.267L7.554 246.209C6.62646 246.968 5.81487 248.076 5.23516 248.485L5.47596 248.621C5.02111 249.087 5.00328 248.786 4.66437 249.321L4.53059 249.262L4.24519 249.885C3.72791 249.729 2.82713 251.188 2.14932 251.538C1.65879 252.111 0.909629 253.084 -0.0625 253.94C0.0266862 253.988 0.115872 254.027 0.205059 254.076C-0.00898829 254.251 1.48042 254.902 2.25634 255.388C4.22736 256.186 6.89402 257.265 9.19503 258.374L9.30205 258.072L9.8996 258.315C9.86392 258.374 9.92635 258.442 9.82825 258.432C9.8996 258.558 10.069 258.675 10.1761 258.734C10.2563 258.782 10.3544 258.801 10.4615 258.821C10.6666 258.86 10.8717 258.889 10.9609 259.045C10.8985 258.704 10.7469 258.908 10.5685 258.811C10.3544 258.558 10.7112 258.383 11.0144 258.685L10.9877 258.743L11.2909 258.695C11.2285 258.938 11.4158 259.142 11.3622 259.385C12.4414 259.793 13.3154 259.716 14.3678 260.309C14.1627 260.513 15.1794 260.591 14.7959 260.941C15.5183 261.057 14.8227 260.532 15.2418 260.348C15.4202 260.435 15.661 260.396 15.6343 260.581C15.5094 260.649 15.6789 260.921 15.5183 260.892L15.9732 261.048C15.9999 261.096 15.884 261.116 15.8216 261.125C16.8115 261.262 17.302 262.117 18.1939 262.205C18.3099 262.069 17.8907 262.02 18.0066 261.884C18.9342 261.913 18.6131 262.487 19.4514 262.584L19.2106 262.74C19.5139 262.691 19.6833 262.545 20.0222 262.905C19.9955 263.197 19.6031 262.973 19.3622 263.012C19.6298 263.148 20.3522 263.382 20.2274 263.051C20.5841 263.109 20.6198 263.401 20.7714 263.547C20.7981 263.488 20.5306 263.236 20.7714 263.197C21.1638 263.537 21.8595 263.839 22.3946 264.101C22.3678 264.159 22.3678 264.276 22.3054 264.286C22.8673 264.14 22.6086 264.704 23.2418 264.898L23.3043 264.937Z" fill="#294F4A"/>
<path d="M47.545 259.764L47.5093 260.027C47.5628 260.027 47.6341 260.036 47.6966 260.163L47.545 259.774V259.764Z" fill="#294F4A"/>
<path d="M44.5931 272.522C44.5931 272.522 44.5307 272.541 44.5039 272.561C44.5842 272.58 44.5931 272.561 44.5931 272.522Z" fill="#294F4A"/>
<path d="M40.455 271.248C40.776 271.326 40.4996 271.122 40.3658 270.986C40.3479 271.044 40.3479 271.112 40.455 271.248Z" fill="#294F4A"/>
<path d="M46.769 252.763C46.769 252.763 46.8315 252.831 46.885 252.821C46.8404 252.763 46.8047 252.753 46.769 252.763Z" fill="#294F4A"/>
<path d="M46.0281 233.364C46.0281 233.364 46.0107 233.412 45.9932 233.442C46.0107 233.422 46.0194 233.393 46.0281 233.364Z" fill="#294F4A"/>
<path d="M45.6992 234.472C45.6992 234.521 45.7171 234.589 45.7527 234.686C45.7527 234.589 45.7349 234.521 45.6992 234.472Z" fill="#294F4A"/>
<path d="M46.9385 257.46C46.9474 257.528 46.9652 257.606 47.0187 257.664C47.0187 257.557 46.9742 257.499 46.9385 257.46Z" fill="#294F4A"/>
<path d="M45.833 234.91V235.182H45.8767L45.833 234.91Z" fill="#294F4A"/>
<path d="M46.0288 233.014C46.0288 233.121 46.0376 233.266 46.0288 233.354C46.09 233.208 46.0813 233.101 46.0288 233.014Z" fill="#294F4A"/>
<path d="M46.2339 245.665C46.2339 245.665 46.2339 245.684 46.2339 245.694C46.3498 245.898 46.3052 245.771 46.2339 245.665Z" fill="#294F4A"/>
<path d="M46.3678 236.048L46.3589 236.087L46.4302 236.164L46.3678 236.048Z" fill="#294F4A"/>
<path d="M46.02 231.837C46.0289 231.886 46.0468 231.935 46.0825 231.964L46.1003 231.808C46.1003 231.808 46.0468 231.837 46.0289 231.837H46.02Z" fill="#294F4A"/>
<path d="M46.4479 241.59C46.3498 241.522 46.2785 241.493 46.2339 241.493C46.2339 241.58 46.2874 241.639 46.4479 241.59Z" fill="#294F4A"/>
</g>
<g clip-path="url(#clip1_1_27)">
<path d="M576.639 477.451C576.639 477.451 576.61 477.384 576.582 477.349C576.595 477.395 576.615 477.436 576.639 477.451Z" fill="#294F4A"/>
<path d="M567.194 484.553L567.262 484.42C567.199 484.481 567.185 484.526 567.194 484.553Z" fill="#294F4A"/>
<path d="M582.069 472.905C582.069 472.905 582.08 472.919 582.078 472.931L582.452 472.605L582.069 472.905Z" fill="#294F4A"/>
<path d="M554.725 492.209L554.742 492.23C554.742 492.23 554.746 492.205 554.725 492.209Z" fill="#294F4A"/>
<path d="M559.026 490.778C559.015 490.843 558.971 490.912 558.915 490.967C558.991 490.908 559.053 490.86 559.026 490.778Z" fill="#294F4A"/>
<path d="M586.559 472.062L586.295 472.088C586.347 472.138 586.46 472.14 586.559 472.062Z" fill="#294F4A"/>
<path d="M591.068 466.322C591.068 466.322 591.049 466.314 591.023 466.312C591.034 466.326 591.039 466.333 591.068 466.322Z" fill="#294F4A"/>
<path d="M588.637 467.965C588.608 468.022 588.584 468.086 588.558 468.163C588.616 468.095 588.689 468.015 588.637 467.965Z" fill="#294F4A"/>
<path d="M588.528 468.267L588.563 468.171C588.536 468.215 588.503 468.252 588.528 468.267Z" fill="#294F4A"/>
<path d="M590.368 466.169C590.561 466.21 590.759 466.101 590.96 466.011L590.368 466.169Z" fill="#294F4A"/>
<path d="M549.618 471.855L549.702 471.868C549.675 471.833 549.641 471.837 549.618 471.855Z" fill="#294F4A"/>
<path d="M590.965 464.692L591.096 464.749C591.055 464.713 591.005 464.695 590.965 464.692Z" fill="#294F4A"/>
<path d="M584.109 475.068C584.071 475.336 583.62 475.485 583.735 475.599C583.883 475.427 584.191 475.299 584.109 475.068Z" fill="#294F4A"/>
<path d="M542.05 469.556L542.004 469.434C542.014 469.494 542.028 469.528 542.05 469.556Z" fill="#294F4A"/>
<path d="M590.965 464.692L590.816 464.628C590.816 464.628 590.839 464.689 590.84 464.722C590.884 464.699 590.926 464.689 590.965 464.692Z" fill="#294F4A"/>
<path d="M547.815 461.067L547.802 461.099L547.815 461.067Z" fill="#294F4A"/>
<path d="M548.595 461.464L548.325 461.483C548.453 461.519 548.536 461.499 548.595 461.464Z" fill="#294F4A"/>
<path d="M590.96 466.011L591.301 465.925C591.18 465.929 591.074 465.967 590.96 466.011Z" fill="#294F4A"/>
<path d="M561.55 463.088C561.55 463.088 561.464 463.088 561.43 463.092C561.482 463.096 561.522 463.099 561.55 463.088Z" fill="#294F4A"/>
<path d="M559.839 490.255C559.839 490.255 559.917 490.228 559.945 490.217C559.931 490.183 559.907 490.168 559.839 490.255Z" fill="#294F4A"/>
<path d="M553.587 500.441C553.412 500.533 553.096 500.917 552.897 501.231C553.088 501.081 553.301 500.88 553.587 500.441Z" fill="#294F4A"/>
<path d="M551.669 501.966L551.676 502.085C551.676 502.085 551.67 501.999 551.669 501.966Z" fill="#294F4A"/>
<path d="M562.45 494.158L562.44 494.144L562.443 494.163L562.45 494.158Z" fill="#294F4A"/>
<path d="M560.874 495.426C560.874 495.426 560.773 495.437 560.723 495.453C560.768 495.463 560.823 495.455 560.874 495.426Z" fill="#294F4A"/>
<path d="M543.661 478.128C544.196 479.804 545.113 481.906 545.446 483.64C545.89 483.892 546.041 484.431 546.256 484.943L545.802 485.151L546.068 485.554C545.976 485.784 545.894 485.237 545.797 485.619L546.131 485.698C545.976 485.784 546.312 486.892 545.788 486.238L546.231 487.986C546.313 488.375 546.681 488.087 546.676 488.555C546.561 488.691 546.543 488.433 546.389 488.52C546.371 489.916 547.67 489.714 547.773 490.981L547.687 490.902C547.866 491.068 547.948 491.456 548.01 491.442C548.44 491.139 547.699 491.312 547.881 490.851C548.29 490.758 548.21 491.24 548.51 491.118C548.443 491.442 548.706 491.542 548.788 491.772C548.646 492.269 548.975 492.816 548.74 493.226C548.827 493.305 548.982 493.376 549.132 493.474C549.21 493.526 549.281 493.584 549.349 493.656C549.415 493.74 549.453 493.789 549.508 493.984C549.325 494.603 549.184 493.966 549.245 494.722L549.497 494.729C549.607 495.311 549.53 495.259 549.416 495.302C549.57 495.941 549.842 495.626 549.899 496.487L549.585 496.212C549.811 496.738 549.835 496.99 550.031 497.823C549.914 497.926 549.844 497.584 549.802 497.31C549.625 498.061 550.13 497.949 550.147 498.208C550.209 498.034 550.112 497.453 550.376 497.507C550.444 497.941 550.831 497.977 550.686 498.533L550.401 498.359C550.759 498.974 550.738 498.458 550.903 499.473C550.881 499.445 550.845 499.541 550.799 499.577C551.173 499.771 551.154 500.851 551.376 501.765L551.287 501.698C551.429 501.927 551.615 501.77 551.648 501.97C551.61 501.275 551.693 501.302 551.827 500.89C551.804 501.192 551.823 501.358 551.868 501.447C551.875 501.487 551.906 501.463 551.941 501.413L552.047 501.296L552.273 501.017C552.592 500.62 552.917 500.184 553.264 500.06C553.203 500.266 552.922 500.679 552.763 500.633C552.524 501.07 552.326 501.417 552.137 501.758C552.035 501.928 551.926 502.104 551.798 502.272L551.595 502.533L551.479 502.669L551.421 502.737C551.421 502.737 551.405 502.716 551.399 502.709C551.407 502.782 551.467 502.701 551.523 502.646L551.675 502.493C551.777 502.402 551.863 502.323 551.934 502.257C552.079 502.143 552.149 502.122 552.061 502.293L552.36 501.617C552.574 501.449 552.731 501.35 552.884 501.23C553.06 500.808 552.651 500.948 553.165 500.375C553.704 499.817 553.299 500.735 553.437 500.422C554.202 499.665 553.84 499.643 554.475 499.304C554.408 499.391 554.262 499.584 554.21 499.58C554.671 499.411 555.377 498.609 555.52 499.029C555.445 499.201 555.436 499.379 555.232 499.481L555.247 499.39C554.655 500.227 555.726 498.913 555.549 499.539C555.511 499.286 556.241 498.782 556.582 498.571L556.423 498.368C557.32 496.691 556.468 498.978 557.575 498.009C558.221 497.289 557.286 498.145 557.65 497.633C558.128 497.327 558.424 497.39 559.062 496.754L559.285 496.693C559.346 496.691 559.414 496.683 559.474 496.681C559.6 496.684 559.74 496.722 559.836 496.828C560.032 496.527 560.722 496.304 560.699 495.959C560.094 496.116 560.435 496.552 559.675 496.67L559.645 496.332C560.023 496.058 560.402 495.58 560.716 495.459C560.629 495.459 560.562 495.421 560.562 495.342C561.016 494.85 560.986 494.511 561.546 494.186C561.775 494.336 561.449 494.534 561.251 494.723C561.706 494.627 561.606 494.467 562.161 494.135C562.335 494.294 561.811 494.398 561.895 494.615L562.404 494.114C562.404 494.114 562.421 494.135 562.432 494.15C562.272 493.788 562.877 493.835 563.15 493.474C563.962 492.838 563.765 492.335 564.017 491.742C564.2 491.723 564.299 491.77 564.305 491.889C564.002 491.912 564.123 491.987 564.12 492.125C564.368 491.875 564.95 491.94 564.89 492.179C565.255 491.746 564.609 492.15 564.799 491.842L565.408 491.389C565.21 491.294 564.981 491.428 565.194 491.069C565.422 490.823 565.566 490.755 565.91 490.485C565.925 490.598 566.207 490.627 565.941 490.824C566.153 490.748 566.412 490.557 566.39 490.325C565.91 490.485 566.885 489.711 566.428 489.695L566.908 489.535C566.823 489.601 566.893 489.705 566.748 489.773C567.037 489.92 566.999 489.463 567.1 489.339C567.263 489.279 567.619 489.023 567.721 489.091C567.781 488.93 568.11 488.752 568.257 488.829C568.395 488.642 568.144 488.669 568.137 488.549L568.734 488.082C568.877 488.185 569.211 488.501 569.157 488.622C569.28 488.322 568.929 488.189 569.274 487.92C569.28 488.322 569.876 487.742 569.837 488.26C570.174 488.28 570.716 487.821 570.962 487.504C570.986 487.157 570.542 487.663 570.398 487.447C571.179 486.677 570.769 486.091 571.465 485.671L571.258 485.754C571.55 485.322 571.526 485.386 571.605 485.029C571.703 485.36 572.597 485.318 573.179 484.737C573.126 484.574 572.628 484.806 572.568 484.524L572.953 484.132C572.953 484.132 572.987 484.208 572.961 484.285C573.261 483.88 573.932 484.011 573.788 483.637L574.476 483.665L574.194 483.636C574.141 483.474 574.526 483.082 574.58 482.961C574.889 482.457 575.127 482.43 575.501 482.387C575.34 482.354 574.965 482.285 575.257 481.965C575.599 482.355 576.08 481.502 576.251 481.72C576.378 481.598 576.731 481.513 576.602 481.332L576.8 481.585C576.519 481.227 577.027 480.818 577.351 480.428C577.677 480.954 577.73 480.029 578.265 480.301C578.06 479.929 578.822 479.593 578.642 479.269C578.914 479.001 579.148 479.316 579.309 479.348L579.335 479.113C579.605 479.127 580.174 478.67 580.579 478.478L580.628 477.941L580.852 477.959C580.837 477.845 581.04 477.584 580.8 477.625L580.969 477.493C580.712 477.196 581.122 477.215 581.324 476.796C581.442 476.772 581.487 476.861 581.456 476.964C581.619 476.825 581.692 477.029 581.869 477.049C581.683 477.081 581.941 476.007 581.392 476.267C581.247 476.176 581.419 475.86 581.621 475.771L581.965 475.942L581.886 475.495C582.09 475.234 582.352 475.3 582.577 475.146C582.39 475.349 582.618 476.066 583.12 475.571C582.878 475.862 582.888 476.127 582.803 476.318C582.917 476.228 582.995 476.201 582.937 476.473C583.267 476.011 582.918 476.182 583.285 475.782C583.482 476.035 583.668 476.003 584.102 475.753L583.677 475.826C583.677 475.826 583.656 475.751 583.668 475.719C583.544 475.782 583.478 475.777 583.376 475.71C583.461 475.644 583.563 474.986 583.763 475.068C583.013 475.088 584.191 474.132 583.72 474.161C583.698 474.054 583.963 473.778 584.102 473.861C583.942 474.35 584.612 473.881 584.717 474.094C584.773 473.914 584.284 474.172 584.365 473.928C584.551 473.725 584.838 473.727 585.01 473.695L584.969 473.817L585.374 473.624C585.308 473.461 584.892 473.718 585.106 473.392C585.223 473.368 585.445 473.036 585.535 473.136C585.561 473.421 585.869 473.531 585.664 473.805C585.845 473.595 586.444 472.956 585.979 472.992L586.222 472.767C585.975 472.814 585.39 473.045 585.824 472.558L585.863 472.607L586.018 472.112L586.282 472.086C586.217 472.035 586.221 471.93 586.341 471.814C586.441 471.848 586.583 471.761 586.665 471.866C587.004 471.51 586.859 471.419 586.837 471.312C587.018 471.102 587.135 471.078 587.18 471.293C587.478 471.059 587.909 470.552 588.213 470.484C588.457 470.021 588.088 470.513 588.136 470.148C588.857 470.217 589.468 469.105 589.971 468.439C589.451 468.279 590.085 468.237 589.852 467.829C589.848 468.06 590.672 467.504 590.283 468.127L590.543 467.765C590.95 467.717 590.199 468.43 590.794 468.338C591.116 467.961 590.933 467.38 591.459 467.058C591.604 467.432 591.668 466.646 591.869 466.998C591.88 467.17 591.75 467.272 591.661 467.41L591.78 467.373C592.579 466.612 591.67 466.87 591.862 466.279C592.262 465.75 592.418 466.059 592.573 466.13C592.692 466.093 592.873 465.804 592.911 465.616C592.811 466.056 592.247 466.045 592.192 465.771C592.694 465.797 592.859 465.045 592.851 464.813C591.896 465.266 592.404 465.299 591.468 465.681C591.487 465.847 591.77 466.067 591.314 466.368C591.395 465.998 591.145 466.262 591.041 466.287C591.266 466.338 590.866 466.616 590.823 466.798C590.597 466.793 590.672 466.258 590.249 466.601L590.552 466.987C590.354 467.097 590.342 466.688 590.128 467.093C590.097 466.754 589.782 466.888 590.129 466.401C589.328 466.655 589.552 467.351 589.306 467.872C589.322 467.814 589.278 467.758 589.294 467.7C589.306 467.872 589.154 468.025 589.064 468.163C588.733 468.355 589.104 467.804 588.933 467.791L588.539 468.235C588.539 468.235 588.513 468.232 588.502 468.218C588.442 468.379 588.379 468.519 588.246 468.475C588.251 468.245 588.177 468.088 588.166 467.915L587.988 468.587C587.914 468.43 587.425 468.767 587.65 468.376L587.053 469.081L586.761 468.913C586.656 469.109 586.694 469.159 586.901 468.997C586.626 469.166 586.344 470.384 585.991 469.822C585.681 470.53 585.411 470.627 584.905 471.353C585.171 470.668 584.08 471.625 584.492 471.03C584.094 471.217 584.282 471.535 584.092 471.797C583.773 471.91 583.646 471.591 583.798 471.279L583.622 471.655L583.584 471.605L583.476 471.973C583.095 472.101 583.192 471.799 582.895 472.02L583.038 472.282L582.736 472.337C582.897 472.369 582.773 472.558 582.599 472.762L582.561 472.712L582.358 472.973C582.468 472.626 582.098 473.131 582.066 472.885C581.849 473.066 581.855 473.073 581.517 473.462L581.717 473.543C581.354 474.121 581.495 473.354 581.09 473.705L581.274 473.845C580.451 474.104 580.461 474.889 579.873 475.1C580.076 474.839 579.838 474.708 579.877 474.758C579.565 475.149 578.938 475.64 578.747 476.186C578.386 476.072 578.287 476.025 577.8 476.27C577.529 476.539 577.513 476.597 577.55 476.817C577.185 476.967 576.8 477.563 576.626 477.405C576.694 477.601 576.355 477.594 576.306 477.848L576.208 477.8L576.383 477.946C575.561 478.001 575.754 478.892 574.957 478.995L575.003 478.88L574.849 479.125C574.75 479.078 574.796 478.963 574.713 478.857L573.714 479.663L574.019 479.627C573.827 479.823 573.84 480.108 573.51 480.207C573.675 479.614 573.173 480.471 572.943 480.334L573.091 480.082C572.907 480.257 572.875 480.395 572.996 480.497C572.679 480.881 572.454 480.388 572.275 480.869L572.527 480.671C572.681 480.709 572.633 480.996 572.465 481.128C572.405 481.13 572.219 481.161 572.328 481.031C572.089 481.342 571.57 481.625 571.506 481.811C571.299 481.894 571.246 481.731 571.293 481.603C570.793 482.289 570.986 481.81 570.48 482.489L570.403 482.391L570.288 482.685L569.799 482.739L570.021 482.77C569.828 482.966 569.753 483.138 569.462 483.286L569.433 483.06C568.913 483.626 568.547 483.38 568.162 484.055C568.102 484.057 568.148 483.942 568.177 483.885C567.854 484.545 567.573 483.95 567.281 484.665C567.274 484.592 567.163 484.577 567.153 484.517L566.998 484.808L566.854 484.593L566.899 485.044L566.586 484.961L566.571 485.131C566.001 484.954 565.878 485.538 565.298 485.539L565.565 485.738C565.119 486.982 563.309 487.085 562.441 488.184L562.297 487.968L562.045 488.562C561.687 488.593 562.046 488.278 561.894 488.227C561.513 488.718 561.939 488.679 561.43 489.18C561.042 489.268 561.414 488.954 561.484 488.775C561.046 489.288 560.368 490 559.913 490.175C559.927 490.209 559.931 490.262 559.965 490.258C559.692 490.619 559.161 490.888 558.795 491.209C558.731 491.111 558.82 491.02 558.895 490.926C558.746 491.02 558.513 491.101 558.468 491.295L558.476 491.006C558.157 491.199 557.717 491.804 557.491 491.641C557.59 491.688 557.695 491.855 557.432 492.039C557.052 491.837 556.834 492.71 556.317 492.855C556.3 492.754 556.59 492.494 556.506 492.56C556.381 492.589 556.262 492.705 556.249 492.783L556.257 493.015L556.189 492.864C556.118 493.011 556.024 493.175 555.915 493.351C555.765 492.97 555.573 493.687 555.558 493.336C555.432 493.412 555.683 493.464 555.514 493.642C555.468 493.474 555.356 493.867 555.373 493.526L555.395 493.475L555.291 493.579L555.374 493.196C555.308 493.316 555.194 493.723 555.141 494.002C555.076 493.872 554.902 494.155 554.951 493.823L555.004 493.702C554.863 493.869 554.851 493.663 554.868 493.48C554.865 493.414 554.895 493.278 554.898 493.218C554.893 493.166 554.87 493.183 554.775 493.314C554.799 493.25 554.843 493.148 554.851 493.175L554.834 493.042L554.977 492.783C554.894 492.882 554.807 492.961 554.717 493.02L554.817 492.863C554.826 492.686 554.734 492.599 554.656 492.468L554.713 492.446C554.486 492.408 554.796 492.222 554.63 492.182C554.664 492.178 554.679 492.166 554.684 492.174L554.634 491.998C554.684 492.015 554.738 492.052 554.785 492.049C554.414 491.796 554.896 490.898 554.713 491.2C554.534 491.034 554.292 490.725 554.113 490.718C553.96 490.192 554.251 490.531 554.277 490.17C554.195 489.782 553.948 489.782 553.928 489.22L554.066 489.191C553.979 488.954 553.846 488.831 553.742 488.494L553.829 488.573C553.413 488.105 554.038 487.752 553.347 487.5C553.398 487.234 553.194 486.816 553.465 486.751C553.111 486.111 552.896 485.599 552.613 484.938C553.021 484.686 552.55 484.794 552.692 484.298L552.467 484.406C552.189 483.435 552.478 482.132 552.105 481.088L552.329 480.98L552.017 480.85C551.836 479.656 551.542 478.13 551.31 477.202C551.106 476.942 550.715 476.569 550.673 476.058L550.712 476.107C550.371 475.309 550.046 474.453 549.952 473.496C550.068 473.518 550.106 473.409 550.198 473.496C549.887 473.366 550.053 472.963 550.007 472.762L549.886 473.049C549.598 472.855 549.717 472.423 549.854 472.236L549.496 471.905C549.496 471.905 549.537 471.816 549.574 471.799L549.433 471.761L549.679 471.444C549.592 471.365 549.372 470.847 549.038 470.768C549.13 470.696 549.118 470.286 549.246 470.56L548.952 469.034L548.902 469.3C548.677 469.408 548.411 469.005 548.462 468.738C548.728 468.983 548.795 468.659 548.932 468.472C548.753 468.306 548.773 468.71 548.616 468.652C548.391 468.443 548.176 467.932 548.251 467.759L548.384 467.882C548.21 467.565 548.572 467.27 548.468 466.933C548.202 466.688 548.315 466.406 547.931 466.594C547.735 466.17 548.161 466.335 548.16 466.177C547.919 466.026 547.882 465.364 548.066 465.22C547.415 465.163 547.976 463.954 547.451 464.025L547.639 463.572C547.501 463.6 547.19 463.629 547.057 463.348C547.124 463.024 547.378 463.017 547.486 462.887L546.945 462.858C546.955 462.635 546.952 462.41 546.944 462.179L546.919 461.847L546.945 461.77C546.968 461.673 546.968 461.594 546.967 461.515C546.965 461.37 546.942 461.183 547.206 461.283C547.127 461.198 546.985 461.048 546.877 460.895C546.867 460.835 546.924 460.813 547.023 460.86L547.078 460.93C547.167 460.996 547.25 461.056 547.328 461.108C547.243 461.016 547.138 460.928 547.021 460.827C546.998 460.766 546.95 460.657 547 460.674C547.143 460.777 547.31 460.896 547.482 461.021C547.595 461.102 547.648 461.107 547.767 460.991C547.83 460.85 547.837 460.811 547.906 460.837C548.007 460.871 548.062 460.941 548.115 461.024C548.215 461.184 548.311 461.369 548.754 461.226C548.674 461.266 548.627 461.348 548.547 461.388C549.45 461.326 549.948 461.299 550.895 461.09C550.666 461.632 551.457 461.16 551.317 461.439L551.44 461.218C551.599 461.389 552.041 461.496 551.941 461.653L552.392 461.424L552.372 461.666C552.876 461.759 554.009 461.722 554.163 462.235C555.498 462.062 557.451 462.459 559.01 462.778C559.277 462.614 559.741 462.67 560.102 462.705L560.42 463.033C560.805 463.004 561.274 462.704 561.576 462.932C561.564 462.964 561.547 462.989 561.518 463C561.899 462.997 562.218 463.2 562.633 462.988C563.034 463.059 563.393 463.265 563.213 463.508C563.362 463.052 564.054 463.699 564.054 463.699C564.054 463.699 584.659 467.853 590.336 466.08C590.562 465.881 591.068 465.801 590.944 465.502C591.329 465.472 591.405 465.9 591.528 465.679C591.066 465.452 591.822 465.109 591.401 464.759L591.728 464.752C591.833 464.602 591.261 464.88 591.408 464.595L591.226 465.009C590.989 464.912 590.875 464.797 590.814 464.641C590.538 464.778 590.254 465.329 589.743 464.993L589.903 464.992C589.439 464.936 589.682 464.678 589.603 464.593L589.706 464.614L589.371 464.344C589.627 464.529 590.199 464.25 589.934 464.243C589.407 464.043 590.054 464.364 589.628 464.357C589.371 464.344 589.494 464.123 589.529 463.994L589.065 463.938C589.124 463.744 589.369 463.994 589.227 463.766L588.599 463.895C588.612 463.375 587.915 464.046 587.76 463.532C588.209 463.475 587.762 463.361 587.866 463.211L586.834 463.091C586.754 463.006 587.139 462.976 586.979 462.977C586.821 462.806 586.633 463.056 586.53 463.034C586.475 462.885 585.768 462.929 585.869 462.6C585.23 462.274 585.479 462.985 584.881 462.695C584.844 462.474 585.409 462.723 585.164 462.473L584.476 462.445C584.556 462.359 584.68 462.138 584.926 462.217C583.176 461.685 582.448 460.487 580.725 460.511C580.55 460.24 580.928 460.375 581.13 460.239C579.86 460.384 579.565 459.471 578.54 459.345L578.474 459.544C577.19 458.725 575.392 458.842 573.848 458.352L574.006 458.523C573.739 458.687 573.378 458.652 573.097 458.702C573.075 458.595 573.39 458.303 572.9 458.325C572.979 458.41 573.161 458.516 573.08 458.602C571.819 457.891 568.87 457.595 566.656 457.006C563.547 456.711 560.307 455.838 557.26 455.528C557.724 455.584 557.415 456.041 557.089 455.877C556.336 454.915 555.414 455.773 554.578 455.068C552.758 455.078 551.355 454.137 549.577 454.533L549.603 454.297C549.549 454.26 549.498 454.243 549.459 454.24C549.414 454.23 549.307 454.235 549.233 454.235C549.079 454.243 548.914 454.27 548.672 454.244L548.696 454.18C547.527 453.918 546.154 453.962 545.475 453.757L545.516 454.031C544.868 453.961 545.095 453.761 544.465 453.824L544.428 453.682L543.762 453.841C543.566 453.338 541.862 453.528 541.168 453.21C540.414 453.178 539.187 453.187 537.914 452.95C537.93 453.05 537.955 453.144 537.972 453.244C537.702 453.184 538.107 454.758 538.203 455.669C538.79 457.712 539.584 460.477 540.13 462.972L540.433 462.871L540.61 463.491C540.543 463.499 540.527 463.59 540.475 463.507C540.419 463.641 540.432 463.846 540.452 463.966C540.463 464.06 540.508 464.149 540.559 464.245C540.655 464.431 540.758 464.61 540.691 464.776C540.92 464.517 540.666 464.524 540.632 464.323C540.699 463.999 541.057 464.172 541.007 464.596L540.944 464.611L541.17 464.82C540.94 464.921 540.894 465.194 540.67 465.302C541.014 466.403 541.614 467.044 541.796 468.238C541.509 468.202 542.074 469.051 541.562 468.965C541.916 469.605 541.9 468.734 542.304 468.95C542.345 469.144 542.524 469.31 542.362 469.403C542.232 469.347 542.122 469.648 542.046 469.503L542.204 469.958C542.182 470.008 542.095 469.929 542.049 469.886C542.552 470.749 542.181 471.663 542.662 472.419C542.84 472.427 542.62 472.067 542.799 472.074C543.348 472.822 542.698 472.923 543.138 473.643L542.867 473.55C543.093 473.758 543.312 473.802 543.238 474.29C542.992 474.449 542.926 474.002 542.747 473.837C542.804 474.131 543.066 474.844 543.249 474.542C543.423 474.859 543.216 475.067 543.194 475.276C543.257 475.261 543.291 474.895 543.47 475.06C543.444 475.579 543.635 476.313 543.759 476.896C543.696 476.911 543.604 476.983 543.558 476.939C544.019 477.292 543.416 477.436 543.653 478.054L543.661 478.128Z" fill="#294F4A"/>
<path d="M562.679 494.024L562.45 494.157C562.483 494.2 562.52 494.262 562.459 494.389L562.671 494.03L562.679 494.024Z" fill="#294F4A"/>
<path d="M550.814 499.565C550.814 499.565 550.761 499.528 550.729 499.519C550.763 499.594 550.784 499.589 550.814 499.565Z" fill="#294F4A"/>
<path d="M549.266 495.522C549.403 495.822 549.393 495.479 549.418 495.289C549.361 495.311 549.307 495.353 549.266 495.522Z" fill="#294F4A"/>
<path d="M567.713 489.096C567.713 489.096 567.698 489.187 567.739 489.224C567.757 489.152 567.743 489.118 567.713 489.096Z" fill="#294F4A"/>
<path d="M582.53 476.553C582.53 476.553 582.481 476.569 582.447 476.573C582.473 476.575 582.502 476.564 582.53 476.553Z" fill="#294F4A"/>
<path d="M581.454 476.977C581.416 477.007 581.373 477.063 581.319 477.151C581.395 477.091 581.438 477.035 581.454 476.977Z" fill="#294F4A"/>
<path d="M564.12 492.125C564.071 492.174 564.021 492.236 564.008 492.315C564.093 492.249 564.111 492.178 564.12 492.125Z" fill="#294F4A"/>
<path d="M581.192 477.353L580.978 477.52L581.005 477.555L581.192 477.353Z" fill="#294F4A"/>
<path d="M582.806 476.338C582.722 476.404 582.612 476.5 582.538 476.547C582.691 476.506 582.769 476.433 582.806 476.338Z" fill="#294F4A"/>
<path d="M572.972 484.299C572.972 484.299 572.957 484.311 572.949 484.317C572.86 484.534 572.932 484.421 572.972 484.299Z" fill="#294F4A"/>
<path d="M580.626 478.475L580.59 478.492L580.573 478.596L580.626 478.475Z" fill="#294F4A"/>
<path d="M583.727 475.605C583.694 475.642 583.667 475.686 583.666 475.733L583.799 475.651C583.799 475.651 583.743 475.627 583.732 475.612L583.727 475.605Z" fill="#294F4A"/>
<path d="M576.312 481.955C576.305 481.836 576.284 481.762 576.256 481.727C576.187 481.781 576.174 481.859 576.312 481.955Z" fill="#294F4A"/>
</g>
<g clip-path="url(#clip2_1_27)">
<path d="M567.86 31.0901C567.86 31.0901 567.75 31.1809 567.677 31.2535C567.768 31.199 567.823 31.1446 567.86 31.0901Z" fill="#294F4A"/>
<path d="M581.335 49.4819L581.115 49.3003C581.207 49.4456 581.28 49.4819 581.335 49.4819Z" fill="#294F4A"/>
<path d="M555.245 25.008C555.245 25.008 555.264 24.9717 555.282 24.9535C555.062 24.8991 554.769 24.8446 554.312 24.7175L555.245 24.9899V25.008Z" fill="#294F4A"/>
<path d="M576.977 95.5249C576.977 95.5249 577.069 95.3616 577.124 95.2708C577.051 95.3797 576.996 95.4523 576.977 95.5249Z" fill="#294F4A"/>
<path d="M585.308 68.709C585.417 68.7998 585.454 68.945 585.491 69.0903C585.491 68.9087 585.491 68.7635 585.308 68.709Z" fill="#294F4A"/>
<path d="M547.922 18.9619L548.361 19.325C548.361 19.1798 548.196 19.0164 547.922 18.9619Z" fill="#294F4A"/>
<path d="M532.341 23.0471C532.341 23.0471 532.378 23.0834 532.415 23.1016C532.415 23.0653 532.396 23.0471 532.341 23.0471Z" fill="#294F4A"/>
<path d="M538.567 22.6114C538.676 22.5569 538.823 22.448 538.951 22.3572C538.768 22.4116 538.548 22.4661 538.567 22.6114Z" fill="#294F4A"/>
<path d="M539.152 22.2483L538.969 22.3754C539.079 22.3391 539.171 22.3209 539.152 22.2483Z" fill="#294F4A"/>
<path d="M528.973 31.4533C529.339 31.2355 529.504 30.8179 529.705 30.4185L528.973 31.4533Z" fill="#294F4A"/>
<path d="M542.631 118.474L542.686 118.329C542.686 118.329 542.613 118.438 542.631 118.474Z" fill="#294F4A"/>
<path d="M527.783 28.6392L528.076 28.5303C527.948 28.5303 527.856 28.5847 527.783 28.6392Z" fill="#294F4A"/>
<path d="M556.729 19.1437C557.278 18.9258 558.138 19.5794 558.212 19.2526C557.699 19.18 557.058 18.7443 556.729 19.1437Z" fill="#294F4A"/>
<path d="M527.782 28.6392L527.435 28.7663C527.435 28.7663 527.563 28.8207 527.618 28.8571C527.654 28.7663 527.709 28.6936 527.782 28.6392Z" fill="#294F4A"/>
<path d="M504.568 102.115L504.659 102.17L504.549 102.115H504.568Z" fill="#294F4A"/>
<path d="M503.707 99.9004L504.073 100.245C503.963 100.009 503.835 99.9367 503.707 99.9004Z" fill="#294F4A"/>
<path d="M529.705 30.4183L530.126 29.8191C529.943 29.9825 529.815 30.2004 529.705 30.4183Z" fill="#294F4A"/>
<path d="M496.164 76.9336C496.164 76.9336 496.182 77.0788 496.219 77.1515C496.219 77.0607 496.219 76.9881 496.164 76.9336Z" fill="#294F4A"/>
<path d="M585.418 66.857C585.418 66.857 585.455 66.7118 585.473 66.6392C585.4 66.6392 585.345 66.6392 585.418 66.857Z" fill="#294F4A"/>
<path d="M591.936 87.3367V87.3539H591.953L591.936 87.3367Z" fill="#294F4A"/>
<path d="M591.881 86.1384C591.698 86.4471 591.789 87.0099 591.954 87.3367C592.064 86.9918 592.1 86.6468 591.881 86.1384Z" fill="#294F4A"/>
<path d="M591.02 89.606L591.112 89.4971C591.112 89.4971 591.038 89.5697 591.02 89.606Z" fill="#294F4A"/>
<path d="M595.158 71.7046C595.158 71.7046 595.03 71.8862 594.993 72.0133C595.066 71.9406 595.121 71.8317 595.158 71.7046Z" fill="#294F4A"/>
<path d="M587.175 100.264L587.157 100.281L587.175 100.264Z" fill="#294F4A"/>
<path d="M555.08 129.767C559.438 128.169 564.454 125.028 568.318 122.759C568.775 121.669 569.929 120.87 570.954 119.89L571.631 120.544L572.419 119.6C572.986 119.527 571.778 120.271 572.693 120.053V119.327C572.986 119.545 575.202 117.548 574.085 119.345C575.293 118.347 576.52 117.366 577.618 116.277C578.387 115.587 577.527 115.315 578.497 114.697C578.863 114.734 578.351 115.115 578.644 115.278C581.555 113.299 580.035 111.23 582.342 109.142L582.269 109.432C582.397 108.869 583.038 108.089 582.946 107.998C581.957 107.744 583.001 108.742 581.994 109.16C581.427 108.597 582.379 107.98 581.866 107.653C582.525 107.272 582.433 106.654 582.763 106.146C583.788 105.583 584.356 104.131 585.326 103.822C585.399 103.241 585.052 102.333 585.601 101.389C586.553 101.026 586.004 101.861 586.791 101.044L586.48 100.663C586.974 99.9186 587.011 100.118 587.194 100.245C587.67 99.4284 587.029 99.2469 587.871 98.3572L587.944 99.1379C588.219 98.2846 588.457 98.0123 589.043 96.9229C589.262 97.0682 589.043 97.5039 588.805 97.7944C589.72 97.5039 589.043 96.6324 589.281 96.342C589.061 96.342 588.603 97.0682 588.365 96.5054C588.713 95.997 588.365 95.0892 589.043 94.9258L589.153 95.7065C589.372 94.4174 588.915 94.8532 589.665 93.6186C589.665 93.7094 589.793 93.7094 589.867 93.782C589.702 92.729 590.654 91.8212 591.148 90.5684V90.8589C591.221 90.2961 590.929 89.8785 591.075 89.6062C590.562 90.2416 590.507 89.9874 590.068 89.9148C591.148 89.2249 589.757 88.19 590.672 86.792C590.91 86.8828 591.112 87.3548 590.709 87.6998C591.276 88.4623 591.899 88.7528 591.899 89.824C591.954 89.1704 592.045 88.426 592.32 88.6802L591.698 88.2626C591.789 87.8995 591.936 87.6272 592.009 87.3548C591.624 87.0644 591.057 87.8632 591.038 86.9373C591.112 85.9387 591.917 86.6468 591.643 86.4108C591.752 85.0309 591.038 85.6664 591.606 84.4681C591.624 84.6133 591.698 84.8857 591.606 84.9764C592.119 84.1413 592.064 82.7433 592.961 82.6525C593.126 82.8341 593.382 82.9248 593.217 83.2516L593.089 83.2153C593.455 84.3773 593.126 82.3257 593.803 82.8159C593.327 82.7796 593.711 81.5087 593.913 80.9277L593.345 81.0185C592.155 78.7853 594.407 81.3271 594.517 79.33C594.352 78.0228 594.297 79.7839 594.041 78.9487C594.242 78.1317 594.792 77.8775 594.718 76.6066C594.956 76.2798 595.323 75.6081 595.927 75.5899C595.78 74.8092 596.403 73.266 595.817 72.7939C595.268 74.083 596.366 74.1556 595.451 75.6262L594.92 75.1542C595.085 74.1011 594.828 72.7395 595.066 72.0314C594.938 72.1766 594.792 72.2311 594.663 72.1403C594.517 70.6334 593.913 70.2158 594.059 68.7815C594.59 68.5818 594.517 69.4351 594.572 70.0524C594.993 69.1083 594.572 69.072 594.737 67.6195C595.194 67.5288 594.737 68.5999 595.194 68.7634C595.14 68.2187 595.085 67.674 595.011 67.1475C595.048 67.1475 595.066 67.1475 595.103 67.1475C594.297 66.9478 595.085 65.9129 594.773 64.9325C594.554 62.5904 593.4 62.3907 592.65 61.2287C592.796 60.8656 592.979 60.7385 593.199 60.8474C592.961 61.4647 593.199 61.3195 593.437 61.4829C593.254 60.7385 593.895 59.6673 594.297 60.0486C593.84 58.8503 593.968 60.5569 593.602 59.8489L593.327 58.1604C592.979 58.4509 592.997 59.0319 592.54 58.2512C592.283 57.5612 592.247 57.1981 592.064 56.2722C592.283 56.363 592.576 55.8365 592.723 56.5445C592.759 56.0543 592.595 55.3281 592.155 55.1647C592.082 56.2722 591.35 53.6033 590.965 54.5292L591.002 53.4217C591.057 53.6578 591.331 53.6033 591.35 53.9664C591.844 53.5125 590.929 53.1857 590.764 52.8589C590.764 52.4595 590.526 51.5517 590.709 51.4064C590.434 51.1523 590.288 50.3534 590.526 50.0992C590.233 49.6816 590.141 50.2082 589.903 50.1355C589.72 49.609 589.555 49.0825 589.336 48.556C589.61 48.3563 590.416 47.8661 590.636 48.0476C590.086 47.5756 589.629 48.211 589.281 47.3214C590.105 47.5756 589.226 45.9416 590.251 46.3773C590.489 45.6511 589.72 44.1986 589.171 43.4905C588.457 43.2364 589.336 44.4891 588.841 44.6707C587.578 42.5283 586.15 43.1456 585.509 41.4752L585.619 41.9473C584.814 41.1484 584.923 41.2211 584.191 40.9124C584.905 40.8398 585.015 38.8971 583.807 37.4628C583.44 37.5354 583.898 38.6611 583.294 38.7156L582.488 37.8078C582.488 37.6988 582.653 37.7533 582.8 37.8078C581.957 37.0816 582.269 35.6654 581.463 35.9014V35.0481C581.115 35.1389 580.236 34.2674 579.98 34.1585C578.9 33.4504 578.753 32.9784 578.589 32.1795C578.552 32.5245 578.479 33.3233 577.728 32.706C578.515 31.9616 576.556 30.9812 576.941 30.6181C576.63 30.3639 576.337 29.6377 576.007 29.9282L576.502 29.4924C575.824 30.0916 574.762 29.1112 573.773 28.5665C574.744 27.7495 572.785 27.8584 573.023 26.6783C572.345 27.2411 571.174 25.8068 570.606 26.297C569.874 25.8431 570.35 25.2621 570.313 24.899L569.801 24.9535C569.618 24.4088 568.263 23.4647 567.475 22.8293L566.322 23.0834L566.175 22.6295C565.956 22.7385 565.242 22.5025 565.535 22.9563L565.114 22.7022C564.729 23.4284 564.4 22.6477 563.356 22.5932C563.191 22.3935 563.319 22.2301 563.557 22.212C563.118 22.0122 563.466 21.7036 563.319 21.3586C563.539 21.6854 561.177 22.0667 562.239 22.9019C562.202 23.2287 561.434 23.1924 561.049 22.92V22.1393L560.243 22.7022C559.53 22.5932 559.383 22.0122 558.834 21.7762C559.42 21.9033 560.555 20.814 559.017 20.3782C559.859 20.4872 560.372 20.2693 560.848 20.2693C560.536 20.1422 560.39 20.0151 560.994 19.888C559.713 19.7065 560.463 20.1604 559.218 19.888C559.475 19.2707 559.182 18.9802 558.156 18.49L558.834 19.1618C558.834 19.1618 558.706 19.2707 558.632 19.2889C558.925 19.4341 558.98 19.5612 558.962 19.8154C558.724 19.7428 557.351 20.233 557.259 19.8154C557.735 20.469 557.168 20.5235 556.563 20.5235C555.959 20.5235 555.3 20.5235 555.63 20.8866C555.447 21.05 554.623 20.9229 554.604 20.5961C555.703 20.3056 553.982 19.7246 554.22 19.307C553.817 19.416 554.934 19.9425 554.385 20.0877C553.781 20.0151 553.414 19.5431 553.085 19.307L553.359 19.2163L552.444 18.8168C552.243 19.1255 553.286 19.4704 552.389 19.5431C552.169 19.3797 551.291 19.4523 551.346 19.1981C551.803 18.7987 551.565 18.1632 552.353 18.1451C551.712 18.0906 549.698 17.9817 550.467 18.6716L549.716 18.6171C550.174 18.9076 551.419 19.4886 549.936 19.4886V19.3615L548.911 19.8154L548.49 19.4523C548.49 19.6157 548.325 19.7609 547.959 19.7428C547.867 19.5431 547.519 19.4523 547.537 19.18C546.439 19.2344 546.53 19.5612 546.384 19.7609C545.78 19.8154 545.542 19.6883 545.816 19.2889C544.956 19.18 543.51 19.3978 542.887 19.1073C541.789 19.5068 543.125 19.2163 542.521 19.7246C541.972 19.18 541.02 19.1981 539.976 19.4341C538.933 19.6338 537.852 20.0877 536.973 20.3964C537.706 21.2497 536.497 20.6324 536.424 21.5765C536.735 21.1589 534.538 21.286 536.021 20.5961C535.71 20.705 535.399 20.8503 535.106 20.9774C534.282 20.6506 536.571 20.1059 535.362 19.6702C534.264 20.0514 533.916 21.3042 532.543 21.395C532.708 20.5598 531.682 21.9941 531.701 21.1408C531.865 20.7958 532.231 20.7232 532.579 20.5416L532.305 20.4872C529.888 21.2497 531.939 21.5402 530.932 22.4661C529.595 23.1016 529.632 22.4298 529.394 22.1575C529.119 22.1393 528.478 22.5751 528.204 22.92C528.845 22.1212 529.925 22.5569 529.742 23.1561C528.808 22.7203 527.728 24.082 527.545 24.5359C529.815 24.3725 528.863 23.8823 531.005 23.9004C531.151 23.5736 530.822 22.92 532.012 22.7566C531.463 23.3739 532.213 23.1198 532.451 23.1379C532.085 22.8474 533.129 22.6477 533.403 22.3935C533.824 22.6114 533.074 23.501 534.227 23.3195L534.117 22.3209C534.612 22.3209 534.154 23.0653 535.014 22.5388C534.685 23.1924 535.399 23.2468 534.227 23.7915C535.93 24.1183 536.296 22.6295 537.413 22.0122C537.303 22.103 537.321 22.2301 537.23 22.3209C537.413 22.0123 537.871 21.9215 538.218 21.7762C539.042 21.8125 537.706 22.3572 537.962 22.5751C538.365 22.4661 538.786 22.3572 539.189 22.2664C539.225 22.3027 539.225 22.3027 539.225 22.3209C539.537 22.1393 539.83 21.9941 539.994 22.212C539.683 22.5751 539.592 22.92 539.409 23.2105L540.58 22.3209C540.489 22.6659 541.734 22.7022 540.855 23.0834C541.477 22.9382 542.1 22.7748 542.741 22.684L542.979 23.3376C543.418 23.1742 543.418 23.0471 542.869 23.0108C543.51 23.0834 545.707 21.631 545.414 22.9745C546.897 22.3935 547.446 22.5751 549.295 22.3572C547.867 22.9019 550.851 23.2105 549.35 23.4102C550.174 23.737 550.412 23.0471 551.108 23.029C551.712 23.3921 551.346 23.9912 550.65 24.1546L551.474 23.9549L551.437 24.082L552.17 23.7915C552.847 24.2273 552.224 24.4451 552.957 24.663L553.213 24.1183L553.652 24.5541C553.506 24.2454 553.964 24.2273 554.531 24.2817L554.495 24.4088H555.172C554.44 24.6448 555.74 24.663 555.355 25.0079C555.904 25.1714 555.904 25.1714 556.93 25.3348L556.856 24.899C558.248 24.899 556.747 25.48 557.79 25.7886L557.863 25.3348C559.09 26.5693 560.536 25.716 561.434 26.6601C560.774 26.5149 560.738 27.0777 560.793 26.9506C561.763 27.1685 563.191 27.8766 564.345 27.8766C564.363 28.6391 564.381 28.8388 565.132 29.6014C565.791 29.9463 565.919 29.9463 566.34 29.7285C566.853 30.2913 568.208 30.727 567.951 31.1628C568.318 30.9449 568.446 31.5985 568.958 31.5622L568.903 31.7801L569.123 31.3625C569.563 32.9057 571.229 32.2521 571.686 33.7591L571.43 33.7046C571.613 33.7772 571.778 33.8498 571.961 33.9406C571.888 34.1585 571.65 34.0859 571.448 34.2674L573.243 36.0285C573.206 35.8288 573.169 35.6291 573.133 35.4294C573.572 35.738 574.121 35.7199 574.341 36.3553C573.133 36.1011 574.909 36.9908 574.634 37.4628L574.121 37.1905C574.487 37.5294 574.768 37.5778 574.964 37.3357C575.751 37.9349 574.726 38.4069 575.696 38.7519L575.311 38.2617C575.385 37.9349 575.971 38.0438 576.245 38.3706C576.245 38.4977 576.3 38.8608 576.044 38.6429C576.685 39.0968 577.215 40.1499 577.545 40.3133C577.673 40.7309 577.325 40.8216 577.106 40.7127C578.387 41.7839 577.49 41.33 578.735 42.4375L578.497 42.5646L579.065 42.8551L579.028 43.8173L579.156 43.3998C579.486 43.8173 579.852 43.9807 580.017 44.6162H579.559C580.474 45.7963 579.889 46.3955 581.005 47.394C580.987 47.5211 580.767 47.3759 580.676 47.3032C581.811 48.211 580.493 48.4834 581.756 49.3367C581.609 49.3185 581.518 49.5182 581.39 49.5182L581.866 49.954L581.371 50.1355L582.287 50.2626L581.939 50.8073L582.269 50.9162C581.609 51.8785 582.635 52.4232 582.214 53.5125L582.8 53.1494C584.923 54.7834 583.623 58.1422 584.759 60.5388L584.228 60.5933L585.033 61.5374C584.722 62.1728 584.521 61.265 584.283 61.501C584.777 62.5904 585.18 61.8278 585.491 63.1714C585.235 63.9158 585.07 62.9898 584.85 62.6993C585.29 63.8976 585.802 65.7495 585.546 66.6754C585.619 66.6754 585.711 66.7481 585.747 66.6754C586.077 67.5106 585.839 68.6363 585.894 69.5804C585.656 69.5622 585.601 69.3262 585.546 69.1083C585.528 69.4351 585.363 69.889 585.619 70.1795L585.161 69.8345C585.125 70.5426 585.418 71.9225 584.887 72.0495C585.088 71.9769 585.491 72.0314 585.436 72.6487C584.649 72.9392 585.637 74.3553 585.106 75.2994C584.923 75.1542 584.96 74.4461 584.923 74.6458C584.667 75.1179 585.015 75.5899 585.198 76.062L584.887 75.8986L584.978 78.2588C584.154 78.4585 584.667 80.4194 584.118 80.1652C583.916 80.964 584.612 79.566 584.484 80.6009C584.099 80.8006 584.447 81.5632 583.935 81.3998L583.898 81.2727L583.752 81.9808L583.367 81.4179C583.312 82.0352 583.697 82.6162 584.081 82.7433C583.66 83.2516 583.66 84.1413 583.111 84.2684L583.056 84.0142C582.745 85.6845 580.877 86.1747 581.225 87.6817C581.115 87.7543 581.005 87.6817 581.079 87.5001L580.694 88.4442L580.42 88.0811C580.42 88.6802 580.346 89.2612 580.31 89.8604L580.072 89.7333C579.559 90.7137 578.9 92.3295 578.314 93.6367V93.4007C577.893 94.9621 577.362 94.599 577.032 95.7247C576.996 95.652 576.996 95.6157 576.996 95.5613L576.465 96.4327L576.373 96.1059C576.446 97.05 574.597 97.5402 575.257 97.395C575.22 97.8852 575.055 98.6477 575.257 98.9382C574.634 99.8823 574.817 98.9745 574.249 99.4103C573.755 100.046 574.011 100.427 573.169 101.153L572.968 100.972C572.693 101.407 572.657 101.789 572.217 102.333L572.254 102.097C571.906 103.332 570.734 102.696 570.991 104.131C570.496 104.33 569.965 105.111 569.618 104.73C568.885 106.019 568.153 106.872 567.219 107.998C566.468 107.49 567.018 108.234 566.029 108.415L566.377 108.724C565.626 109.414 564.583 109.868 563.521 110.304C562.495 110.776 561.397 111.157 560.518 111.829L560.225 111.466L560.115 112.137C557.955 113.172 555.135 114.371 553.378 115.024C552.902 115.46 552.224 116.386 551.217 116.513L551.291 116.422C550.503 116.803 549.698 117.203 548.837 117.512C547.959 117.784 547.061 117.984 546.109 118.093C546.183 117.875 545.963 117.784 546.146 117.602C545.816 118.202 545.066 117.82 544.681 117.893L545.212 118.147C544.773 118.674 543.931 118.401 543.619 118.111C543.363 118.329 543.125 118.547 542.869 118.728C542.814 118.692 542.704 118.619 542.686 118.547L542.576 118.801L542.063 118.238C541.88 118.383 540.8 118.655 540.489 119.291C540.397 119.109 539.592 118.964 540.196 118.837C539.171 118.801 538.145 118.837 537.138 118.783C537.303 118.855 537.45 118.928 537.614 119C537.688 119.472 536.754 119.745 536.278 119.527C536.918 119.164 536.333 118.873 536.076 118.528C535.655 118.764 536.424 118.946 536.204 119.2C535.674 119.491 534.538 119.654 534.282 119.4C534.392 119.345 534.502 119.291 534.612 119.236C533.879 119.364 533.623 118.51 532.927 118.492C532.268 118.801 531.847 118.419 531.884 119.218C530.95 119.273 531.609 118.637 531.334 118.528C530.858 118.837 529.65 118.383 529.577 117.965C528.845 119.073 527.325 117.021 526.922 117.965L526.354 117.257C526.263 117.493 525.952 118.056 525.347 117.965C524.89 117.512 525.164 117.13 525.073 116.822L524.414 117.639C523.718 117.148 522.931 116.731 522.144 116.277C521.338 115.841 520.477 115.478 519.654 114.988C517.969 114.098 516.303 113.045 515.095 111.684C513.685 110.975 511.818 110.068 510.499 108.724L510.737 108.779L509.584 107.308L510.243 108.561C509.877 108.361 509.511 108.288 509.236 107.998C507.991 106.309 506.636 103.949 504.696 102.261C502.846 101.571 504.897 100.808 503.341 99.9913C503.506 100.046 503.67 99.9913 503.835 100.028C502.608 98.8293 501.986 98.1575 500.576 96.9774C501.656 96.6324 500.064 95.997 500.649 95.8699L500.173 95.9425C500.247 95.4886 499.935 94.6535 500.302 94.6353C500.009 94.5082 499.752 94.3448 499.478 94.1996L499.88 93.9454C499.533 93.0376 498.343 91.222 499.13 90.405C497.574 88.4079 496.914 84.577 496.786 81.5995C496.365 81.2182 496.219 80.3467 496.146 79.675L496.695 78.9669C496.512 78.3314 495.798 77.6052 496.146 77.0061C496.219 77.0061 496.255 77.0424 496.292 77.0787C496.2 76.3888 496.585 75.7896 496.127 75.0997C496.2 74.3553 496.585 73.6836 497.079 73.9741C496.182 73.7743 497.5 72.4671 497.5 72.4671C497.5 72.4671 497.958 70.1613 499.496 66.7299C500.997 63.2803 503.725 58.7232 507.424 54.2024C511.085 49.6635 515.681 45.2153 519.764 41.33C523.883 37.481 527.435 34.104 529.101 31.5804C529.156 30.9994 529.87 30.1824 529.247 29.9463C529.833 29.3654 530.566 29.8374 530.456 29.3654C529.375 29.7103 530.108 28.1852 528.899 28.2942L529.412 27.8221C529.357 27.4771 528.826 28.6391 528.643 28.0581L528.936 28.8752C528.405 29.0749 528.039 29.093 527.728 28.9478C527.471 29.5106 527.819 30.6544 526.501 30.9086L526.757 30.6726C525.915 31.2536 525.933 30.5636 525.677 30.5636L525.879 30.4547L524.908 30.5636C525.622 30.4365 526.135 29.2927 525.695 29.6377C524.542 30.1097 526.08 29.6377 525.366 30.2187C524.908 30.5636 524.798 30.1097 524.67 29.8737C524.396 30.0734 524.121 30.2731 523.846 30.4729C523.645 30.1279 524.414 30.1097 523.846 30.0008L523.022 31.0902C522.253 30.4184 522.162 32.2884 521.118 31.8709C521.741 31.1446 520.862 31.653 520.789 31.308C520.185 31.7619 519.544 32.1977 518.958 32.6879C518.702 32.706 519.251 32.0706 519.013 32.3247C518.5 32.3611 518.592 32.942 518.409 33.0873C518.079 32.9965 517.054 34.1403 516.706 33.5775C515.186 34.1766 516.706 34.6305 515.314 35.2115C514.912 35.0118 516.175 34.4308 515.406 34.5034C515.04 34.8484 514.674 35.1934 514.308 35.5565C514.308 35.3204 514.124 34.8666 514.619 34.5761C512.861 35.6654 511.232 36.1738 509.676 36.7729C508.174 37.4265 506.764 38.1709 505.538 39.6415C504.805 39.6778 505.593 39.1513 505.666 38.6611C504.091 41.0395 502.096 40.6764 500.466 42.4738L500.723 42.7643C497.537 44.4528 495.395 48.0476 492.813 51.0433L493.308 50.8073C493.308 51.4609 492.868 52.2053 492.649 52.8226C492.429 52.8226 492.173 51.9693 491.715 53.0405C491.953 52.9134 492.337 52.5866 492.429 52.8044C491.147 53.9846 489.518 56.1088 488.181 58.7777C486.753 61.3921 485.582 64.4967 484.593 67.2746C483.677 71.0873 482.89 75.245 483 79.4753C483.092 83.5966 483.531 87.609 484.739 91.2765C484.41 90.1508 485.49 90.3869 485.49 91.2765C484.959 92.6563 485.435 93.6186 485.874 94.5627C486.332 95.5249 486.863 96.4146 486.845 97.7399C487.907 99.7008 488.694 101.643 489.518 103.55C490.452 105.383 491.44 107.199 493.179 108.488L492.832 108.815C493.015 109.45 493.381 109.396 493.784 109.904L493.674 109.977C494.479 111.302 496.017 112.446 496.402 113.263L496.841 112.973C497.482 113.608 496.841 113.59 497.702 114.08L497.482 114.243L498.58 114.697C498.214 114.97 498.617 115.46 499.166 115.968C499.734 116.458 500.43 116.967 500.558 117.366C501.492 118.093 503.469 119.236 504.732 120.489C504.659 121.107 506.49 122.359 507.515 123.376C508.687 124.102 510.188 124.901 511.744 125.754C513.356 126.535 515.003 127.425 516.633 128.133L516.798 127.552L517.658 127.86C517.603 127.969 517.695 128.096 517.53 128.096C517.933 129.022 519.599 128.659 520.166 129.277C519.892 128.623 519.58 129.004 519.086 128.823C518.464 128.314 519.342 128.006 520.203 128.587L520.148 128.696L520.899 128.605C520.825 129.077 521.356 129.476 521.301 129.93C524.286 130.693 526.446 130.33 529.467 131.02C529.083 131.528 531.701 131.128 530.968 131.964C532.872 131.8 530.73 131.219 531.646 130.656C532.158 130.711 532.708 130.529 532.781 130.856C532.524 131.056 533.165 131.437 532.726 131.492C533.147 131.492 533.55 131.528 533.971 131.51C534.081 131.582 533.806 131.691 533.66 131.764C534.941 131.546 536.04 131.709 537.138 131.873C538.218 132.018 539.299 132.091 540.415 131.782C540.562 131.455 539.518 131.728 539.665 131.401C541.88 130.656 541.715 131.837 543.784 131.165L543.4 131.655C544.041 131.256 544.297 130.874 545.45 131.056C545.725 131.564 544.571 131.637 544.059 131.927C544.846 131.891 546.768 131.383 546.091 131.02C546.97 130.693 547.391 131.092 547.904 131.147C547.904 131.02 546.988 130.947 547.464 130.62C548.764 130.729 550.65 130.203 552.151 129.876C552.17 130.003 552.334 130.166 552.224 130.257C553.231 129.258 553.433 130.402 555.026 129.749L555.08 129.767Z" fill="#294F4A"/>
<path d="M595.103 66.512L595.066 67.1111C595.176 67.1111 595.323 67.1111 595.469 67.4016L595.103 66.512Z" fill="#294F4A"/>
<path d="M589.812 93.782C589.812 93.782 589.812 93.9454 589.866 94.0362C589.903 93.8909 589.866 93.8365 589.812 93.782Z" fill="#294F4A"/>
<path d="M587.615 100.3C587.761 99.8098 587.413 100.137 587.175 100.264C587.267 100.318 587.377 100.373 587.615 100.3Z" fill="#294F4A"/>
<path d="M590.599 51.37C590.599 51.37 590.764 51.479 590.874 51.4245C590.727 51.3337 590.654 51.3156 590.599 51.37Z" fill="#294F4A"/>
<path d="M561.47 20.5054C561.47 20.5054 561.562 20.578 561.617 20.6325C561.617 20.578 561.544 20.5417 561.47 20.5054Z" fill="#294F4A"/>
<path d="M563.448 22.1575C563.558 22.2119 563.704 22.2483 563.942 22.2846C563.759 22.1756 563.594 22.1575 563.448 22.1575Z" fill="#294F4A"/>
<path d="M593.345 61.4465C593.382 61.6099 593.437 61.7551 593.565 61.864C593.528 61.628 593.437 61.5009 593.345 61.4465Z" fill="#294F4A"/>
<path d="M564.455 22.3572L565.004 22.6477L565.059 22.5569L564.455 22.3572Z" fill="#294F4A"/>
<path d="M560.738 20.1968C560.957 20.2876 561.269 20.3965 561.47 20.5054C561.232 20.2694 560.994 20.1968 560.738 20.1968Z" fill="#294F4A"/>
<path d="M582.708 37.7351C582.708 37.7351 582.745 37.7714 582.763 37.7714C583.221 38.0075 582.983 37.8259 582.708 37.7351Z" fill="#294F4A"/>
<path d="M567.292 22.7021L567.366 22.7566L567.604 22.7021H567.292Z" fill="#294F4A"/>
<path d="M558.211 19.2524C558.321 19.2524 558.431 19.2706 558.541 19.2524L558.211 19.1072C558.211 19.1072 558.211 19.2343 558.211 19.2706V19.2524Z" fill="#294F4A"/>
<path d="M577.325 30.3821C577.069 30.4003 576.922 30.4547 576.849 30.5273C576.996 30.6544 577.16 30.6726 577.325 30.3821Z" fill="#294F4A"/>
<path d="M559.84 70.0342C559.84 70.0342 559.712 70.0705 559.602 70.1068C559.694 70.0887 559.767 70.0705 559.84 70.0342Z" fill="#294F4A"/>
<path d="M559.31 79.2211L559.218 79.094C559.218 79.094 559.255 79.2029 559.31 79.2211Z" fill="#294F4A"/>
<path d="M557.241 64.8054L557.296 64.7691L557.04 64.4241L557.241 64.7872V64.8054Z" fill="#294F4A"/>
<path d="M546.713 91.5851L546.823 91.5488C546.823 91.5488 546.732 91.5488 546.713 91.5851Z" fill="#294F4A"/>
<path d="M555.941 86.0479C555.941 86.0479 555.996 86.1931 555.996 86.2657C556.051 86.2113 556.069 86.1568 555.941 86.0479Z" fill="#294F4A"/>
<path d="M558.083 58.5962L558.046 59.0138C558.138 58.8867 558.174 58.7233 558.083 58.5962Z" fill="#294F4A"/>
<path d="M552.773 58.6508C552.773 58.6508 552.92 58.6145 553.011 58.5963C552.938 58.5782 552.828 58.5237 552.773 58.6508Z" fill="#294F4A"/>
<path d="M553.139 58.5598L553.011 58.5961C553.011 58.5961 553.103 58.5961 553.139 58.5598Z" fill="#294F4A"/>
<path d="M546.622 61.61C546.805 61.6463 546.988 61.3921 547.171 61.1924L546.622 61.61Z" fill="#294F4A"/>
<path d="M530.968 90.1146L531.06 90.0056C531.06 90.0056 530.987 90.0783 530.968 90.1146Z" fill="#294F4A"/>
<path d="M547.153 58.6326L547.281 58.7234C547.281 58.7234 547.189 58.6326 547.153 58.6326Z" fill="#294F4A"/>
<path d="M561.818 60.7932C562.239 60.7387 562.239 61.3742 562.495 61.1563C562.294 60.9929 562.239 60.5572 561.818 60.7932Z" fill="#294F4A"/>
<path d="M519.836 97.9397L519.69 97.8489C519.69 97.8489 519.781 97.9397 519.836 97.9397Z" fill="#294F4A"/>
<path d="M547.153 58.6324L547.006 58.5417L547.043 58.7232C547.043 58.7232 547.116 58.6506 547.153 58.6506V58.6324Z" fill="#294F4A"/>
<path d="M522.875 77.0425L522.929 77.0782L522.875 77.0425Z" fill="#294F4A"/>
<path d="M523.425 76.2073L523.535 76.3889C523.571 76.2981 523.516 76.2436 523.425 76.2073Z" fill="#294F4A"/>
<path d="M547.171 61.1924L547.501 60.9563C547.391 60.9927 547.281 61.0834 547.171 61.1924Z" fill="#294F4A"/>
<path d="M525.494 68.1643C525.494 68.1643 525.494 68.2188 525.494 68.237C525.512 68.2188 525.512 68.1825 525.494 68.1643Z" fill="#294F4A"/>
<path d="M556.49 85.5755C556.49 85.5755 556.563 85.5574 556.6 85.5392C556.545 85.4847 556.49 85.4666 556.49 85.5755Z" fill="#294F4A"/>
<path d="M557.021 97.3042C556.838 97.3406 556.765 97.6855 556.801 97.9578C556.948 97.8671 557.039 97.7037 557.021 97.3042Z" fill="#294F4A"/>
<path d="M564.363 91.0406L564.326 91.0225L564.363 91.0406Z" fill="#294F4A"/>
<path d="M563.044 92.9468C563.044 92.9468 562.898 92.9468 562.825 92.9831C562.898 92.9831 562.971 92.9831 563.044 92.9468Z" fill="#294F4A"/>
<path d="M529.101 104.457C531.389 105.093 534.447 105.093 536.662 105.511C537.229 104.857 537.925 104.93 538.658 104.784L538.694 105.71L539.317 105.438C539.555 105.728 538.841 105.583 539.28 105.964L539.518 105.402C539.555 105.765 541.093 105.619 540.049 106.291C540.855 106.273 541.678 106.291 542.466 106.219C542.997 106.219 542.704 105.42 543.308 105.601C543.454 105.855 543.125 105.801 543.198 106.128C545.066 106.618 544.956 104.113 546.548 104.24L546.439 104.385C546.658 104.094 547.153 104.004 547.116 103.877C546.713 103.005 546.951 104.439 546.365 104.004C546.237 103.223 546.841 103.459 546.677 102.878C547.079 103.078 547.189 102.587 547.464 102.479C548.105 102.842 548.727 102.261 549.295 102.751C549.478 102.442 549.496 101.607 549.99 101.407C550.576 101.861 550.1 101.988 550.686 102.025L550.613 101.571C551.052 101.48 551.034 101.625 551.089 101.825C551.547 101.662 551.217 101.099 551.876 101.135L551.748 101.662C552.096 101.335 552.279 101.353 552.865 101.117C552.956 101.353 552.737 101.444 552.535 101.462C553.121 101.934 552.938 100.953 553.121 100.935C552.993 100.772 552.572 100.881 552.554 100.372C552.865 100.318 552.847 99.5555 553.286 99.9368L553.194 100.463C553.597 99.8823 553.231 99.8097 553.945 99.6281C553.945 99.6826 554 99.7734 554.037 99.8641C554.165 99.1379 554.934 99.3376 555.52 99.0108L555.483 99.1742C555.63 98.9019 555.538 98.4843 555.684 98.4298C555.227 98.4117 555.245 98.2301 554.97 97.8852C555.794 98.2664 555.117 96.7595 556.014 96.705C556.16 96.9229 556.179 97.286 555.849 97.1952C556.051 97.9759 556.398 98.5751 556.16 99.1379C556.344 98.8293 556.582 98.5206 556.691 98.8293L556.362 98.1757C556.508 98.0486 556.655 98.0123 556.765 97.9215C556.563 97.5039 556.032 97.522 556.215 97.0318C556.472 96.5779 556.856 97.4857 556.728 97.1771C557.094 96.5598 556.49 96.3964 557.131 96.2148C557.131 96.3056 557.094 96.469 557.003 96.4509C557.534 96.3964 557.808 95.6883 558.449 96.2511C558.522 96.4509 558.687 96.6506 558.486 96.705L558.412 96.5961C558.412 97.4131 558.632 96.1967 559.017 96.8866C558.687 96.5598 559.273 96.1967 559.548 96.0696L559.126 95.7246C558.797 93.9091 559.804 96.5598 560.39 95.7246C560.609 95.0347 560.115 95.7791 560.133 95.2526C560.5 95.0166 560.957 95.2526 561.232 94.6353C561.507 94.6534 561.964 94.5808 562.422 94.9621C562.513 94.5263 563.429 94.2358 563.136 93.6912C562.33 93.8909 563.173 94.6171 562.056 94.6897L561.781 94.1451C562.184 93.782 562.367 93.0739 562.77 92.9286C562.642 92.9286 562.495 92.8379 562.422 92.7289C562.733 92.0208 562.367 91.4943 562.935 91.0223C563.429 91.2583 563.099 91.5488 562.953 91.8211C563.575 91.694 563.282 91.458 563.832 90.9497C564.253 91.1857 563.52 91.3309 563.85 91.6577C563.978 91.4036 564.088 91.1675 564.198 90.8952L564.271 90.9497C563.685 90.4231 564.656 90.4595 564.729 89.9148C565.315 88.8981 564.491 88.2445 564.198 87.4274C564.454 87.373 564.656 87.4274 564.802 87.5727C564.363 87.6635 564.637 87.7361 564.784 87.9176C564.875 87.5545 565.846 87.5001 566.029 87.8269C566.102 87.1733 565.553 87.845 565.498 87.4093C565.626 87.1551 565.772 86.9191 565.901 86.6649C565.498 86.5923 565.296 86.8283 565.187 86.3199C565.223 85.9568 565.37 85.8297 565.571 85.394C565.736 85.5211 566.193 85.4666 566.029 85.7934C566.267 85.63 566.413 85.3032 566.084 85.0309C565.571 85.394 566.029 84.1231 565.315 84.2865L565.827 83.9234C565.791 84.0323 566.029 84.1231 565.901 84.2683C566.523 84.3228 565.882 83.8145 565.864 83.6329C566.029 83.4876 566.212 83.0701 566.432 83.0882C566.322 82.8885 566.541 82.5435 566.871 82.5435C566.816 82.2712 566.486 82.4346 566.322 82.3075L566.541 81.5268C566.871 81.5631 567.805 81.6721 567.896 81.8355C567.658 81.4542 566.944 81.5268 567.091 81.0729C567.676 81.4724 567.695 80.5283 568.391 81.0729C568.903 80.8732 569.031 80.0562 568.903 79.5842C568.427 79.2392 568.555 80.0381 568.024 79.9291C567.988 78.6764 566.541 78.4948 566.853 77.6596L566.688 77.8775C566.413 77.3328 566.468 77.3873 566.029 77.0787C566.67 77.2602 567.823 76.5158 567.658 75.5899C567.329 75.5354 567.036 76.1164 566.523 75.9712L566.413 75.3902C566.413 75.3902 566.578 75.3902 566.67 75.481C566.432 74.9908 567.457 74.4461 566.67 74.3553L567.585 73.7199L567.2 73.974C566.871 73.9377 566.724 73.3567 566.56 73.2478C566.12 72.7031 566.358 72.4671 566.724 72.0495C566.468 72.2129 565.919 72.5579 565.736 72.1221C566.779 71.9224 565.919 71.0873 566.45 70.9783C566.395 70.7968 566.633 70.3792 566.193 70.47L566.834 70.3429C565.919 70.5244 565.772 69.8527 565.461 69.3806C566.688 69.1083 565.168 68.8541 566.157 68.255C565.333 68.4547 565.498 67.4561 564.784 67.6558C564.582 67.2927 565.315 67.0204 565.516 66.8025L565.15 66.748C565.443 66.3849 565.113 65.6405 565.132 65.0777L564.271 65.0414L564.491 64.7327C564.289 64.7691 563.996 64.5149 563.887 64.8417L563.795 64.6238C563.081 65.0414 563.429 64.4604 562.898 64.2607C562.953 64.0973 563.136 64.0065 563.282 64.0428C563.173 63.8431 563.575 63.6979 563.722 63.4437C563.63 63.6797 562.019 63.5889 562.074 64.297C561.818 64.5149 561.415 64.3878 561.415 64.1155L561.928 63.5708L561.159 63.825C560.884 63.6252 561.159 63.2258 561.049 62.9716C561.25 63.1532 562.587 62.6085 562.074 62.0094C562.404 62.2636 562.861 62.1728 563.118 62.2454C563.044 62.1002 563.044 61.9912 563.447 62.0094C562.88 61.6463 562.953 62.1183 562.495 61.7007C563.026 61.3195 563.081 61.0471 562.898 60.4661L562.788 61.1016C562.788 61.1016 562.66 61.1561 562.605 61.1561C562.642 61.3195 562.605 61.4102 562.422 61.61C562.349 61.501 561.36 61.61 561.58 61.265C561.195 62.3725 560.28 61.0471 560.078 61.7371C559.895 61.8278 559.602 61.5555 559.804 61.3013C560.5 61.3013 560.097 60.5206 560.463 60.2483C560.207 60.2483 560.39 60.8656 560.042 60.8656C559.804 60.7022 559.932 60.2664 559.95 59.9941H560.133L560.005 59.4676C559.731 59.6491 559.95 60.1757 559.529 60.0123C559.529 59.8307 559.126 59.6854 559.31 59.4857C559.767 59.286 560.06 58.7414 560.408 58.9048C560.152 58.705 559.346 58.1422 559.255 58.8684L558.998 58.6143C558.998 58.9774 559.145 59.7399 558.541 59.3586L558.632 59.2679L557.936 59.3405L557.991 58.9411C557.9 59.0863 557.735 59.1408 557.607 59.0318C557.698 58.8503 557.607 58.6869 557.772 58.4872C557.314 58.1967 557.167 58.4872 557.003 58.6143C556.746 58.4872 556.728 58.3056 557.058 58.0696C556.783 57.7428 556.124 57.4704 556.069 57.0166C555.446 56.9802 556.087 57.1981 555.593 57.416C555.776 56.1814 554.22 56.1451 553.341 55.9454C553.158 56.9621 553.066 55.9454 552.572 56.7261C552.883 56.5082 552.096 55.7093 552.92 55.7275L552.426 55.6549C552.316 55.0194 553.341 55.5459 553.14 54.6745C552.59 54.5111 551.876 55.4007 551.4 54.856C551.821 54.2387 550.851 54.9468 551.235 54.2387C551.437 54.039 551.602 54.1661 551.803 54.1661L551.73 54.0027C550.576 53.458 551.144 54.7108 550.412 55.0013C549.698 54.8923 549.99 54.3295 550.027 53.9845C549.936 53.8211 549.551 53.8575 549.313 53.9845C549.862 53.6577 550.045 54.5837 549.734 54.9831C549.606 54.1298 548.691 54.7108 548.471 54.9831C549.276 56.018 549.167 55.1465 549.844 56.254C550.027 56.0361 550.192 55.3281 550.65 55.782C550.21 56.0361 550.558 56.1814 550.613 56.3085C550.613 55.8727 551.034 56.2359 551.235 56.1269C551.272 56.49 550.631 56.9439 551.089 57.2707L551.51 56.3811C551.657 56.599 551.181 57.0347 551.693 56.9621C551.29 57.3615 551.473 57.7246 550.888 57.6883C551.235 58.7232 552.041 57.5975 552.7 57.5249C552.627 57.5612 552.572 57.6702 552.48 57.7065C552.7 57.5249 552.883 57.6157 553.066 57.6338C553.304 57.9788 552.609 57.9243 552.59 58.1967L553.121 58.4145C553.121 58.4145 553.121 58.469 553.121 58.4872C553.323 58.4327 553.487 58.4327 553.414 58.6687C553.121 58.8684 552.92 59.1226 552.7 59.3223L553.524 58.9774C553.323 59.2316 553.689 59.7036 553.213 59.7036C553.487 59.7944 553.762 59.8852 554.018 59.9941L553.744 60.5932C553.963 60.5932 554.055 60.4843 553.89 60.2846C554.037 60.5569 555.63 59.9941 554.751 60.9927C555.593 60.9382 555.684 61.2287 556.508 61.4829C555.648 61.5736 556.545 62.5177 555.868 62.3362C555.959 62.7901 556.49 62.2817 556.783 62.4088C556.783 62.8082 556.252 63.2077 555.886 63.1895H556.344L556.252 63.2803L556.728 63.2077C556.728 63.6797 556.307 63.7342 556.49 64.0065L556.948 63.6434L556.856 64.0428C556.984 63.7887 557.204 63.8431 557.405 63.9884L557.314 64.0791L557.589 64.2062C557.131 64.2425 557.68 64.4786 557.277 64.6601C557.424 64.8598 557.442 64.8417 557.79 65.114L558.046 64.8054C558.687 65.0232 557.607 65.2048 557.863 65.5861L558.211 65.2774C558.01 66.2397 559.236 65.931 559.126 66.6028C558.87 66.4394 558.467 66.8025 558.577 66.7299C558.943 66.9841 559.2 67.6014 559.895 67.7103C559.383 68.1823 559.218 68.3094 559.145 68.8178C559.328 69.072 559.401 69.072 559.786 68.9994C559.676 69.3806 560.262 69.7437 559.804 69.9435C560.207 69.8527 559.822 70.2158 560.188 70.2521L560.005 70.361L560.426 70.1795C559.639 71.0146 561.305 70.8512 560.573 71.6501L560.426 71.5956L560.664 71.759C560.481 71.8498 560.335 71.7953 560.078 71.8498C560.152 72.1766 560.188 72.5216 560.225 72.8484L560.518 72.576C560.609 72.7757 561.085 72.8302 560.866 73.1389C560.097 72.8665 560.902 73.4838 560.371 73.6472L560.152 73.4657C560.213 73.6593 560.396 73.7198 560.701 73.6472C560.921 74.0103 559.859 74.0285 560.408 74.319V74.0648C560.646 73.9559 561.067 74.083 561.067 74.2645C560.994 74.319 560.811 74.4642 560.738 74.3371C560.939 74.6276 560.738 75.1178 560.939 75.2449C560.811 75.4265 560.481 75.3902 560.335 75.2994C560.774 75.9349 560.262 75.5899 560.683 76.2435H560.426L560.756 76.4614L560.188 76.77L560.536 76.6611C560.573 76.879 560.756 77.0242 560.591 77.2602L560.207 77.1331C560.408 77.7504 559.493 77.7686 560.005 78.3859C559.932 78.4222 559.822 78.3133 559.749 78.2588C560.316 78.8579 558.998 78.5493 559.676 79.1666C559.548 79.1121 559.383 79.1484 559.273 79.1121L559.493 79.3844L558.98 79.2755L559.712 79.6023L559.145 79.6386L559.383 79.7839C558.321 79.8202 559.017 80.3285 558.193 80.4556L558.852 80.5646C559.95 81.7992 557.534 82.2167 557.735 83.3242L557.259 83.0882L557.643 83.7237C557.167 83.7418 557.296 83.415 557.021 83.3606C557.094 83.8871 557.643 83.8689 557.552 84.4136C557.094 84.4862 557.259 84.1594 557.131 83.9597C557.131 84.5044 557.039 85.3032 556.582 85.4303C556.636 85.4666 556.71 85.5392 556.746 85.5392C556.765 85.9568 556.325 86.1929 556.142 86.4833C555.959 86.3381 555.977 86.2473 555.977 86.1384C555.868 86.2292 555.63 86.2655 555.776 86.5015L555.483 86.1202C555.263 86.2836 555.245 86.9372 554.806 86.6467C554.989 86.7557 555.282 87.0099 555.117 87.1733C554.439 86.7557 554.952 87.8813 554.348 87.8813C554.238 87.7179 554.403 87.4819 554.348 87.5364C554.055 87.5364 554.22 87.9176 554.293 88.2081L554.092 87.9358L553.762 88.8799C553.14 88.3897 553.194 89.5335 552.847 89.0433C552.59 89.2249 553.286 89.1341 553.03 89.479C552.737 89.2975 552.847 89.8422 552.535 89.4246V89.352L552.334 89.5517L552.151 89.0433C552.041 89.2793 552.206 89.7877 552.426 90.1145C552.059 90.0237 551.931 90.4231 551.565 90.0963V89.9511C551.126 90.4958 549.917 89.352 549.954 90.3505C549.881 90.3142 549.826 90.1871 549.899 90.1508C549.789 90.2053 549.679 90.2779 549.551 90.3142L549.441 89.9329L549.167 90.7499L549.057 90.5139C548.636 90.6229 548.105 91.0223 547.629 91.3128V91.1675C547.244 91.7667 547.043 91.1675 546.732 91.567C546.732 91.4943 546.732 91.4762 546.732 91.4399L546.365 91.5851V91.3128C546.274 91.9482 545.358 90.877 545.67 91.2765C545.596 91.5488 545.413 91.9301 545.45 92.2569C545.047 92.4021 545.249 91.9664 544.937 91.8211C544.644 91.8575 544.681 92.3113 544.223 92.1843L544.168 91.9301C543.985 92.0209 543.912 92.2206 543.656 92.3113L543.711 92.1661C543.363 92.7834 543.052 91.5125 542.887 92.6926C542.667 92.5111 542.338 92.7108 542.301 92.1843C541.807 92.5655 541.386 92.7834 540.836 93.0013C540.726 92.1479 540.726 93.0557 540.379 92.5655L540.415 93.0194C539.61 93.092 538.804 91.8938 537.98 91.9845L538.017 91.5306L537.779 92.0209C536.918 91.6577 535.838 91.2765 535.161 91.0404C534.886 91.2038 534.337 91.6577 534.044 91.3491L534.099 91.2946C533.385 91.3309 532.652 91.2402 532.085 90.6955C532.213 90.5321 532.213 90.3868 532.323 90.2961C531.938 90.6955 531.938 90.1327 531.81 90.06V90.4595C531.426 90.7499 531.352 90.2416 531.426 89.8966L530.895 90.1871C530.895 90.1871 530.895 90.06 530.931 89.9874L530.767 90.169L530.931 89.5517C530.803 89.6243 530.364 89.5517 529.924 89.9693C529.998 89.7877 529.833 89.4972 530.089 89.5154L529.229 88.7165V88.9888C528.991 89.3883 528.515 89.4064 528.515 89.1159C528.936 88.9707 528.936 88.6076 529.064 88.2808C528.789 88.3897 528.917 88.6802 528.698 88.8436C528.35 88.9707 527.91 88.8254 527.947 88.5894L528.167 88.5168C527.837 88.4805 528.277 87.7724 528.057 87.6453C527.636 87.7724 527.727 87.3911 527.233 88.0084C526.849 87.8995 527.508 87.5364 527.471 87.3911C527.087 87.5545 526.94 87.028 527.178 86.7194C526.171 87.3911 526.885 85.7934 526.116 86.3744L526.373 85.8116C526.171 85.975 525.677 86.3018 525.439 86.1929C525.53 85.8479 525.933 85.6119 526.116 85.394L525.256 85.8661C525.366 84.3047 524.011 83.3424 524.34 81.781C523.956 81.3271 523.278 80.7643 523.242 80.0562L523.388 80.0925C523.388 79.8565 523.443 79.6205 523.498 79.3844C523.388 79.566 523.26 79.7657 523.15 79.9654C522.985 79.8565 522.802 79.7657 522.784 79.6205C523.022 78.7671 523.37 77.7867 522.839 76.8971C521.667 76.3161 523.828 76.4795 523.004 75.9349C523.114 75.9893 523.26 76.0075 523.37 76.0438C522.985 75.4446 522.839 75.1178 522.217 74.4098C523.315 74.6095 522.235 74.0103 522.821 74.1374L522.381 74.0285C522.674 73.9196 522.821 73.6291 523.15 73.7199L522.638 73.3567L523.095 73.4112C523.205 73.0844 523.004 72.2492 523.956 72.3219C523.498 71.3233 524.212 70.1069 524.853 69.3443C524.597 69.0357 524.725 68.7633 524.816 68.5273C525.018 68.5455 525.219 68.5999 525.402 68.6544C525.366 68.4184 524.944 67.8192 525.329 67.8737C525.384 67.91 525.402 67.9463 525.421 67.9826C525.421 67.7285 525.823 67.8192 525.567 67.3109C525.75 67.1475 526.098 67.2019 526.427 67.6195C525.787 66.9478 526.885 67.4016 526.867 67.4198C526.867 67.4198 527.434 67.0385 528.57 66.5483C529.686 66.0581 531.444 65.459 533.641 64.9869C538.017 63.9702 543.93 63.6434 546.567 61.4284C546.768 60.9927 547.244 60.7385 547.134 60.1938C547.501 60.0486 547.574 60.8656 547.702 60.4298C547.263 60.0849 547.977 59.286 547.574 58.6687L547.885 58.5961C547.977 58.2875 547.427 58.9229 547.574 58.3419L547.391 59.1771C547.153 59.0318 547.043 58.8321 546.988 58.5416C546.713 58.8503 546.475 59.9759 545.963 59.4313L546.127 59.395C545.67 59.395 545.908 58.8321 545.816 58.6687H545.908L545.56 58.233C545.816 58.5416 546.365 57.9062 546.109 57.9243C545.578 57.6338 546.237 58.1422 545.816 58.2148C545.56 58.233 545.67 57.7973 545.706 57.5249H545.249C545.285 57.1255 545.542 57.5612 545.395 57.1436L544.791 57.5249C544.754 56.5263 544.132 57.9607 543.93 57.0166C544.37 56.7987 543.912 56.6716 544.004 56.3629H542.96C542.868 56.2177 543.253 56.0543 543.088 56.1088C542.905 55.8364 542.759 56.3448 542.649 56.3266C542.576 56.0543 541.88 56.3266 541.916 55.6549C541.221 55.201 541.605 56.49 540.946 56.0906C540.855 55.6912 541.477 55.9998 541.184 55.5822L540.488 55.7275C540.543 55.5278 540.617 55.0739 540.873 55.1647C539.024 54.6381 537.87 52.5684 536.094 53.2402C535.801 52.7863 536.241 52.9134 536.406 52.5865C535.161 53.3128 534.428 51.7332 533.275 51.9329L533.311 52.3324C531.499 51.3883 529.631 52.4595 527.618 52.5684L527.929 52.7681C527.782 53.2038 527.38 53.3672 527.142 53.6396C527.032 53.4762 527.087 52.7681 526.592 53.1131C526.757 53.2038 527.032 53.2765 527.013 53.4762C525.073 53.0223 521.649 54.7108 518.848 56.3266C517.237 57.7791 515.516 59.3405 514.106 61.2105C512.788 62.9716 511.707 64.8417 511.14 66.7844C511.341 66.2034 512.147 66.7843 511.781 67.1293C509.822 67.8192 511.396 69.2354 510.041 70.1976C510.096 72.5034 508.467 74.5005 509.767 76.6611L509.291 76.7155C509.071 77.0424 509.419 77.115 509.474 77.4418H509.346C509.199 78.2406 509.748 79.1484 509.602 79.6205L510.133 79.5842C510.243 80.038 509.767 79.8746 510.133 80.3104H509.877L510.444 80.8006C509.51 80.9095 510.627 82.0897 510.279 82.5435C510.572 83.1064 511.25 84.0868 511.341 84.9946C510.957 85.3032 511.305 86.3744 511.36 87.137C512.019 88.4079 513.026 90.169 513.904 91.7848L514.399 91.4399L514.673 91.8211C514.564 91.8938 514.545 91.9845 514.454 91.9482C514.088 92.6381 515.259 92.7108 515.131 93.2554C515.424 92.7471 515.003 92.9468 514.857 92.7108C514.857 92.2387 515.552 92.2024 515.607 92.7834L515.497 92.856L515.955 92.9468C515.607 93.2554 515.625 93.6549 515.278 93.9635C516.358 95.1073 517.639 95.3434 518.61 96.5598C518.134 96.8321 519.525 97.2134 518.683 97.6673C519.617 98.0486 519.049 97.0137 519.8 96.8321C519.983 97.0137 520.349 96.9955 520.166 97.286C519.928 97.3768 519.965 97.8488 519.745 97.7581C519.91 97.8852 520.093 97.9941 520.276 98.103C520.276 98.1938 520.093 98.212 520.001 98.212C521.301 98.5932 521.448 100.064 522.711 100.264C522.967 100.046 522.381 99.9368 522.638 99.7007C523.938 99.7734 523.169 100.736 524.322 100.881L523.901 101.153C524.359 101.062 524.67 100.808 524.981 101.389C524.816 101.898 524.34 101.553 523.992 101.607C524.322 101.843 525.274 102.17 525.237 101.607C525.732 101.662 525.659 102.17 525.823 102.406C525.897 102.297 525.585 101.898 525.951 101.789C526.373 102.351 527.288 102.715 527.984 103.078C527.929 103.187 527.892 103.404 527.819 103.441C528.661 103.041 528.167 104.094 529.046 104.276L529.101 104.457Z" fill="#294F4A"/>
<path d="M564.601 90.8228L564.363 91.0225C564.454 91.0951 564.564 91.1677 564.601 91.3674V90.8228Z" fill="#294F4A"/>
<path d="M554.055 99.9004C554.055 99.9004 554.037 100.009 554.037 100.082C554.092 100.027 554.073 99.9731 554.055 99.9004Z" fill="#294F4A"/>
<path d="M551.363 102.17C551.547 101.97 551.29 101.916 551.125 101.843C551.162 101.952 551.217 102.061 551.363 102.17Z" fill="#294F4A"/>
<path d="M566.523 83.1428C566.523 83.1428 566.614 83.2518 566.724 83.2699C566.651 83.1792 566.578 83.1428 566.523 83.1428Z" fill="#294F4A"/>
<path d="M563.337 62.6631C563.337 62.6631 563.337 62.7357 563.337 62.772C563.356 62.7357 563.356 62.6994 563.337 62.6631Z" fill="#294F4A"/>
<path d="M563.337 64.0974C563.337 64.0974 563.429 64.2064 563.521 64.2608C563.484 64.1519 563.411 64.1156 563.337 64.0974Z" fill="#294F4A"/>
<path d="M564.839 87.9722C564.839 87.9722 564.839 88.1356 564.894 88.2445C564.949 88.1356 564.894 88.0448 564.839 87.9722Z" fill="#294F4A"/>
<path d="M563.758 64.4059L563.868 64.6782L563.96 64.6238L563.758 64.3877V64.4059Z" fill="#294F4A"/>
<path d="M563.154 62.3181C563.209 62.4271 563.301 62.5542 563.319 62.6631C563.356 62.4634 563.282 62.3544 563.154 62.3181Z" fill="#294F4A"/>
<path d="M566.743 75.5173C566.743 75.5173 566.743 75.5354 566.743 75.5536C566.981 75.7715 566.871 75.6262 566.743 75.5173Z" fill="#294F4A"/>
<path d="M565.205 65.0779V65.1323H565.388L565.205 65.0779Z" fill="#294F4A"/>
<path d="M562.495 61.1562C562.495 61.1562 562.587 61.2106 562.66 61.2106L562.587 61.0291C562.587 61.0291 562.514 61.1199 562.477 61.138L562.495 61.1562Z" fill="#294F4A"/>
<path d="M566.981 71.051C566.761 71.0146 566.633 71.0146 566.542 71.051C566.578 71.1417 566.67 71.178 566.981 71.051Z" fill="#294F4A"/>
</g>
<g filter="url(#filter0_d_1_27)">
<rect x="95" y="106.075" width="91.5618" height="91.5618" rx="20" fill="#E74D89"/>
<path d="M141 177.075C127.218 177.075 116 165.857 116 152.075C116 138.293 127.218 127.075 141 127.075C154.782 127.075 166 138.293 166 152.075C166 165.857 154.782 177.075 141 177.075ZM141 131.107C129.435 131.107 120.032 140.511 120.032 152.075C120.032 163.64 129.435 173.043 141 173.043C152.565 173.043 161.968 163.64 161.968 152.075C161.968 140.511 152.565 131.107 141 131.107Z" fill="white"/>
<path d="M133.743 149.615C129.017 149.615 123.904 148.913 118.453 147.494C117.372 147.212 116.727 146.115 117.009 145.034C117.291 143.954 118.388 143.309 119.469 143.591C135.985 147.881 148.912 145.163 156.848 135.744C157.566 134.897 158.84 134.784 159.687 135.502C160.541 136.22 160.646 137.494 159.928 138.341C153.63 145.817 144.727 149.615 133.743 149.615Z" fill="white"/>
<path d="M123.664 169.18C123.196 169.18 122.736 169.018 122.357 168.696C121.511 167.97 121.414 166.696 122.132 165.849C133.922 152.067 149.18 148.793 163.995 156.881C164.97 157.414 165.333 158.639 164.801 159.615C164.269 160.591 163.043 160.954 162.067 160.422C144.277 150.72 131.333 161.301 125.196 168.478C124.801 168.938 124.236 169.18 123.664 169.18Z" fill="white"/>
<path d="M147.606 176.108C147.533 176.108 147.461 176.108 147.388 176.1C146.283 175.979 145.485 174.988 145.606 173.875C147.178 159.455 143.469 144.915 134.59 130.641C134.001 129.697 134.291 128.455 135.235 127.867C136.178 127.278 137.42 127.568 138.009 128.512C147.38 143.568 151.283 158.979 149.614 174.318C149.493 175.35 148.622 176.108 147.606 176.108Z" fill="white"/>
</g>
<defs>
<filter id="filter0_d_1_27" x="80" y="92" width="115.562" height="115.637" filterUnits="userSpaceOnUse" color-interpolation-filters="sRGB">
<feFlood flood-opacity="0" result="BackgroundImageFix"/>
<feColorMatrix in="SourceAlpha" type="matrix" values="0 0 0 0 0 0 0 0 0 0 0 0 0 0 0 0 0 0 127 0" result="hardAlpha"/>
<feOffset dx="-3" dy="-2"/>
<feGaussianBlur stdDeviation="6"/>
<feComposite in2="hardAlpha" operator="out"/>
<feColorMatrix type="matrix" values="0 0 0 0 0 0 0 0 0 0 0 0 0 0 0 0 0 0 0.25 0"/>
<feBlend mode="normal" in2="BackgroundImageFix" result="effect1_dropShadow_1_27"/>
<feBlend mode="normal" in="SourceGraphic" in2="effect1_dropShadow_1_27" result="shape"/>
</filter>
<clipPath id="clip0_1_27">
<rect width="48" height="56" fill="white" transform="translate(0 218)"/>
</clipPath>
<clipPath id="clip1_1_27">
<rect width="48" height="56" fill="white" transform="translate(566.249 430.841) rotate(51.9372)"/>
</clipPath>
<clipPath id="clip2_1_27">
<rect width="113" height="114" fill="white" transform="translate(483 18)"/>
</clipPath>
</defs>
</svg>
