<svg width="60" height="58" viewBox="0 0 60 58" fill="none" xmlns="http://www.w3.org/2000/svg">
<g filter="url(#filter0_d_10_33)">
<path fill-rule="evenodd" clip-rule="evenodd" d="M29.7347 0C15.5163 0 4 11.4705 4 25.6323C4 36.9747 11.3666 46.5547 21.5961 49.951C22.8828 50.1753 23.3654 49.4063 23.3654 48.7335C23.3654 48.1247 23.3332 46.1062 23.3332 43.9595C16.8674 45.145 15.1946 42.3895 14.6799 40.9477C14.3904 40.2107 13.1358 37.9359 12.0421 37.3271C11.1414 36.8465 9.85464 35.661 12.0099 35.629C14.0365 35.5969 15.4841 37.4873 15.9666 38.2563C18.2828 42.1332 21.9821 41.0438 23.4619 40.3709C23.687 38.7048 24.3626 37.5834 25.1025 36.9426C19.3765 36.3018 13.3932 34.091 13.3932 24.2866C13.3932 21.4991 14.3904 19.1922 16.031 17.398C15.7736 16.7571 14.8729 14.1298 16.2883 10.6054C16.2883 10.6054 18.4436 9.93253 23.3654 13.2327C25.4241 12.656 27.6116 12.3676 29.799 12.3676C31.9865 12.3676 34.1739 12.656 36.2327 13.2327C41.1545 9.90049 43.3098 10.6054 43.3098 10.6054C44.7252 14.1298 43.8244 16.7571 43.5671 17.398C45.2077 19.1922 46.2049 21.4671 46.2049 24.2866C46.2049 34.1231 40.1894 36.3018 34.4635 36.9426C35.3963 37.7436 36.2005 39.2816 36.2005 41.6846C36.2005 45.1129 36.1684 47.8684 36.1684 48.7335C36.1684 49.4063 36.6509 50.2074 37.9376 49.951C48.1028 46.5547 55.4694 36.9426 55.4694 25.6323C55.4694 11.4705 43.9531 0 29.7347 0Z" fill="white"/>
</g>
<defs>
<filter id="filter0_d_10_33" x="0" y="0" width="59.4694" height="58" filterUnits="userSpaceOnUse" color-interpolation-filters="sRGB">
<feFlood flood-opacity="0" result="BackgroundImageFix"/>
<feColorMatrix in="SourceAlpha" type="matrix" values="0 0 0 0 0 0 0 0 0 0 0 0 0 0 0 0 0 0 127 0" result="hardAlpha"/>
<feOffset dy="4"/>
<feGaussianBlur stdDeviation="2"/>
<feComposite in2="hardAlpha" operator="out"/>
<feColorMatrix type="matrix" values="0 0 0 0 0 0 0 0 0 0 0 0 0 0 0 0 0 0 0.25 0"/>
<feBlend mode="normal" in2="BackgroundImageFix" result="effect1_dropShadow_10_33"/>
<feBlend mode="normal" in="SourceGraphic" in2="effect1_dropShadow_10_33" result="shape"/>
</filter>
</defs>
</svg>
