<svg width="88" height="13" viewBox="0 0 88 13" fill="none" xmlns="http://www.w3.org/2000/svg">
<path d="M5.90224 12.9789C4.92949 12.9789 4.08374 12.8101 3.36474 12.4714C2.65639 12.1327 2.06427 11.6785 1.58849 11.1075C1.11271 10.5264 0.758482 9.88069 0.525915 9.17268C0.293349 8.45334 0.177002 7.71928 0.177002 6.96823C0.177002 6.21717 0.293349 5.48311 0.525915 4.76377C0.758482 4.04444 1.11271 3.39986 1.58849 2.82892C2.07481 2.24779 2.67746 1.78788 3.39646 1.44917C4.12599 1.10026 4.97707 0.925805 5.94982 0.925805C6.71107 0.925805 7.3613 1.02096 7.90052 1.21127C8.43974 1.40158 8.89434 1.64968 9.26443 1.95667C9.63452 2.25233 9.93052 2.56952 10.1525 2.90823C10.3746 3.24694 10.5437 3.56866 10.6601 3.87565C10.7764 4.18265 10.8557 4.43072 10.8979 4.62103C10.9402 4.81134 10.9614 4.90652 10.9614 4.90652H9.10583C9.10583 4.90652 9.08465 4.82721 9.0424 4.66862C9.00014 4.51002 8.91552 4.31971 8.78865 4.09768C8.67231 3.86546 8.49785 3.6321 8.26528 3.39987C8.03272 3.16765 7.72607 2.97732 7.34544 2.82892C6.97535 2.67033 6.51543 2.59104 5.96567 2.59104C5.31012 2.59104 4.73397 2.71791 4.237 2.97166C3.75068 3.21522 3.34356 3.5426 3.01584 3.95494C2.69865 4.36728 2.46075 4.83288 2.30216 5.35058C2.14356 5.86827 2.06427 6.39729 2.06427 6.93651C2.06427 7.48592 2.14356 8.02513 2.30216 8.55416C2.47129 9.07185 2.71451 9.54311 3.03169 9.96564C3.35942 10.378 3.76122 10.7054 4.237 10.9489C4.72332 11.1925 5.28905 11.3137 5.93396 11.3137C6.93842 11.3137 7.73661 11.0282 8.32873 10.4573C8.92085 9.88635 9.24857 9.1149 9.31201 8.14182H5.96567V6.65104H11.1041V7.49159C11.1041 8.69691 10.8716 9.70624 10.4063 10.5207C9.95171 11.3352 9.32787 11.9481 8.5349 12.3604C7.75247 12.7728 6.87498 12.9789 5.90224 12.9789ZM16.5147 12.9789C15.8063 12.9789 15.193 12.8577 14.675 12.6142C14.1675 12.3604 13.7446 12.0274 13.4062 11.615C13.0785 11.1925 12.83 10.7212 12.6608 10.2035C12.5022 9.68585 12.4229 9.15681 12.4229 8.61759C12.4229 8.08857 12.5022 7.56523 12.6608 7.04753C12.8194 6.52984 13.0626 6.05858 13.3904 5.63604C13.7181 5.21351 14.1357 4.88045 14.6432 4.6369C15.1507 4.38315 15.7481 4.25628 16.4354 4.25628C17.1754 4.25628 17.8257 4.42506 18.3861 4.76377C18.957 5.09116 19.4011 5.5828 19.7183 6.2387C20.046 6.88327 20.2099 7.68756 20.2099 8.64931V9.14096H14.2468C14.289 9.78553 14.5058 10.3406 14.897 10.8062C15.2882 11.2718 15.8274 11.504 16.5147 11.504C16.9058 11.504 17.2283 11.4406 17.4821 11.3137C17.7358 11.1766 17.9315 11.0226 18.0689 10.8538C18.2063 10.685 18.3014 10.5366 18.3543 10.4097C18.4178 10.2828 18.4495 10.2194 18.4495 10.2194H20.1306C20.1306 10.2194 20.1042 10.3145 20.0513 10.5049C19.9984 10.685 19.898 10.9115 19.75 11.1868C19.6126 11.4621 19.4116 11.7362 19.1473 12.0115C18.883 12.2868 18.5341 12.519 18.1006 12.7093C17.6671 12.8894 17.1385 12.9789 16.5147 12.9789ZM14.2626 7.87222H18.4654C18.4231 7.13249 18.2011 6.5876 17.7993 6.2387C17.4081 5.88979 16.9482 5.71533 16.4195 5.71533C15.8274 5.71533 15.3357 5.91131 14.9446 6.30214C14.5534 6.68276 14.3261 7.20612 14.2626 7.87222ZM25.3753 12.9789C24.7092 12.9789 24.1756 12.8577 23.7735 12.6142C23.3718 12.3706 23.081 12.0489 22.9012 11.6467C22.7321 11.2344 22.6475 10.7903 22.6475 10.3145V5.87393H21.1726V4.41487H22.6475V2.32142H24.4554V4.41487H26.422V5.87393H24.4554V10.2828C24.4554 11.0758 24.8938 11.4723 25.7718 11.4723C25.9938 11.4723 26.2 11.4564 26.3903 11.4247C26.5806 11.393 26.6758 11.3771 26.6758 11.3771V12.8521C26.6758 12.8521 26.5432 12.8736 26.2793 12.9155C26.0255 12.9574 25.7242 12.9789 25.3753 12.9789ZM35.7813 12.9789C35.0835 12.9789 34.4808 12.8894 33.9733 12.7093C33.476 12.5292 33.0637 12.3026 32.7363 12.0274C32.4089 11.7419 32.1438 11.4406 31.9433 11.1234C31.753 10.8062 31.6103 10.5105 31.5151 10.2353C31.42 9.94979 31.3565 9.71757 31.3248 9.53745C31.2931 9.35733 31.2772 9.26783 31.2772 9.26783H33.1645C33.1645 9.26783 33.1804 9.34147 33.2121 9.48986C33.2438 9.62694 33.3072 9.80139 33.4024 10.0132C33.4976 10.2137 33.6403 10.4199 33.8306 10.6317C34.0311 10.8322 34.2905 11.0067 34.6077 11.1551C34.9351 11.2922 35.3474 11.3613 35.8447 11.3613C36.5845 11.3613 37.1611 11.1868 37.5734 10.8379C37.9959 10.489 38.2078 10.045 38.2078 9.50573C38.2078 9.04015 38.0492 8.68103 37.732 8.42728C37.425 8.16334 36.9708 7.9617 36.3681 7.82463L34.8139 7.45987C34.2327 7.333 33.6935 7.14834 33.1962 6.90479C32.7102 6.65104 32.3138 6.31233 32.0068 5.88979C31.7111 5.46725 31.5627 4.93257 31.5627 4.288C31.5627 3.59018 31.7315 2.99319 32.0702 2.49588C32.4191 1.98838 32.8949 1.60209 33.4976 1.33815C34.1104 1.06287 34.8082 0.925805 35.591 0.925805C36.3522 0.925805 36.9809 1.04248 37.4783 1.27471C37.9756 1.49674 38.372 1.77201 38.6677 2.09939C38.9634 2.42678 39.1809 2.75983 39.3179 3.09854C39.4663 3.42592 39.5615 3.70686 39.6034 3.93909C39.6453 4.16112 39.6668 4.27213 39.6668 4.27213H37.8589C37.8589 4.27213 37.8374 4.18717 37.7954 4.01838C37.7535 3.83826 37.6527 3.6321 37.4941 3.39987C37.3457 3.16765 37.1135 2.96599 36.7963 2.7972C36.4893 2.61709 36.0724 2.5276 35.5434 2.5276C34.8139 2.5276 34.269 2.69639 33.9099 3.0351C33.5508 3.37381 33.3707 3.74878 33.3707 4.16112C33.3707 4.56327 33.5236 4.88499 33.8306 5.12855C34.1376 5.36077 34.5499 5.53522 35.0676 5.6519L36.7329 6.04839C37.3457 6.18546 37.9008 6.39162 38.3981 6.66689C38.9056 6.94216 39.3077 7.30693 39.6034 7.76119C39.8991 8.20525 40.0475 8.75014 40.0475 9.39471C40.0475 10.0506 39.8832 10.6533 39.5558 11.2027C39.2386 11.7419 38.7629 12.1758 38.1285 12.5031C37.4941 12.8203 36.7113 12.9789 35.7813 12.9789ZM45.1304 12.9789C44.4643 12.9789 43.9308 12.8577 43.5286 12.6142C43.1276 12.3706 42.8365 12.0489 42.6563 11.6467C42.4875 11.2344 42.4026 10.7903 42.4026 10.3145V5.87393H40.9277V4.41487H42.4026V2.32142H44.2106V4.41487H46.1771V5.87393H44.2106V10.2828C44.2106 11.0758 44.6501 11.4723 45.5269 11.4723C45.7489 11.4723 45.9551 11.4564 46.1454 11.4247C46.3357 11.393 46.4309 11.3771 46.4309 11.3771V12.8521C46.4309 12.8521 46.2995 12.8736 46.0344 12.9155C45.7806 12.9574 45.4793 12.9789 45.1304 12.9789ZM51.3484 4.25628C51.8774 4.25628 52.3158 4.34124 52.6647 4.51003C53.0238 4.67881 53.3093 4.8748 53.5211 5.09683C53.733 5.31886 53.8859 5.50917 53.9811 5.66776H54.0762V4.41487H55.8842V12.8203H54.0762V11.5674H53.9811C53.8859 11.726 53.733 11.9163 53.5211 12.1384C53.3093 12.3604 53.0238 12.5564 52.6647 12.7252C52.3158 12.894 51.8774 12.9789 51.3484 12.9789C50.714 12.9789 50.159 12.8577 49.6832 12.6142C49.2176 12.3604 48.8268 12.0274 48.5096 11.615C48.1924 11.1925 47.9545 10.7212 47.7959 10.2035C47.6475 9.68585 47.5739 9.15681 47.5739 8.61759C47.5739 8.07838 47.6475 7.54936 47.7959 7.03166C47.9545 6.51397 48.1924 6.04839 48.5096 5.63604C48.8268 5.21351 49.2176 4.88045 49.6832 4.6369C50.159 4.38315 50.714 4.25628 51.3484 4.25628ZM51.7449 5.76292C51.2272 5.76292 50.7933 5.90564 50.4444 6.19111C50.0955 6.46638 49.8316 6.81983 49.6515 7.25369C49.4827 7.68756 49.3977 8.14181 49.3977 8.61759C49.3977 9.09338 49.4827 9.54764 49.6515 9.98151C49.8316 10.4154 50.0955 10.7745 50.4444 11.0599C50.7933 11.3352 51.2272 11.4723 51.7449 11.4723C52.2626 11.4723 52.6908 11.3352 53.0295 11.0599C53.3784 10.7745 53.6378 10.4154 53.8066 9.98151C53.9867 9.54764 54.0762 9.09338 54.0762 8.61759C54.0762 8.14181 53.9867 7.68756 53.8066 7.25369C53.6378 6.81983 53.3784 6.46638 53.0295 6.19111C52.6908 5.90564 52.2626 5.76292 51.7449 5.76292ZM57.6672 12.8203V4.41487H59.4752V5.52502H59.5387C59.6972 5.19764 59.9465 4.9065 60.284 4.65275C60.6329 4.38881 61.1359 4.25628 61.7907 4.25628C61.9923 4.25628 62.1611 4.26647 62.2982 4.288C62.4466 4.30952 62.5202 4.31971 62.5202 4.31971V6.06424C62.5202 6.06424 62.4409 6.05404 62.2823 6.03252C62.1237 6.011 61.9447 6.0008 61.7431 6.0008C61.0034 6.0008 60.4381 6.21263 60.0462 6.63517C59.6655 7.04752 59.4752 7.71927 59.4752 8.64931V12.8203H57.6672ZM67.4729 12.9789C66.8068 12.9789 66.2721 12.8577 65.8711 12.6142C65.4689 12.3706 65.1778 12.0489 64.9988 11.6467C64.8289 11.2344 64.745 10.7903 64.745 10.3145V5.87393H63.2701V4.41487H64.745V2.32142H66.553V4.41487H68.5196V5.87393H66.553V10.2828C66.553 11.0758 66.9914 11.4723 67.8693 11.4723C68.0914 11.4723 68.2975 11.4564 68.4879 11.4247C68.6782 11.393 68.7733 11.3771 68.7733 11.3771V12.8521C68.7733 12.8521 68.6408 12.8736 68.3769 12.9155C68.1231 12.9574 67.8218 12.9789 67.4729 12.9789ZM74.0069 12.9789C73.2989 12.9789 72.6861 12.8577 72.1672 12.6142C71.6597 12.3604 71.2372 12.0274 70.8985 11.615C70.5711 11.1925 70.323 10.7212 70.1531 10.2035C69.9945 9.68585 69.9152 9.15681 69.9152 8.61759C69.9152 8.08857 69.9945 7.56523 70.1531 7.04753C70.3117 6.52984 70.5552 6.05858 70.8826 5.63604C71.2111 5.21351 71.628 4.88045 72.1355 4.6369C72.643 4.38315 73.2411 4.25628 73.9276 4.25628C74.6685 4.25628 75.3187 4.42506 75.8783 4.76377C76.4493 5.09116 76.8933 5.5828 77.2105 6.2387C77.539 6.88327 77.7022 7.68756 77.7022 8.64931V9.14096H71.739C71.7821 9.78553 71.9984 10.3406 72.3893 10.8062C72.7812 11.2718 73.3204 11.504 74.0069 11.504C74.3989 11.504 74.7206 11.4406 74.9743 11.3137C75.2281 11.1766 75.4241 11.0226 75.5611 10.8538C75.6994 10.685 75.7945 10.5366 75.8466 10.4097C75.9101 10.2828 75.9418 10.2194 75.9418 10.2194H77.6229C77.6229 10.2194 77.5968 10.3145 77.5436 10.5049C77.4915 10.685 77.3906 10.9115 77.2422 11.1868C77.1052 11.4621 76.9047 11.7362 76.6396 12.0115C76.3756 12.2868 76.0267 12.519 75.5929 12.7093C75.1601 12.8894 74.6311 12.9789 74.0069 12.9789ZM71.7549 7.87222H75.9576C75.9157 7.13249 75.6937 6.5876 75.2915 6.2387C74.9007 5.88979 74.4408 5.71533 73.9118 5.71533C73.3204 5.71533 72.8288 5.91131 72.4369 6.30214C72.046 6.68276 71.8183 7.20612 71.7549 7.87222ZM82.8984 12.9789C82.264 12.9789 81.7089 12.8577 81.2331 12.6142C80.7676 12.3604 80.3767 12.0274 80.0595 11.615C79.7424 11.1925 79.5045 10.7212 79.3459 10.2035C79.1975 9.68585 79.1238 9.15681 79.1238 8.61759C79.1238 8.07838 79.1975 7.54936 79.3459 7.03166C79.5045 6.51397 79.7424 6.04839 80.0595 5.63604C80.3767 5.21351 80.7676 4.88045 81.2331 4.6369C81.7089 4.38315 82.264 4.25628 82.8984 4.25628C83.4263 4.25628 83.8658 4.34124 84.2147 4.51003C84.5738 4.67881 84.8593 4.8748 85.0711 5.09683C85.2818 5.31886 85.4359 5.50917 85.531 5.66776H85.6262V0.767212H87.4342V12.8203H85.6262V11.5674H85.531C85.4359 11.726 85.2818 11.9163 85.0711 12.1384C84.8593 12.3604 84.5738 12.5564 84.2147 12.7252C83.8658 12.894 83.4263 12.9789 82.8984 12.9789ZM83.2949 11.4723C83.8125 11.4723 84.2408 11.3352 84.5795 11.0599C84.9284 10.7745 85.1867 10.4154 85.3566 9.98151C85.5356 9.54764 85.6262 9.09338 85.6262 8.61759C85.6262 8.14181 85.5356 7.68756 85.3566 7.25369C85.1867 6.81983 84.9284 6.46638 84.5795 6.19111C84.2408 5.90564 83.8125 5.76292 83.2949 5.76292C82.776 5.76292 82.3433 5.90564 81.9944 6.19111C81.6455 6.46638 81.3804 6.81983 81.2014 7.25369C81.0315 7.68756 80.9477 8.14181 80.9477 8.61759C80.9477 9.09338 81.0315 9.54764 81.2014 9.98151C81.3804 10.4154 81.6455 10.7745 81.9944 11.0599C82.3433 11.3352 82.776 11.4723 83.2949 11.4723Z" fill="#1C2436"/>
</svg>
